<svg xmlns="http://www.w3.org/2000/svg" width="67.119" height="69" viewBox="0 0 67.119 69">
  <g id="Grupo_58617" data-name="Grupo 58617" transform="translate(-6.979)">
    <g id="Grupo_58615" data-name="Grupo 58615" transform="translate(6.979)">
      <path id="Trazado_114840" data-name="Trazado 114840" d="M218.7,461.635v1.722a4.136,4.136,0,0,1-.024.45,4.054,4.054,0,0,1-4.028,3.6h-6.213a4.054,4.054,0,0,1-4.028-3.6,4.136,4.136,0,0,1-.024-.45v-1.722a4.3,4.3,0,0,0,1.756.372h10.806A4.3,4.3,0,0,0,218.7,461.635Z" transform="translate(-177.78 -399.422)" fill="#50758d"/>
      <g id="Grupo_58614" data-name="Grupo 58614">
        <path id="Trazado_114841" data-name="Trazado 114841" d="M249.5,8.856a1.013,1.013,0,0,1-1.013-1.013V1.013a1.013,1.013,0,0,1,2.026,0v6.83A1.013,1.013,0,0,1,249.5,8.856Z" transform="translate(-215.937)" fill="#ffe7c9"/>
        <path id="Trazado_114842" data-name="Trazado 114842" d="M83.556,77.591a1.01,1.01,0,0,1-.716-.3l-4.829-4.83a1.013,1.013,0,0,1,1.433-1.433l4.829,4.83a1.013,1.013,0,0,1-.716,1.729Z" transform="translate(-68.18 -61.203)" fill="#ffe7c9"/>
        <path id="Trazado_114843" data-name="Trazado 114843" d="M14.822,243.529H7.992a1.013,1.013,0,0,1,0-2.026h6.83a1.013,1.013,0,0,1,0,2.026Z" transform="translate(-6.979 -208.957)" fill="#ffe7c9"/>
        <path id="Trazado_114844" data-name="Trazado 114844" d="M78.726,383.293a1.013,1.013,0,0,1-.716-1.729l4.829-4.829a1.013,1.013,0,0,1,1.433,1.433L79.442,383A1.01,1.01,0,0,1,78.726,383.293Z" transform="translate(-68.18 -325.707)" fill="#ffe7c9"/>
        <path id="Trazado_114845" data-name="Trazado 114845" d="M389.258,383.293a1.011,1.011,0,0,1-.716-.3l-4.829-4.829a1.013,1.013,0,0,1,1.433-1.433l4.829,4.829a1.013,1.013,0,0,1-.716,1.729Z" transform="translate(-332.684 -325.707)" fill="#ffe7c9"/>
        <path id="Trazado_114846" data-name="Trazado 114846" d="M447.151,243.529h-6.83a1.013,1.013,0,0,1,0-2.026h6.83a1.013,1.013,0,0,1,0,2.026Z" transform="translate(-381.045 -208.957)" fill="#ffe7c9"/>
        <path id="Trazado_114847" data-name="Trazado 114847" d="M384.428,77.591a1.013,1.013,0,0,1-.716-1.729l4.829-4.83a1.013,1.013,0,0,1,1.433,1.433l-4.829,4.83A1.01,1.01,0,0,1,384.428,77.591Z" transform="translate(-332.684 -61.203)" fill="#ffe7c9"/>
      </g>
      <path id="Trazado_114848" data-name="Trazado 114848" d="M211.542,454.369s-6.623,1.218-7.159.979v1.722a4.136,4.136,0,0,0,.024.45,4.054,4.054,0,0,0,4.028,3.6h1.756a4.055,4.055,0,0,1-3.82-2.7.407.407,0,0,1,.381-.546h10.192a4.3,4.3,0,0,0,1.732-.361,4.136,4.136,0,0,0,.024-.45v-1.722C218.165,455.587,211.542,454.369,211.542,454.369Z" transform="translate(-177.78 -393.136)" fill="#2b597f"/>
      <path id="Trazado_114849" data-name="Trazado 114849" d="M204.3,382.02a4.319,4.319,0,0,1-4.322,4.322H189.176a4.319,4.319,0,0,1-4.322-4.322s-.063-6.313-.076-6.478v-.005l9.8-1.351,9.689,1.351Z" transform="translate(-160.817 -323.759)" fill="#50758d"/>
      <path id="Trazado_114850" data-name="Trazado 114850" d="M192.553,395.015h-3.377a4.319,4.319,0,0,1-4.322-4.322s-.063-6.313-.076-6.478v-.005h3.377v.005c.012.165.076,6.478.076,6.478a4.319,4.319,0,0,0,4.322,4.322Z" transform="translate(-160.817 -332.431)" fill="#2b597f"/>
      <path id="Trazado_114851" data-name="Trazado 114851" d="M301.05,418.809h-3.444a1.013,1.013,0,1,1,0-2.026h3.434l.005,1.013Z" transform="translate(-257.563 -360.615)" fill="#2b597f"/>
      <path id="Trazado_114852" data-name="Trazado 114852" d="M197.475,417.8a1.013,1.013,0,0,1-1.013,1.013h-11.28l-.023-2.026h11.3A1.013,1.013,0,0,1,197.475,417.8Z" transform="translate(-161.146 -360.615)" fill="#2b597f"/>
      <path id="Trazado_114853" data-name="Trazado 114853" d="M134.017,90.694h0c-10.432-.16-19.2,8.932-19.017,19.288a19.376,19.376,0,0,0,5.483,13.555c2,2.055,3.727,3.954,3.918,6.712l19.49.032c.109-2.839,1.724-4.757,3.735-6.858A19.373,19.373,0,0,0,153,109.981a19.144,19.144,0,0,0-18.982-19.287Z" transform="translate(-100.44 -78.469)" fill="#fad207"/>
      <path id="Trazado_114854" data-name="Trazado 114854" d="M143.89,130.277v.005l-19.49-.032c-.192-2.758-1.921-4.657-3.918-6.712A19.376,19.376,0,0,1,115,109.984c-.188-10.356,8.585-19.448,19.017-19.287.527,0,1.048.023,1.564.065a19.389,19.389,0,0,0-11.722,32.777c2,2.055,3.727,3.954,3.918,6.712Z" transform="translate(-100.439 -78.472)" fill="#faa515"/>
      <path id="Trazado_114855" data-name="Trazado 114855" d="M193.17,208.662a2.228,2.228,0,0,1-1.677.86l-.083,0a2.229,2.229,0,0,1-1.653-.734l-6.349-7.024a2.229,2.229,0,0,1,3.307-2.989l4.566,5.051,7.284-9.381a2.229,2.229,0,1,1,3.52,2.734Z" transform="translate(-159.134 -167.496)" fill="#faa515"/>
    </g>
    <g id="Grupo_58616" data-name="Grupo 58616" transform="translate(6.979)">
      <path id="Trazado_114856" data-name="Trazado 114856" d="M249.5,8.856a1.013,1.013,0,0,0,1.013-1.013V1.013a1.013,1.013,0,0,0-2.026,0v6.83A1.013,1.013,0,0,0,249.5,8.856Z" transform="translate(-215.937)"/>
      <path id="Trazado_114857" data-name="Trazado 114857" d="M82.839,77.294a1.013,1.013,0,0,0,1.433-1.433l-4.829-4.83a1.013,1.013,0,0,0-1.433,1.433Z" transform="translate(-68.18 -61.203)"/>
      <path id="Trazado_114858" data-name="Trazado 114858" d="M14.822,241.5H7.992a1.013,1.013,0,0,0,0,2.026h6.83a1.013,1.013,0,0,0,0-2.026Z" transform="translate(-6.979 -208.957)"/>
      <path id="Trazado_114859" data-name="Trazado 114859" d="M82.839,376.734l-4.829,4.829A1.013,1.013,0,0,0,79.442,383l4.829-4.829a1.013,1.013,0,0,0-1.433-1.433Z" transform="translate(-68.18 -325.707)"/>
      <path id="Trazado_114860" data-name="Trazado 114860" d="M385.145,376.733a1.013,1.013,0,1,0-1.433,1.433L388.542,383a1.013,1.013,0,1,0,1.433-1.433Z" transform="translate(-332.685 -325.706)"/>
      <path id="Trazado_114861" data-name="Trazado 114861" d="M447.151,241.5h-6.83a1.013,1.013,0,0,0,0,2.026h6.83a1.013,1.013,0,0,0,0-2.026Z" transform="translate(-381.045 -208.957)"/>
      <path id="Trazado_114862" data-name="Trazado 114862" d="M388.542,71.032l-4.829,4.83a1.013,1.013,0,1,0,1.433,1.433l4.829-4.83a1.013,1.013,0,1,0-1.433-1.433Z" transform="translate(-332.685 -61.203)"/>
      <path id="Trazado_114863" data-name="Trazado 114863" d="M147.526,103.491a20.181,20.181,0,0,0-20.013-20.3,19.738,19.738,0,0,0-10.85,3.239,20.257,20.257,0,0,0-7.25,8.388,1.013,1.013,0,0,0,1.836.857,17.945,17.945,0,0,1,34.25,7.816,18.33,18.33,0,0,1-5.093,12.741c-1.893,1.977-3.5,3.866-3.919,6.512H118.8c-.522-2.748-2.4-4.675-4.081-6.406a18.315,18.315,0,0,1-5.2-12.847,18.715,18.715,0,0,1,.34-3.554,1.013,1.013,0,1,0-1.989-.386,20.74,20.74,0,0,0-.377,3.94,20.33,20.33,0,0,0,5.769,14.26c2.137,2.2,3.649,3.948,3.649,6.517,0,.009,0,.018,0,.027l.058,5.945a5.338,5.338,0,0,0,2.566,4.559v1.114a5.071,5.071,0,0,0,5.065,5.065h6.214a5.071,5.071,0,0,0,5.065-5.065V134.8a5.338,5.338,0,0,0,2.566-4.559s-.007-6.622-.021-6.688c.192-2.348,1.615-4.017,3.437-5.92a20.348,20.348,0,0,0,5.655-14.142Zm-13.664,32.423a3.043,3.043,0,0,1-3.039,3.039h-6.213a3.043,3.043,0,0,1-3.039-3.039v-.39a5.36,5.36,0,0,0,.743.053h10.806a5.381,5.381,0,0,0,.743-.053Zm-.743-2.364H122.312A3.313,3.313,0,0,1,119,130.24v-.068h10.266a1.013,1.013,0,0,0,0-2.026H119V124.77H136.4l.031,3.377H134a1.013,1.013,0,1,0,0,2.026h2.431v.068A3.313,3.313,0,0,1,133.118,133.55Z" transform="translate(-93.953 -71.979)"/>
      <path id="Trazado_114864" data-name="Trazado 114864" d="M192.775,192.632a1.013,1.013,0,1,0,1.6,1.243l2.006-2.583a3.242,3.242,0,0,0-5.121-3.976l-6.543,8.426-3.755-4.155a3.242,3.242,0,0,0-4.81,4.348l6.349,7.024a3.262,3.262,0,0,0,4.965-.186l4.01-5.164a1.013,1.013,0,1,0-1.6-1.243l-4.01,5.164a1.223,1.223,0,0,1-1.862.07l-6.349-7.024a1.216,1.216,0,0,1,1.8-1.63L184.024,198a1.021,1.021,0,0,0,1.552-.058l7.284-9.381a1.216,1.216,0,0,1,1.92,1.491Z" transform="translate(-152.629 -160.987)"/>
    </g>
  </g>
</svg>
