<svg id="Grupo_58344" data-name="Grupo 58344" xmlns="http://www.w3.org/2000/svg" width="58.47" height="70" viewBox="0 0 58.47 70">
  <g id="Grupo_58343" data-name="Grupo 58343" transform="translate(0 0)">
    <g id="Grupo_58342" data-name="Grupo 58342">
      <path id="Trazado_114227" data-name="Trazado 114227" d="M381.058,108.776a.942.942,0,0,0,.35-1.051v-.117a16.522,16.522,0,0,0-6.305-9.925,1.051,1.051,0,0,0-1.168-.117c-4.087,1.4-7.356,1.4-9.925-.117-4.087-2.452-4.787-8.29-4.787-8.29a.991.991,0,0,0-.817-.934,16.527,16.527,0,0,0-12.494,0,1.017,1.017,0,0,0-.7.934s-.7,5.721-4.787,8.29c-2.569,1.635-5.955,1.635-10.042.117a.889.889,0,0,0-1.051.117,16.523,16.523,0,0,0-6.305,9.925v.117a1.63,1.63,0,0,0,.35,1.051,21.537,21.537,0,0,1,0,28.724.942.942,0,0,0-.35,1.051v.117a16.523,16.523,0,0,0,6.305,9.925,1.191,1.191,0,0,0,1.051.234c.7-.234,15.413-5.254,20.784,7.473a1.021,1.021,0,0,0,1.051.7,1,1,0,0,0,1.051-.817c5.488-12.611,20.2-7.706,20.784-7.473a.889.889,0,0,0,1.051-.117,16.523,16.523,0,0,0,6.305-9.925v-.117a1.63,1.63,0,0,0-.35-1.051C373.818,130.261,373.818,116.016,381.058,108.776Zm-6.889,37.481c-3.036-.817-15.763-3.736-21.952,6.889-3.737-6.305-9.808-7.823-14.712-7.823a26.445,26.445,0,0,0-7.239,1.051,14.484,14.484,0,0,1-4.787-7.706,22.681,22.681,0,0,0,5.721-15.53,23.2,23.2,0,0,0-5.721-15.646,14.484,14.484,0,0,1,4.787-7.706c4.554,1.518,8.407,1.4,11.443-.467,4.087-2.569,5.371-7.473,5.722-9.341a14.933,14.933,0,0,1,9.575,0c.35,1.868,1.635,6.772,5.721,9.341,3.036,1.868,6.889,1.985,11.443.467a13.817,13.817,0,0,1,4.787,7.706c-7.59,8.173-7.59,22.886,0,31.059A13.817,13.817,0,0,1,374.169,146.258Z" transform="translate(-322.982 -87)" fill="#bf3976"/>
      <path id="Trazado_114228" data-name="Trazado 114228" d="M517.119,507.694c-.48.48-1.08.84-1.561,1.321A15.206,15.206,0,0,0,514,507.694a1.27,1.27,0,0,0-1.681.24,1.291,1.291,0,0,0,.24,1.681,10.14,10.14,0,0,1,2.161,1.8,1.16,1.16,0,0,0,1.681,0l2.161-1.8a1.2,1.2,0,0,0-1.441-1.921Z" transform="translate(-486.323 -450.299)" fill="#bf3976"/>
      <path id="Trazado_114229" data-name="Trazado 114229" d="M445.744,481.893a17.944,17.944,0,0,0-5.162-1.08,1.306,1.306,0,0,0-1.321,1.08,1.211,1.211,0,0,0,1.08,1.321,19.041,19.041,0,0,1,4.682.96h.36a1.216,1.216,0,0,0,1.08-.72A1.2,1.2,0,0,0,445.744,481.893Z" transform="translate(-423.399 -427.001)" fill="#bf3976"/>
      <path id="Trazado_114230" data-name="Trazado 114230" d="M367.956,449.306c-.84.12-1.681.24-2.4.36a6.614,6.614,0,0,1-1.08-1.681c.48-.6.96-1.321,1.441-2.041a1.236,1.236,0,0,0-2.161-1.2,16.5,16.5,0,0,1-1.561,2.4,1.42,1.42,0,0,0-.12,1.2,10.565,10.565,0,0,0,2.161,3.481.934.934,0,0,0,.84.36h.24a24.016,24.016,0,0,1,2.881-.48,1.192,1.192,0,0,0,1.08-1.321A1.134,1.134,0,0,0,367.956,449.306Z" transform="translate(-356.507 -395.451)" fill="#bf3976"/>
      <path id="Trazado_114231" data-name="Trazado 114231" d="M393.4,284.082a1.179,1.179,0,0,0-2.281.6,32.466,32.466,0,0,1,.96,4.922,1.276,1.276,0,0,0,1.2,1.08.118.118,0,0,1,.12.12,1.192,1.192,0,0,0,1.08-1.321A42.979,42.979,0,0,0,393.4,284.082Z" transform="translate(-381.745 -256.415)" fill="#bf3976"/>
      <path id="Trazado_114232" data-name="Trazado 114232" d="M392.856,365.519a1.211,1.211,0,0,0-1.321,1.08,22.079,22.079,0,0,1-.96,5.042,1.3,1.3,0,0,0,.84,1.441h.36a.97.97,0,0,0,1.08-.84,39.121,39.121,0,0,0,1.08-5.4A1.306,1.306,0,0,0,392.856,365.519Z" transform="translate(-381.321 -327.521)" fill="#bf3976"/>
      <path id="Trazado_114233" data-name="Trazado 114233" d="M364.745,207.621a11.89,11.89,0,0,0-1.321-2.041,6.806,6.806,0,0,1,.96-1.561c.84.12,1.681.24,2.4.36a1.2,1.2,0,1,0,.12-2.4,26.8,26.8,0,0,1-2.761-.48,1.087,1.087,0,0,0-1.2.36,12,12,0,0,0-2.041,3.361,1.1,1.1,0,0,0,.12,1.2,16.475,16.475,0,0,1,1.561,2.4,1.433,1.433,0,0,0,1.08.6.9.9,0,0,0,.6-.12A1.215,1.215,0,0,0,364.745,207.621Z" transform="translate(-355.456 -185.847)" fill="#bf3976"/>
      <path id="Trazado_114234" data-name="Trazado 114234" d="M448.325,181.133a12.557,12.557,0,0,1-4.442,2.521,1.249,1.249,0,0,0-.72,1.561,1.446,1.446,0,0,0,1.2.84h.24a15.771,15.771,0,0,0,5.282-3.121,1.191,1.191,0,1,0-1.561-1.8Z" transform="translate(-426.717 -168.017)" fill="#bf3976"/>
      <path id="Trazado_114235" data-name="Trazado 114235" d="M514.142,122.154a1.163,1.163,0,0,0-.96-.84,12.337,12.337,0,0,0-4.2,0,1.163,1.163,0,0,0-.96.84,17.135,17.135,0,0,1-.96,2.641,1.191,1.191,0,0,0,.6,1.561.722.722,0,0,0,.48.12c.48,0,.84-.24.84-.72a18.478,18.478,0,0,0,.96-2.281,5.83,5.83,0,0,1,2.041,0c.36.84.6,1.561.96,2.281a1.182,1.182,0,0,0,2.161-.96A17.153,17.153,0,0,1,514.142,122.154Z" transform="translate(-481.904 -116.332)" fill="#bf3976"/>
      <path id="Trazado_114236" data-name="Trazado 114236" d="M584.35,186.355a1.153,1.153,0,0,0,1.08-.84,1.2,1.2,0,0,0-.72-1.561,10.961,10.961,0,0,1-4.442-2.521,1.191,1.191,0,0,0-1.561,1.8,14.006,14.006,0,0,0,5.282,3.121Z" transform="translate(-543.524 -168.318)" fill="#bf3976"/>
      <path id="Trazado_114237" data-name="Trazado 114237" d="M661.577,204.379a16.58,16.58,0,0,0,2.4-.36,6.809,6.809,0,0,1,.96,1.561,11.9,11.9,0,0,0-1.321,2.041,1.329,1.329,0,0,0,.48,1.681,1.083,1.083,0,0,0,.6.12,1.224,1.224,0,0,0,.96-.6,16.491,16.491,0,0,1,1.561-2.4,1.42,1.42,0,0,0,.12-1.2,12,12,0,0,0-2.041-3.361,1.152,1.152,0,0,0-1.2-.36,22.139,22.139,0,0,1-2.761.48,1.192,1.192,0,0,0-1.08,1.321A1.134,1.134,0,0,0,661.577,204.379Z" transform="translate(-614.437 -185.847)" fill="#bf3976"/>
      <path id="Trazado_114238" data-name="Trazado 114238" d="M658.889,290.263h.12a1.173,1.173,0,0,0,1.2-1.08,22.077,22.077,0,0,1,.96-5.042,1.235,1.235,0,0,0-.84-1.441,1.3,1.3,0,0,0-1.441.84,39.126,39.126,0,0,0-1.08,5.4A1.406,1.406,0,0,0,658.889,290.263Z" transform="translate(-612.07 -255.99)" fill="#bf3976"/>
      <path id="Trazado_114239" data-name="Trazado 114239" d="M659.977,373.064h.24a1.066,1.066,0,0,0,.84-1.441,37.29,37.29,0,0,1-.96-5.042,1.134,1.134,0,0,0-1.321-1.08,1.192,1.192,0,0,0-1.08,1.321,43.032,43.032,0,0,0,1.08,5.4A1.446,1.446,0,0,0,659.977,373.064Z" transform="translate(-611.958 -327.503)" fill="#bf3976"/>
      <path id="Trazado_114240" data-name="Trazado 114240" d="M663,445.621a11.892,11.892,0,0,0,1.321,2.041c-.36.6-.72,1.2-1.08,1.681-.84-.12-1.561-.24-2.4-.36a1.306,1.306,0,0,0-1.321,1.08,1.407,1.407,0,0,0,1.08,1.321,24.043,24.043,0,0,1,2.881.48h.24a1.363,1.363,0,0,0,.96-.36,10.564,10.564,0,0,0,2.161-3.481,1.1,1.1,0,0,0-.12-1.2,16.477,16.477,0,0,1-1.561-2.4,1.236,1.236,0,0,0-2.161,1.2Z" transform="translate(-613.815 -395.127)" fill="#bf3976"/>
      <path id="Trazado_114241" data-name="Trazado 114241" d="M588.139,479.96a35.769,35.769,0,0,0-5.162,1.08,1.249,1.249,0,0,0-.72,1.561,1.446,1.446,0,0,0,1.2.84.419.419,0,0,0,.24-.12,19.054,19.054,0,0,1,4.682-.96,1.192,1.192,0,0,0,1.08-1.321A1.211,1.211,0,0,0,588.139,479.96Z" transform="translate(-546.852 -426.267)" fill="#bf3976"/>
    </g>
  </g>
</svg>
