<svg xmlns="http://www.w3.org/2000/svg" width="1189.657" height="325.331" viewBox="0 0 1189.657 325.331">
  <g id="Grupo_58774" data-name="Grupo 58774" transform="translate(-204.976 -2752.123)">
    <g id="Grupo_58401" data-name="Grupo 58401" transform="translate(0 -32)">
      <path id="Trazado_114326" data-name="Trazado 114326" d="M738.88,1127.884H521.961a52.1,52.1,0,0,1-.3,9.085,49.11,49.11,0,0,1-3.465,13.385H737.078A93.38,93.38,0,0,0,738.88,1127.884Z" transform="translate(22.538 1828.371)" fill="#d8d8d8" stroke="#afafaf" stroke-miterlimit="10" stroke-width="1" style="isolation: isolate"/>
      <path id="Trazado_114327" data-name="Trazado 114327" d="M738.88,1177.877H521.961a52.1,52.1,0,0,0-.3-9.085,49.123,49.123,0,0,0-3.465-13.385H737.078A93.388,93.388,0,0,1,738.88,1177.877Z" transform="translate(22.538 1823.421)" fill="#d8d8d8" stroke="#afafaf" stroke-miterlimit="10" stroke-width="1" style="isolation: isolate"/>
      <g id="Grupo_58379" data-name="Grupo 58379" transform="translate(235.38 2979.498)">
        <path id="Trazado_114328" data-name="Trazado 114328" d="M145.878,1156.224" transform="translate(-145.878 -1156.224)" fill="none" stroke="#bf3976" stroke-linecap="round" stroke-miterlimit="10" stroke-width="2"/>
      </g>
      <rect id="Rectángulo_5608" data-name="Rectángulo 5608" width="217.972" height="261.631" transform="translate(237.299 2847.323)" fill="#d8d8d8" stroke="#afafaf" stroke-miterlimit="10" stroke-width="1" style="isolation: isolate"/>
      <path id="Trazado_114931" data-name="Trazado 114931" d="M25.011,10.448a3.774,3.774,0,0,1-1.271,2.71,4.463,4.463,0,0,1-3.021.989,4.013,4.013,0,0,1-3.226-1.381,5.661,5.661,0,0,1-1.176-3.79V8.324a6.393,6.393,0,0,1,.542-2.71,4.062,4.062,0,0,1,1.549-1.8,4.339,4.339,0,0,1,2.34-.626,4.348,4.348,0,0,1,2.974.989,4.055,4.055,0,0,1,1.3,2.776h-2.2a2.227,2.227,0,0,0-.575-1.5,2.129,2.129,0,0,0-1.505-.465,1.867,1.867,0,0,0-1.644.787,4.413,4.413,0,0,0-.56,2.443v.806a4.723,4.723,0,0,0,.524,2.527,1.832,1.832,0,0,0,1.652.8,2.169,2.169,0,0,0,1.52-.465,2.1,2.1,0,0,0,.575-1.439Zm.974-.483a4.7,4.7,0,0,1,.454-2.1,3.324,3.324,0,0,1,1.307-1.428,3.814,3.814,0,0,1,1.981-.505,3.609,3.609,0,0,1,2.618.981,3.939,3.939,0,0,1,1.132,2.666l.015.542a4.142,4.142,0,0,1-1.018,2.926,3.539,3.539,0,0,1-2.732,1.1,3.556,3.556,0,0,1-2.736-1.1,4.215,4.215,0,0,1-1.022-2.988Zm2.117.15a2.962,2.962,0,0,0,.425,1.727,1.526,1.526,0,0,0,2.417.007,3.241,3.241,0,0,0,.432-1.889,2.933,2.933,0,0,0-.432-1.716,1.4,1.4,0,0,0-1.216-.609,1.382,1.382,0,0,0-1.2.605A3.3,3.3,0,0,0,28.1,10.115Zm10.986,1.7A.682.682,0,0,0,38.7,11.2a4.368,4.368,0,0,0-1.234-.4q-2.827-.593-2.827-2.4a2.178,2.178,0,0,1,.875-1.761,3.531,3.531,0,0,1,2.289-.707,3.8,3.8,0,0,1,2.413.71,2.239,2.239,0,0,1,.9,1.846H39.008a1.024,1.024,0,0,0-.293-.751,1.24,1.24,0,0,0-.916-.3,1.267,1.267,0,0,0-.828.242.763.763,0,0,0-.293.615.652.652,0,0,0,.333.568,3.428,3.428,0,0,0,1.124.374,9.183,9.183,0,0,1,1.333.355,2.19,2.19,0,0,1,1.677,2.131,2.067,2.067,0,0,1-.93,1.754,4.013,4.013,0,0,1-2.4.67,4.191,4.191,0,0,1-1.769-.355,2.968,2.968,0,0,1-1.212-.974,2.263,2.263,0,0,1-.439-1.337H36.4a1.105,1.105,0,0,0,.417.864,1.656,1.656,0,0,0,1.04.3,1.533,1.533,0,0,0,.919-.231A.718.718,0,0,0,39.088,11.81Zm5.955-7.683V6.075H46.4V7.628H45.043v3.955a.944.944,0,0,0,.168.63.846.846,0,0,0,.645.19,3.376,3.376,0,0,0,.623-.051v1.6a4.358,4.358,0,0,1-1.282.19A2.021,2.021,0,0,1,42.926,11.9V7.628H41.769V6.075h1.157V4.127Zm7.28,9.067a2.654,2.654,0,0,1-2.168.952,2.5,2.5,0,0,1-1.945-.732,3.127,3.127,0,0,1-.685-2.146V6.075h2.117V11.2q0,1.239,1.128,1.239a1.528,1.528,0,0,0,1.479-.748V6.075h2.124V14H52.382Zm8.1-5.134A5.751,5.751,0,0,0,59.662,8a1.55,1.55,0,0,0-1.575.813V14H55.971V6.075h2l.059.945a1.961,1.961,0,0,1,1.765-1.091,2.218,2.218,0,0,1,.659.1ZM65.814,14a2.351,2.351,0,0,1-.212-.71,2.561,2.561,0,0,1-2,.857,2.814,2.814,0,0,1-1.93-.674,2.167,2.167,0,0,1-.765-1.7,2.24,2.24,0,0,1,.934-1.934,4.608,4.608,0,0,1,2.7-.681h.974V8.7a1.306,1.306,0,0,0-.282-.879,1.109,1.109,0,0,0-.89-.33,1.261,1.261,0,0,0-.839.256.871.871,0,0,0-.3.7H61.083a2.126,2.126,0,0,1,.425-1.274,2.808,2.808,0,0,1,1.2-.919,4.378,4.378,0,0,1,1.743-.333,3.459,3.459,0,0,1,2.325.736,2.575,2.575,0,0,1,.861,2.069v3.435a3.789,3.789,0,0,0,.315,1.707V14Zm-1.75-1.472a1.823,1.823,0,0,0,.864-.209,1.371,1.371,0,0,0,.586-.56V10.4h-.791q-1.589,0-1.692,1.1l-.007.125a.847.847,0,0,0,.278.652A1.081,1.081,0,0,0,64.064,12.528Zm12.583,1.619a3.89,3.89,0,0,1-2.838-1.069,3.8,3.8,0,0,1-1.095-2.849v-.205a4.787,4.787,0,0,1,.461-2.135,3.386,3.386,0,0,1,1.307-1.45,3.669,3.669,0,0,1,1.93-.509,3.289,3.289,0,0,1,2.56,1.025,4.167,4.167,0,0,1,.934,2.908v.864H74.86a1.966,1.966,0,0,0,.619,1.245,1.871,1.871,0,0,0,1.307.469,2.285,2.285,0,0,0,1.912-.886l1.04,1.165a3.178,3.178,0,0,1-1.289,1.051A4.229,4.229,0,0,1,76.647,14.146Zm-.242-6.511a1.323,1.323,0,0,0-1.022.427,2.209,2.209,0,0,0-.5,1.221h2.944V9.114a1.576,1.576,0,0,0-.381-1.092A1.365,1.365,0,0,0,76.405,7.635Zm6.65-1.56.066.916A2.767,2.767,0,0,1,85.4,5.929a2.3,2.3,0,0,1,1.875.74A3.451,3.451,0,0,1,87.9,8.88V14H85.788V8.92a1.379,1.379,0,0,0-.293-.98,1.31,1.31,0,0,0-.974-.3,1.456,1.456,0,0,0-1.34.763V14H81.063V6.075Zm13.835,8.071a3.89,3.89,0,0,1-2.838-1.069,3.8,3.8,0,0,1-1.095-2.849v-.205a4.787,4.787,0,0,1,.461-2.135,3.386,3.386,0,0,1,1.307-1.45,3.669,3.669,0,0,1,1.93-.509,3.289,3.289,0,0,1,2.56,1.025,4.167,4.167,0,0,1,.934,2.908v.864H95.1a1.966,1.966,0,0,0,.619,1.245,1.871,1.871,0,0,0,1.307.469,2.285,2.285,0,0,0,1.912-.886l1.04,1.165a3.178,3.178,0,0,1-1.289,1.051A4.229,4.229,0,0,1,96.891,14.146Zm-.242-6.511a1.323,1.323,0,0,0-1.022.427,2.209,2.209,0,0,0-.5,1.221H98.07V9.114a1.576,1.576,0,0,0-.381-1.092A1.365,1.365,0,0,0,96.649,7.635ZM103.585,14h-2.124V2.75h2.124Zm12.62-3.889a4.8,4.8,0,0,1-.813,2.97,2.693,2.693,0,0,1-2.271,1.066,2.474,2.474,0,0,1-2.058-.989l-.1.842h-1.9V2.75h2.117V6.786a2.411,2.411,0,0,1,1.926-.857,2.715,2.715,0,0,1,2.274,1.066,4.806,4.806,0,0,1,.824,3Zm-2.117-.161a3.17,3.17,0,0,0-.381-1.76,1.287,1.287,0,0,0-1.135-.555,1.4,1.4,0,0,0-1.392.83V11.6a1.415,1.415,0,0,0,1.406.837,1.307,1.307,0,0,0,1.348-1.014A5.245,5.245,0,0,0,114.088,9.949Zm3.091.015a4.7,4.7,0,0,1,.454-2.1,3.324,3.324,0,0,1,1.307-1.428,3.814,3.814,0,0,1,1.981-.505,3.609,3.609,0,0,1,2.618.981,3.939,3.939,0,0,1,1.132,2.666l.015.542a4.142,4.142,0,0,1-1.018,2.926,3.946,3.946,0,0,1-5.468,0,4.215,4.215,0,0,1-1.022-2.988Zm2.117.15a2.962,2.962,0,0,0,.425,1.727,1.526,1.526,0,0,0,2.417.007,3.241,3.241,0,0,0,.432-1.889,2.933,2.933,0,0,0-.432-1.716,1.4,1.4,0,0,0-1.216-.609,1.382,1.382,0,0,0-1.2.605A3.3,3.3,0,0,0,119.3,10.115ZM130.443,8.06A5.751,5.751,0,0,0,129.682,8a1.55,1.55,0,0,0-1.575.813V14H125.99V6.075h2l.059.945a1.961,1.961,0,0,1,1.765-1.091,2.218,2.218,0,0,1,.659.1Zm.549,1.919a4.776,4.776,0,0,1,.831-2.952,2.7,2.7,0,0,1,2.274-1.1,2.427,2.427,0,0,1,1.912.864V2.75h2.124V14h-1.912l-.1-.842a2.491,2.491,0,0,1-2.036.989,2.69,2.69,0,0,1-2.245-1.1A4.93,4.93,0,0,1,130.993,9.979Zm2.117.151a3.146,3.146,0,0,0,.388,1.714,1.263,1.263,0,0,0,1.128.6,1.416,1.416,0,0,0,1.384-.831V8.467a1.4,1.4,0,0,0-1.37-.831Q133.109,7.635,133.109,10.13Zm10.313,4.017a3.89,3.89,0,0,1-2.838-1.069,3.8,3.8,0,0,1-1.095-2.849v-.205a4.787,4.787,0,0,1,.461-2.135,3.386,3.386,0,0,1,1.307-1.45,3.669,3.669,0,0,1,1.93-.509,3.289,3.289,0,0,1,2.56,1.025,4.167,4.167,0,0,1,.934,2.908v.864h-5.046a1.966,1.966,0,0,0,.619,1.245,1.871,1.871,0,0,0,1.307.469,2.285,2.285,0,0,0,1.912-.886l1.04,1.165a3.178,3.178,0,0,1-1.289,1.051A4.229,4.229,0,0,1,143.422,14.146Zm-.242-6.511a1.323,1.323,0,0,0-1.022.427,2.209,2.209,0,0,0-.5,1.221H144.6V9.114a1.576,1.576,0,0,0-.381-1.092A1.365,1.365,0,0,0,143.18,7.635ZM156.21,14a2.351,2.351,0,0,1-.212-.71,2.561,2.561,0,0,1-2,.857,2.814,2.814,0,0,1-1.93-.674,2.167,2.167,0,0,1-.765-1.7,2.24,2.24,0,0,1,.934-1.934,4.608,4.608,0,0,1,2.7-.681h.974V8.7a1.306,1.306,0,0,0-.282-.879,1.109,1.109,0,0,0-.89-.33,1.261,1.261,0,0,0-.839.256.871.871,0,0,0-.3.7h-2.117a2.126,2.126,0,0,1,.425-1.274,2.808,2.808,0,0,1,1.2-.919,4.378,4.378,0,0,1,1.743-.333,3.459,3.459,0,0,1,2.325.736,2.575,2.575,0,0,1,.861,2.069v3.435a3.789,3.789,0,0,0,.315,1.707V14Zm-1.75-1.472a1.823,1.823,0,0,0,.864-.209,1.371,1.371,0,0,0,.586-.56V10.4h-.791q-1.589,0-1.692,1.1l-.007.125a.847.847,0,0,0,.278.652A1.081,1.081,0,0,0,154.459,12.528ZM166.8,10.111a4.8,4.8,0,0,1-.813,2.97,2.693,2.693,0,0,1-2.271,1.066,2.474,2.474,0,0,1-2.058-.989l-.1.842h-1.9V2.75h2.117V6.786a2.411,2.411,0,0,1,1.926-.857,2.715,2.715,0,0,1,2.274,1.066,4.806,4.806,0,0,1,.824,3Zm-2.117-.161a3.17,3.17,0,0,0-.381-1.76,1.287,1.287,0,0,0-1.135-.555,1.4,1.4,0,0,0-1.392.83V11.6a1.415,1.415,0,0,0,1.406.837,1.307,1.307,0,0,0,1.348-1.014A5.245,5.245,0,0,0,164.684,9.949ZM170.338,14h-2.124V6.075h2.124ZM168.09,4.024a1.042,1.042,0,0,1,.319-.784,1.373,1.373,0,0,1,1.732,0,1.036,1.036,0,0,1,.322.784,1.039,1.039,0,0,1-.326.791,1.358,1.358,0,0,1-1.721,0A1.039,1.039,0,0,1,168.09,4.024Zm7.639,10.122a3.89,3.89,0,0,1-2.838-1.069,3.8,3.8,0,0,1-1.095-2.849v-.205a4.787,4.787,0,0,1,.461-2.135,3.386,3.386,0,0,1,1.307-1.45,3.669,3.669,0,0,1,1.93-.509,3.289,3.289,0,0,1,2.56,1.025,4.167,4.167,0,0,1,.934,2.908v.864h-5.046a1.966,1.966,0,0,0,.619,1.245,1.871,1.871,0,0,0,1.307.469,2.285,2.285,0,0,0,1.912-.886l1.04,1.165a3.178,3.178,0,0,1-1.289,1.051A4.229,4.229,0,0,1,175.729,14.146Zm-.242-6.511a1.323,1.323,0,0,0-1.022.427,2.209,2.209,0,0,0-.5,1.221h2.944V9.114a1.576,1.576,0,0,0-.381-1.092A1.365,1.365,0,0,0,175.487,7.635Zm9.155.425A5.751,5.751,0,0,0,183.881,8a1.55,1.55,0,0,0-1.575.813V14h-2.117V6.075h2l.059.945a1.961,1.961,0,0,1,1.765-1.091,2.218,2.218,0,0,1,.659.1Zm3.918-3.933V6.075h1.355V7.628h-1.355v3.955a.944.944,0,0,0,.168.63.846.846,0,0,0,.645.19,3.376,3.376,0,0,0,.623-.051v1.6a4.358,4.358,0,0,1-1.282.19,2.021,2.021,0,0,1-2.271-2.249V7.628h-1.157V6.075h1.157V4.127ZM195.687,14a2.351,2.351,0,0,1-.212-.71,2.561,2.561,0,0,1-2,.857,2.814,2.814,0,0,1-1.93-.674,2.167,2.167,0,0,1-.765-1.7,2.24,2.24,0,0,1,.934-1.934,4.608,4.608,0,0,1,2.7-.681h.974V8.7a1.306,1.306,0,0,0-.282-.879,1.109,1.109,0,0,0-.89-.33,1.261,1.261,0,0,0-.839.256.871.871,0,0,0-.3.7h-2.117a2.126,2.126,0,0,1,.425-1.274,2.808,2.808,0,0,1,1.2-.919,4.378,4.378,0,0,1,1.743-.333,3.459,3.459,0,0,1,2.325.736,2.575,2.575,0,0,1,.861,2.069v3.435a3.789,3.789,0,0,0,.315,1.707V14Zm-1.75-1.472a1.823,1.823,0,0,0,.864-.209,1.371,1.371,0,0,0,.586-.56V10.4H194.6q-1.589,0-1.692,1.1l-.007.125a.847.847,0,0,0,.278.652A1.081,1.081,0,0,0,193.937,12.528Z" transform="translate(238.729 3081.763)"/>
      <path id="Trazado_114329" data-name="Trazado 114329" d="M368.725,1127.884H151.805a51.941,51.941,0,0,1-.3,9.085,49.079,49.079,0,0,1-3.464,13.385H366.923A93.421,93.421,0,0,0,368.725,1127.884Z" transform="translate(89.112 1828.371)" fill="#f2faff" stroke="#afafaf" stroke-miterlimit="10" stroke-width="1"/>
      <path id="Trazado_114330" data-name="Trazado 114330" d="M368.725,1177.877H151.805a51.94,51.94,0,0,0-.3-9.085,49.092,49.092,0,0,0-3.464-13.385H366.923A93.429,93.429,0,0,1,368.725,1177.877Z" transform="translate(89.112 1823.421)" fill="#f2faff" stroke="#afafaf" stroke-miterlimit="10" stroke-width="1"/>
      <g id="Grupo_58382" data-name="Grupo 58382" transform="translate(206 2965.85)">
        <g id="Grupo_58380" data-name="Grupo 58380">
          <path id="Trazado_114331" data-name="Trazado 114331" d="M110.055,1150.97s5.192.127,7.231-.45c1.59-.45,3.6-2.55.72-3.48-4.463-1.442-1.921-4.081,1.08-3.691,2.917.379,15.992,2.76,22.262,2.7" transform="translate(-110.055 -1140.253)" fill="none" stroke="#bf3976" stroke-linecap="round" stroke-miterlimit="10" stroke-width="2"/>
          <path id="Trazado_114332" data-name="Trazado 114332" d="M129.354,1139.589s9.66-.36,2.684,4.554c-5.363,3.778-2.684,7.387,2.566,4.357,1.267-.732,2.94-1.949,9.871-3.12" transform="translate(-113.482 -1139.583)" fill="none" stroke="#bf3976" stroke-linecap="round" stroke-miterlimit="10" stroke-width="2"/>
        </g>
        <g id="Grupo_58381" data-name="Grupo 58381" transform="translate(251.763 1.16)">
          <path id="Trazado_114333" data-name="Trazado 114333" d="M448.323,1141.009s-5.192-.127-7.231.45c-1.59.45-3.6,2.55-.72,3.481,4.463,1.441,1.92,4.08-1.08,3.69-2.917-.379-15.992-2.76-22.263-2.7" transform="translate(-417.029 -1140.997)" fill="none" stroke="#bf3976" stroke-linecap="round" stroke-miterlimit="10" stroke-width="2"/>
          <path id="Trazado_114334" data-name="Trazado 114334" d="M432.517,1151.87s-9.661.36-2.684-4.554c5.363-3.778,2.684-7.387-2.566-4.357-1.267.731-2.941,1.949-9.871,3.12" transform="translate(-417.095 -1141.147)" fill="none" stroke="#bf3976" stroke-linecap="round" stroke-miterlimit="10" stroke-width="2"/>
        </g>
        <line id="Línea_374" data-name="Línea 374" x2="215.784" transform="translate(33.791 6.027)" fill="none" stroke="#bf3976" stroke-linecap="round" stroke-miterlimit="10" stroke-width="2" stroke-dasharray="4 5"/>
      </g>
      <g id="Grupo_58385" data-name="Grupo 58385" transform="translate(206 2978.725)">
        <g id="Grupo_58383" data-name="Grupo 58383">
          <path id="Trazado_114335" data-name="Trazado 114335" d="M110.055,1166.669s5.192.127,7.231-.45c1.59-.45,3.6-2.55.72-3.481-4.463-1.441-1.921-4.08,1.08-3.69,2.917.379,15.992,2.76,22.262,2.7" transform="translate(-110.055 -1155.952)" fill="none" stroke="#bf3976" stroke-linecap="round" stroke-miterlimit="10" stroke-width="2"/>
          <path id="Trazado_114336" data-name="Trazado 114336" d="M129.354,1155.288s9.66-.36,2.684,4.554c-5.363,3.778-2.684,7.387,2.566,4.356,1.267-.732,2.94-1.949,9.871-3.12" transform="translate(-113.482 -1155.282)" fill="none" stroke="#bf3976" stroke-linecap="round" stroke-miterlimit="10" stroke-width="2"/>
        </g>
        <g id="Grupo_58384" data-name="Grupo 58384" transform="translate(251.763 1.16)">
          <path id="Trazado_114337" data-name="Trazado 114337" d="M448.323,1156.708s-5.192-.127-7.231.45c-1.59.45-3.6,2.55-.72,3.481,4.463,1.441,1.92,4.08-1.08,3.69-2.917-.379-15.992-2.76-22.263-2.7" transform="translate(-417.029 -1156.697)" fill="none" stroke="#bf3976" stroke-linecap="round" stroke-miterlimit="10" stroke-width="2"/>
          <path id="Trazado_114338" data-name="Trazado 114338" d="M432.517,1167.569s-9.661.36-2.684-4.554c5.363-3.778,2.684-7.387-2.566-4.357-1.267.731-2.941,1.949-9.871,3.12" transform="translate(-417.095 -1156.846)" fill="none" stroke="#bf3976" stroke-linecap="round" stroke-miterlimit="10" stroke-width="2"/>
        </g>
        <line id="Línea_375" data-name="Línea 375" x2="215.784" transform="translate(33.791 6.027)" fill="none" stroke="#bf3976" stroke-linecap="round" stroke-miterlimit="10" stroke-width="2" stroke-dasharray="4 5"/>
      </g>
      <g id="Grupo_58386" data-name="Grupo 58386" transform="translate(536.501 2979.498)">
        <path id="Trazado_114339" data-name="Trazado 114339" d="M513.034,1156.224" transform="translate(-513.034 -1156.224)" fill="none" stroke="#bf3976" stroke-linecap="round" stroke-miterlimit="10" stroke-width="2"/>
      </g>
      <path id="Trazado_114399" data-name="Trazado 114399" d="M0,0H217.972V261.631H0Z" transform="translate(538.419 2847.323)" fill="#f2faff" stroke="#afafaf" stroke-width="1"/>
      <path id="Trazado_114930" data-name="Trazado 114930" d="M30.537,10.448a3.774,3.774,0,0,1-1.271,2.71,4.463,4.463,0,0,1-3.021.989,4.013,4.013,0,0,1-3.226-1.381,5.661,5.661,0,0,1-1.176-3.79V8.324a6.393,6.393,0,0,1,.542-2.71,4.062,4.062,0,0,1,1.549-1.8,4.339,4.339,0,0,1,2.34-.626,4.348,4.348,0,0,1,2.974.989,4.055,4.055,0,0,1,1.3,2.776h-2.2a2.227,2.227,0,0,0-.575-1.5,2.129,2.129,0,0,0-1.505-.465,1.867,1.867,0,0,0-1.644.787,4.413,4.413,0,0,0-.56,2.443v.806a4.723,4.723,0,0,0,.524,2.527,1.832,1.832,0,0,0,1.652.8,2.169,2.169,0,0,0,1.52-.465,2.1,2.1,0,0,0,.575-1.439Zm.974-.483a4.7,4.7,0,0,1,.454-2.1,3.324,3.324,0,0,1,1.307-1.428,3.814,3.814,0,0,1,1.981-.505,3.609,3.609,0,0,1,2.618.981A3.939,3.939,0,0,1,39,9.576l.015.542A4.142,4.142,0,0,1,38,13.044a3.946,3.946,0,0,1-5.468,0,4.215,4.215,0,0,1-1.022-2.988Zm2.117.15a2.962,2.962,0,0,0,.425,1.727,1.526,1.526,0,0,0,2.417.007A3.241,3.241,0,0,0,36.9,9.961a2.933,2.933,0,0,0-.432-1.716,1.4,1.4,0,0,0-1.216-.609,1.382,1.382,0,0,0-1.2.605A3.3,3.3,0,0,0,33.628,10.115Zm10.986,1.7a.682.682,0,0,0-.385-.612A4.368,4.368,0,0,0,43,10.8q-2.827-.593-2.827-2.4a2.178,2.178,0,0,1,.875-1.761,3.531,3.531,0,0,1,2.289-.707,3.8,3.8,0,0,1,2.413.71,2.239,2.239,0,0,1,.9,1.846H44.534a1.024,1.024,0,0,0-.293-.751,1.24,1.24,0,0,0-.916-.3,1.267,1.267,0,0,0-.828.242.763.763,0,0,0-.293.615.652.652,0,0,0,.333.568,3.428,3.428,0,0,0,1.124.374A9.183,9.183,0,0,1,45,9.591a2.19,2.19,0,0,1,1.677,2.131,2.067,2.067,0,0,1-.93,1.754,4.013,4.013,0,0,1-2.4.67,4.191,4.191,0,0,1-1.769-.355,2.968,2.968,0,0,1-1.212-.974,2.263,2.263,0,0,1-.439-1.337h2.007a1.105,1.105,0,0,0,.417.864,1.656,1.656,0,0,0,1.04.3,1.533,1.533,0,0,0,.919-.231A.718.718,0,0,0,44.614,11.81Zm5.955-7.683V6.075h1.355V7.628H50.569v3.955a.944.944,0,0,0,.168.63.846.846,0,0,0,.645.19A3.376,3.376,0,0,0,52,12.352v1.6a4.358,4.358,0,0,1-1.282.19A2.021,2.021,0,0,1,48.452,11.9V7.628H47.3V6.075h1.157V4.127Zm7.28,9.067a2.654,2.654,0,0,1-2.168.952,2.5,2.5,0,0,1-1.945-.732,3.127,3.127,0,0,1-.685-2.146V6.075h2.117V11.2q0,1.239,1.128,1.239a1.528,1.528,0,0,0,1.479-.748V6.075H59.9V14H57.908Zm8.1-5.134A5.751,5.751,0,0,0,65.188,8a1.55,1.55,0,0,0-1.575.813V14H61.5V6.075h2l.059.945A1.961,1.961,0,0,1,65.32,5.929a2.218,2.218,0,0,1,.659.1ZM71.341,14a2.351,2.351,0,0,1-.212-.71,2.561,2.561,0,0,1-2,.857,2.814,2.814,0,0,1-1.93-.674,2.167,2.167,0,0,1-.765-1.7,2.24,2.24,0,0,1,.934-1.934,4.608,4.608,0,0,1,2.7-.681h.974V8.7a1.306,1.306,0,0,0-.282-.879,1.109,1.109,0,0,0-.89-.33,1.261,1.261,0,0,0-.839.256.871.871,0,0,0-.3.7H66.609a2.126,2.126,0,0,1,.425-1.274,2.808,2.808,0,0,1,1.2-.919,4.378,4.378,0,0,1,1.743-.333,3.459,3.459,0,0,1,2.325.736,2.575,2.575,0,0,1,.861,2.069v3.435a3.789,3.789,0,0,0,.315,1.707V14Zm-1.75-1.472a1.823,1.823,0,0,0,.864-.209,1.371,1.371,0,0,0,.586-.56V10.4h-.791q-1.589,0-1.692,1.1l-.007.125a.847.847,0,0,0,.278.652A1.081,1.081,0,0,0,69.59,12.528Zm11.9-1.113,1.472-5.339h2.212L82.5,14H80.481L77.808,6.075H80.02ZM88.34,14H86.216V6.075H88.34ZM86.092,4.024a1.042,1.042,0,0,1,.319-.784,1.373,1.373,0,0,1,1.732,0,1.036,1.036,0,0,1,.322.784,1.039,1.039,0,0,1-.326.791,1.358,1.358,0,0,1-1.721,0A1.039,1.039,0,0,1,86.092,4.024Zm8.284,7.786a.682.682,0,0,0-.385-.612,4.368,4.368,0,0,0-1.234-.4q-2.827-.593-2.827-2.4A2.178,2.178,0,0,1,90.8,6.635a3.531,3.531,0,0,1,2.289-.707,3.8,3.8,0,0,1,2.413.71,2.239,2.239,0,0,1,.9,1.846H94.295A1.024,1.024,0,0,0,94,7.734a1.24,1.24,0,0,0-.916-.3,1.267,1.267,0,0,0-.828.242.763.763,0,0,0-.293.615.652.652,0,0,0,.333.568,3.428,3.428,0,0,0,1.124.374,9.183,9.183,0,0,1,1.333.355,2.19,2.19,0,0,1,1.677,2.131,2.067,2.067,0,0,1-.93,1.754,4.013,4.013,0,0,1-2.4.67,4.191,4.191,0,0,1-1.769-.355,2.968,2.968,0,0,1-1.212-.974,2.263,2.263,0,0,1-.439-1.337h2.007a1.105,1.105,0,0,0,.417.864,1.656,1.656,0,0,0,1.04.3,1.533,1.533,0,0,0,.919-.231A.718.718,0,0,0,94.375,11.81Zm5.955-7.683V6.075h1.355V7.628H100.33v3.955a.944.944,0,0,0,.168.63.846.846,0,0,0,.645.19,3.376,3.376,0,0,0,.623-.051v1.6a4.358,4.358,0,0,1-1.282.19A2.021,2.021,0,0,1,98.213,11.9V7.628H97.056V6.075h1.157V4.127ZM107.456,14a2.351,2.351,0,0,1-.212-.71,2.561,2.561,0,0,1-2,.857,2.814,2.814,0,0,1-1.93-.674,2.167,2.167,0,0,1-.765-1.7,2.24,2.24,0,0,1,.934-1.934,4.608,4.608,0,0,1,2.7-.681h.974V8.7a1.306,1.306,0,0,0-.282-.879,1.109,1.109,0,0,0-.89-.33,1.261,1.261,0,0,0-.839.256.871.871,0,0,0-.3.7h-2.117a2.126,2.126,0,0,1,.425-1.274,2.808,2.808,0,0,1,1.2-.919,4.378,4.378,0,0,1,1.743-.333,3.459,3.459,0,0,1,2.325.736,2.575,2.575,0,0,1,.861,2.069v3.435a3.789,3.789,0,0,0,.315,1.707V14Zm-1.75-1.472a1.823,1.823,0,0,0,.864-.209,1.371,1.371,0,0,0,.586-.56V10.4h-.791q-1.589,0-1.692,1.1l-.007.125a.847.847,0,0,0,.278.652A1.081,1.081,0,0,0,105.706,12.528Zm8.606-2.549a4.776,4.776,0,0,1,.831-2.952,2.7,2.7,0,0,1,2.274-1.1,2.427,2.427,0,0,1,1.912.864V2.75h2.124V14h-1.912l-.1-.842a2.491,2.491,0,0,1-2.036.989,2.69,2.69,0,0,1-2.245-1.1A4.93,4.93,0,0,1,114.312,9.979Zm2.117.151a3.146,3.146,0,0,0,.388,1.714,1.263,1.263,0,0,0,1.128.6,1.416,1.416,0,0,0,1.384-.831V8.467a1.4,1.4,0,0,0-1.37-.831Q116.428,7.635,116.428,10.13Zm10.313,4.017a3.89,3.89,0,0,1-2.838-1.069,3.8,3.8,0,0,1-1.095-2.849v-.205a4.787,4.787,0,0,1,.461-2.135,3.386,3.386,0,0,1,1.307-1.45,3.669,3.669,0,0,1,1.93-.509,3.289,3.289,0,0,1,2.56,1.025A4.167,4.167,0,0,1,130,9.862v.864h-5.046a1.966,1.966,0,0,0,.619,1.245,1.871,1.871,0,0,0,1.307.469,2.285,2.285,0,0,0,1.912-.886l1.04,1.165a3.178,3.178,0,0,1-1.289,1.051A4.229,4.229,0,0,1,126.741,14.146ZM126.5,7.635a1.323,1.323,0,0,0-1.022.427,2.209,2.209,0,0,0-.5,1.221h2.944V9.114a1.576,1.576,0,0,0-.381-1.092A1.365,1.365,0,0,0,126.5,7.635ZM133.435,14h-2.124V2.75h2.124Zm5.149-4.021a4.776,4.776,0,0,1,.831-2.952,2.7,2.7,0,0,1,2.274-1.1,2.427,2.427,0,0,1,1.912.864V2.75h2.124V14h-1.912l-.1-.842a2.491,2.491,0,0,1-2.036.989,2.69,2.69,0,0,1-2.245-1.1A4.93,4.93,0,0,1,138.584,9.979Zm2.117.151a3.146,3.146,0,0,0,.388,1.714,1.263,1.263,0,0,0,1.128.6,1.416,1.416,0,0,0,1.384-.831V8.467a1.4,1.4,0,0,0-1.37-.831Q140.7,7.635,140.7,10.13Zm10.313,4.017a3.89,3.89,0,0,1-2.838-1.069,3.8,3.8,0,0,1-1.095-2.849v-.205a4.787,4.787,0,0,1,.461-2.135,3.386,3.386,0,0,1,1.307-1.45,3.669,3.669,0,0,1,1.93-.509,3.289,3.289,0,0,1,2.56,1.025,4.167,4.167,0,0,1,.934,2.908v.864h-5.046a1.966,1.966,0,0,0,.619,1.245,1.871,1.871,0,0,0,1.307.469,2.285,2.285,0,0,0,1.912-.886l1.04,1.165a3.178,3.178,0,0,1-1.289,1.051A4.229,4.229,0,0,1,151.013,14.146Zm-.242-6.511a1.323,1.323,0,0,0-1.022.427,2.209,2.209,0,0,0-.5,1.221h2.944V9.114a1.576,1.576,0,0,0-.381-1.092A1.365,1.365,0,0,0,150.772,7.635Zm9.155.425A5.751,5.751,0,0,0,159.165,8a1.55,1.55,0,0,0-1.575.813V14h-2.117V6.075h2l.059.945A1.961,1.961,0,0,1,159.3,5.929a2.218,2.218,0,0,1,.659.1Zm4.526,6.086a3.89,3.89,0,0,1-2.838-1.069,3.8,3.8,0,0,1-1.095-2.849v-.205a4.787,4.787,0,0,1,.461-2.135,3.386,3.386,0,0,1,1.307-1.45,3.669,3.669,0,0,1,1.93-.509,3.289,3.289,0,0,1,2.56,1.025,4.167,4.167,0,0,1,.934,2.908v.864h-5.046a1.966,1.966,0,0,0,.619,1.245,1.871,1.871,0,0,0,1.307.469,2.285,2.285,0,0,0,1.912-.886l1.04,1.165a3.178,3.178,0,0,1-1.289,1.051A4.229,4.229,0,0,1,164.453,14.146Zm-.242-6.511a1.323,1.323,0,0,0-1.022.427,2.209,2.209,0,0,0-.5,1.221h2.944V9.114a1.576,1.576,0,0,0-.381-1.092A1.365,1.365,0,0,0,164.212,7.635Zm8,4.8a1.388,1.388,0,0,0,.952-.322,1.129,1.129,0,0,0,.381-.857h1.985a2.715,2.715,0,0,1-.439,1.476,2.9,2.9,0,0,1-1.183,1.04,3.7,3.7,0,0,1-1.659.37,3.44,3.44,0,0,1-2.681-1.08,4.275,4.275,0,0,1-.981-2.985V9.942a4.226,4.226,0,0,1,.974-2.922,3.4,3.4,0,0,1,2.673-1.091,3.333,3.333,0,0,1,2.384.846,3,3,0,0,1,.912,2.252h-1.985a1.455,1.455,0,0,0-.381-1.005,1.416,1.416,0,0,0-2.084.153,3.125,3.125,0,0,0-.377,1.749v.22a3.164,3.164,0,0,0,.374,1.761A1.291,1.291,0,0,0,172.21,12.44Zm6.592-5.5a2.642,2.642,0,0,1,2.117-1.011q2.578,0,2.615,3V14h-2.117V8.971a1.478,1.478,0,0,0-.293-1.009,1.254,1.254,0,0,0-.974-.327,1.44,1.44,0,0,0-1.348.719V14h-2.117V2.75H178.8Zm6,3.025a4.7,4.7,0,0,1,.454-2.1,3.324,3.324,0,0,1,1.307-1.428,3.814,3.814,0,0,1,1.981-.505,3.609,3.609,0,0,1,2.618.981,3.939,3.939,0,0,1,1.132,2.666l.015.542a4.142,4.142,0,0,1-1.018,2.926,3.946,3.946,0,0,1-5.468,0A4.215,4.215,0,0,1,184.8,10.06Zm2.117.15a2.962,2.962,0,0,0,.425,1.727,1.526,1.526,0,0,0,2.417.007,3.241,3.241,0,0,0,.432-1.889,2.933,2.933,0,0,0-.432-1.716,1.4,1.4,0,0,0-1.216-.609,1.382,1.382,0,0,0-1.2.605A3.3,3.3,0,0,0,186.917,10.115Z" transform="translate(539.85 3081.763)"/>
      <g id="Grupo_58389" data-name="Grupo 58389" transform="translate(507.12 2965.85)">
        <g id="Grupo_58387" data-name="Grupo 58387">
          <path id="Trazado_114340" data-name="Trazado 114340" d="M477.21,1150.97s5.192.127,7.231-.45c1.59-.45,3.6-2.55.72-3.48-4.463-1.442-1.92-4.081,1.08-3.691,2.917.379,15.992,2.76,22.263,2.7" transform="translate(-477.21 -1140.253)" fill="none" stroke="#bf3976" stroke-linecap="round" stroke-miterlimit="10" stroke-width="2"/>
          <path id="Trazado_114341" data-name="Trazado 114341" d="M496.509,1139.589s9.661-.36,2.684,4.554c-5.363,3.778-2.684,7.387,2.566,4.357,1.267-.732,2.941-1.949,9.871-3.12" transform="translate(-480.637 -1139.583)" fill="none" stroke="#bf3976" stroke-linecap="round" stroke-miterlimit="10" stroke-width="2"/>
        </g>
        <g id="Grupo_58388" data-name="Grupo 58388" transform="translate(251.764 1.16)">
          <path id="Trazado_114342" data-name="Trazado 114342" d="M815.478,1141.009s-5.192-.127-7.231.45c-1.59.45-3.6,2.55-.72,3.481,4.463,1.441,1.921,4.08-1.08,3.69-2.917-.379-15.992-2.76-22.262-2.7" transform="translate(-784.185 -1140.997)" fill="none" stroke="#bf3976" stroke-linecap="round" stroke-miterlimit="10" stroke-width="2"/>
          <path id="Trazado_114343" data-name="Trazado 114343" d="M799.672,1151.87s-9.661.36-2.684-4.554c5.363-3.778,2.684-7.387-2.566-4.357-1.267.731-2.94,1.949-9.871,3.12" transform="translate(-784.251 -1141.147)" fill="none" stroke="#bf3976" stroke-linecap="round" stroke-miterlimit="10" stroke-width="2"/>
        </g>
        <line id="Línea_376" data-name="Línea 376" x2="215.784" transform="translate(33.791 6.027)" fill="none" stroke="#bf3976" stroke-linecap="round" stroke-miterlimit="10" stroke-width="2" stroke-dasharray="4 5"/>
      </g>
      <g id="Grupo_58392" data-name="Grupo 58392" transform="translate(507.12 2978.725)">
        <g id="Grupo_58390" data-name="Grupo 58390">
          <path id="Trazado_114344" data-name="Trazado 114344" d="M477.21,1166.669s5.192.127,7.231-.45c1.59-.45,3.6-2.55.72-3.481-4.463-1.441-1.92-4.08,1.08-3.69,2.917.379,15.992,2.76,22.263,2.7" transform="translate(-477.21 -1155.952)" fill="none" stroke="#bf3976" stroke-linecap="round" stroke-miterlimit="10" stroke-width="2"/>
          <path id="Trazado_114345" data-name="Trazado 114345" d="M496.509,1155.288s9.661-.36,2.684,4.554c-5.363,3.778-2.684,7.387,2.566,4.356,1.267-.732,2.941-1.949,9.871-3.12" transform="translate(-480.637 -1155.282)" fill="none" stroke="#bf3976" stroke-linecap="round" stroke-miterlimit="10" stroke-width="2"/>
        </g>
        <g id="Grupo_58391" data-name="Grupo 58391" transform="translate(251.764 1.16)">
          <path id="Trazado_114346" data-name="Trazado 114346" d="M815.478,1156.708s-5.192-.127-7.231.45c-1.59.45-3.6,2.55-.72,3.481,4.463,1.441,1.921,4.08-1.08,3.69-2.917-.379-15.992-2.76-22.262-2.7" transform="translate(-784.185 -1156.697)" fill="none" stroke="#bf3976" stroke-linecap="round" stroke-miterlimit="10" stroke-width="2"/>
          <path id="Trazado_114347" data-name="Trazado 114347" d="M799.672,1167.569s-9.661.36-2.684-4.554c5.363-3.778,2.684-7.387-2.566-4.357-1.267.731-2.94,1.949-9.871,3.12" transform="translate(-784.251 -1156.846)" fill="none" stroke="#bf3976" stroke-linecap="round" stroke-miterlimit="10" stroke-width="2"/>
        </g>
        <line id="Línea_377" data-name="Línea 377" x2="215.784" transform="translate(33.791 6.027)" fill="none" stroke="#bf3976" stroke-linecap="round" stroke-miterlimit="10" stroke-width="2" stroke-dasharray="4 5"/>
      </g>
      <line id="Línea_378" data-name="Línea 378" x2="218.277" transform="translate(538.266 2978.494)" fill="#f2eaee" stroke="#afafaf" stroke-miterlimit="10" stroke-width="1"/>
      <g id="Grupo_58397" data-name="Grupo 58397" transform="translate(9.729)">
        <circle id="Elipse_5035" data-name="Elipse 5035" cx="24" cy="24" r="24" transform="translate(312 2784.123)" fill="#bf3976"/>
        <path id="Trazado_114924" data-name="Trazado 114924" d="M25.848,23H21.887V10.391L18,11.527v-3l7.488-2.59h.363Z" transform="translate(313 2794.123)" fill="#fff"/>
      </g>
      <g id="Grupo_58398" data-name="Grupo 58398" transform="translate(9.85)">
        <circle id="Elipse_5036" data-name="Elipse 5036" cx="24" cy="24" r="24" transform="translate(613 2784.123)" fill="#bf3976"/>
        <path id="Trazado_114925" data-name="Trazado 114925" d="M29,23H17.094V20.422l5.484-5.766q2.027-2.309,2.027-3.668a2.551,2.551,0,0,0-.48-1.676,1.715,1.715,0,0,0-1.395-.574,1.737,1.737,0,0,0-1.465.768,3.155,3.155,0,0,0-.562,1.916H16.742a5.6,5.6,0,0,1,.785-2.9,5.506,5.506,0,0,1,2.18-2.08,6.475,6.475,0,0,1,3.117-.75,6.369,6.369,0,0,1,4.26,1.277,4.56,4.56,0,0,1,1.494,3.668A5.326,5.326,0,0,1,28.2,12.6a8.608,8.608,0,0,1-1.166,2,29.372,29.372,0,0,1-2.549,2.807l-2.2,2.543H29Z" transform="translate(614 2794.123)" fill="#fff"/>
      </g>
    </g>
    <g id="Grupo_58402" data-name="Grupo 58402" transform="translate(0 -32)">
      <path id="Trazado_114313" data-name="Trazado 114313" d="M1478.672,1176.114l-215.492.82c-2.3-2.367-5.078-4.414-5.419-10.846-.266-4.993-3.237-9.412-4.88-13.264H1471.15C1475.886,1159.614,1473.168,1168.368,1478.672,1176.114Z" transform="translate(-109.6 1823.886)" fill="#c6c6c6" stroke="#afafaf" stroke-miterlimit="10" stroke-width="0.999" style="isolation: isolate"/>
      <g id="Grupo_58370" data-name="Grupo 58370" transform="translate(844.314 2978.809)">
        <path id="Trazado_114314" data-name="Trazado 114314" d="M888.351,1155.384" transform="translate(-888.351 -1155.384)" fill="none" stroke="#bf3976" stroke-linecap="round" stroke-miterlimit="10" stroke-width="2"/>
      </g>
      <rect id="Rectángulo_5606" data-name="Rectángulo 5606" width="217.972" height="261.631" transform="translate(846.722 2847.323)" fill="#d8d8d8" stroke="#afafaf" stroke-miterlimit="10" stroke-width="1" style="isolation: isolate"/>
      <path id="Trazado_114929" data-name="Trazado 114929" d="M23.176,10.448a3.774,3.774,0,0,1-1.271,2.71,4.463,4.463,0,0,1-3.021.989,4.013,4.013,0,0,1-3.226-1.381,5.661,5.661,0,0,1-1.176-3.79V8.324a6.393,6.393,0,0,1,.542-2.71,4.062,4.062,0,0,1,1.549-1.8,4.339,4.339,0,0,1,2.34-.626,4.348,4.348,0,0,1,2.974.989,4.055,4.055,0,0,1,1.3,2.776h-2.2a2.227,2.227,0,0,0-.575-1.5,2.129,2.129,0,0,0-1.505-.465,1.867,1.867,0,0,0-1.644.787,4.413,4.413,0,0,0-.56,2.443v.806a4.723,4.723,0,0,0,.524,2.527,1.832,1.832,0,0,0,1.652.8,2.169,2.169,0,0,0,1.52-.465,2.1,2.1,0,0,0,.575-1.439Zm.974-.483a4.7,4.7,0,0,1,.454-2.1,3.324,3.324,0,0,1,1.307-1.428,3.814,3.814,0,0,1,1.981-.505,3.609,3.609,0,0,1,2.618.981,3.939,3.939,0,0,1,1.132,2.666l.015.542a4.142,4.142,0,0,1-1.018,2.926,3.539,3.539,0,0,1-2.732,1.1,3.556,3.556,0,0,1-2.736-1.1,4.215,4.215,0,0,1-1.022-2.988Zm2.117.15a2.962,2.962,0,0,0,.425,1.727,1.526,1.526,0,0,0,2.417.007,3.241,3.241,0,0,0,.432-1.889,2.933,2.933,0,0,0-.432-1.716,1.4,1.4,0,0,0-1.216-.609,1.382,1.382,0,0,0-1.2.605A3.3,3.3,0,0,0,26.267,10.115Zm10.986,1.7a.682.682,0,0,0-.385-.612,4.368,4.368,0,0,0-1.234-.4q-2.827-.593-2.827-2.4a2.178,2.178,0,0,1,.875-1.761,3.531,3.531,0,0,1,2.289-.707,3.8,3.8,0,0,1,2.413.71,2.239,2.239,0,0,1,.9,1.846H37.173a1.024,1.024,0,0,0-.293-.751,1.24,1.24,0,0,0-.916-.3,1.267,1.267,0,0,0-.828.242.763.763,0,0,0-.293.615.652.652,0,0,0,.333.568,3.428,3.428,0,0,0,1.124.374,9.183,9.183,0,0,1,1.333.355,2.19,2.19,0,0,1,1.677,2.131,2.067,2.067,0,0,1-.93,1.754,4.013,4.013,0,0,1-2.4.67,4.191,4.191,0,0,1-1.769-.355A2.968,2.968,0,0,1,33,12.817a2.263,2.263,0,0,1-.439-1.337h2.007a1.105,1.105,0,0,0,.417.864,1.656,1.656,0,0,0,1.04.3,1.533,1.533,0,0,0,.919-.231A.718.718,0,0,0,37.254,11.81Zm5.955-7.683V6.075h1.355V7.628H43.208v3.955a.944.944,0,0,0,.168.63.846.846,0,0,0,.645.19,3.376,3.376,0,0,0,.623-.051v1.6a4.358,4.358,0,0,1-1.282.19A2.021,2.021,0,0,1,41.092,11.9V7.628H39.934V6.075h1.157V4.127Zm7.28,9.067a2.654,2.654,0,0,1-2.168.952,2.5,2.5,0,0,1-1.945-.732,3.127,3.127,0,0,1-.685-2.146V6.075h2.117V11.2q0,1.239,1.128,1.239a1.528,1.528,0,0,0,1.479-.748V6.075h2.124V14H50.547Zm8.1-5.134A5.751,5.751,0,0,0,57.827,8a1.55,1.55,0,0,0-1.575.813V14H54.136V6.075h2l.059.945a1.961,1.961,0,0,1,1.765-1.091,2.218,2.218,0,0,1,.659.1ZM63.98,14a2.351,2.351,0,0,1-.212-.71,2.561,2.561,0,0,1-2,.857,2.814,2.814,0,0,1-1.93-.674,2.167,2.167,0,0,1-.765-1.7,2.24,2.24,0,0,1,.934-1.934,4.608,4.608,0,0,1,2.7-.681h.974V8.7a1.306,1.306,0,0,0-.282-.879,1.109,1.109,0,0,0-.89-.33,1.261,1.261,0,0,0-.839.256.871.871,0,0,0-.3.7H59.248a2.126,2.126,0,0,1,.425-1.274,2.808,2.808,0,0,1,1.2-.919,4.378,4.378,0,0,1,1.743-.333,3.459,3.459,0,0,1,2.325.736A2.575,2.575,0,0,1,65.8,8.734v3.435a3.789,3.789,0,0,0,.315,1.707V14Zm-1.75-1.472a1.823,1.823,0,0,0,.864-.209,1.371,1.371,0,0,0,.586-.56V10.4h-.791q-1.589,0-1.692,1.1l-.007.125a.847.847,0,0,0,.278.652A1.081,1.081,0,0,0,62.229,12.528Zm12.583,1.619a3.89,3.89,0,0,1-2.838-1.069,3.8,3.8,0,0,1-1.095-2.849v-.205a4.787,4.787,0,0,1,.461-2.135,3.386,3.386,0,0,1,1.307-1.45,3.669,3.669,0,0,1,1.93-.509,3.289,3.289,0,0,1,2.56,1.025,4.167,4.167,0,0,1,.934,2.908v.864H73.025a1.966,1.966,0,0,0,.619,1.245,1.871,1.871,0,0,0,1.307.469,2.285,2.285,0,0,0,1.912-.886l1.04,1.165a3.178,3.178,0,0,1-1.289,1.051A4.229,4.229,0,0,1,74.812,14.146Zm-.242-6.511a1.323,1.323,0,0,0-1.022.427,2.209,2.209,0,0,0-.5,1.221h2.944V9.114a1.576,1.576,0,0,0-.381-1.092A1.365,1.365,0,0,0,74.571,7.635Zm6.65-1.56.066.916a2.767,2.767,0,0,1,2.278-1.062,2.3,2.3,0,0,1,1.875.74,3.451,3.451,0,0,1,.63,2.212V14H83.953V8.92a1.379,1.379,0,0,0-.293-.98,1.31,1.31,0,0,0-.974-.3,1.456,1.456,0,0,0-1.34.763V14H79.229V6.075Zm13.835,8.071a3.89,3.89,0,0,1-2.838-1.069,3.8,3.8,0,0,1-1.095-2.849v-.205a4.787,4.787,0,0,1,.461-2.135,3.386,3.386,0,0,1,1.307-1.45,3.669,3.669,0,0,1,1.93-.509,3.289,3.289,0,0,1,2.56,1.025,4.167,4.167,0,0,1,.934,2.908v.864H93.269a1.966,1.966,0,0,0,.619,1.245,1.871,1.871,0,0,0,1.307.469,2.285,2.285,0,0,0,1.912-.886l1.04,1.165a3.178,3.178,0,0,1-1.289,1.051A4.229,4.229,0,0,1,95.056,14.146Zm-.242-6.511a1.323,1.323,0,0,0-1.022.427,2.209,2.209,0,0,0-.5,1.221h2.944V9.114a1.576,1.576,0,0,0-.381-1.092A1.365,1.365,0,0,0,94.815,7.635ZM101.751,14H99.627V2.75h2.124Zm12.62-3.889a4.8,4.8,0,0,1-.813,2.97,2.693,2.693,0,0,1-2.271,1.066,2.474,2.474,0,0,1-2.058-.989l-.1.842h-1.9V2.75h2.117V6.786a2.411,2.411,0,0,1,1.926-.857,2.715,2.715,0,0,1,2.274,1.066,4.806,4.806,0,0,1,.824,3Zm-2.117-.161a3.17,3.17,0,0,0-.381-1.76,1.287,1.287,0,0,0-1.135-.555,1.4,1.4,0,0,0-1.392.83V11.6a1.415,1.415,0,0,0,1.406.837,1.307,1.307,0,0,0,1.348-1.014A5.245,5.245,0,0,0,112.254,9.949Zm3.091.015a4.7,4.7,0,0,1,.454-2.1,3.324,3.324,0,0,1,1.307-1.428,3.814,3.814,0,0,1,1.981-.505,3.609,3.609,0,0,1,2.618.981,3.939,3.939,0,0,1,1.132,2.666l.015.542a4.142,4.142,0,0,1-1.018,2.926,3.946,3.946,0,0,1-5.468,0,4.215,4.215,0,0,1-1.022-2.988Zm2.117.15a2.962,2.962,0,0,0,.425,1.727,1.526,1.526,0,0,0,2.417.007,3.241,3.241,0,0,0,.432-1.889,2.933,2.933,0,0,0-.432-1.716,1.4,1.4,0,0,0-1.216-.609,1.382,1.382,0,0,0-1.2.605A3.3,3.3,0,0,0,117.461,10.115ZM128.609,8.06A5.751,5.751,0,0,0,127.847,8a1.55,1.55,0,0,0-1.575.813V14h-2.117V6.075h2l.059.945a1.961,1.961,0,0,1,1.765-1.091,2.218,2.218,0,0,1,.659.1Zm.549,1.919a4.776,4.776,0,0,1,.831-2.952,2.7,2.7,0,0,1,2.274-1.1,2.427,2.427,0,0,1,1.912.864V2.75H136.3V14h-1.912l-.1-.842a2.491,2.491,0,0,1-2.036.989,2.69,2.69,0,0,1-2.245-1.1A4.93,4.93,0,0,1,129.158,9.979Zm2.117.151a3.146,3.146,0,0,0,.388,1.714,1.263,1.263,0,0,0,1.128.6,1.416,1.416,0,0,0,1.384-.831V8.467a1.4,1.4,0,0,0-1.37-.831Q131.275,7.635,131.275,10.13Zm10.313,4.017a3.89,3.89,0,0,1-2.838-1.069,3.8,3.8,0,0,1-1.095-2.849v-.205a4.787,4.787,0,0,1,.461-2.135,3.386,3.386,0,0,1,1.307-1.45,3.669,3.669,0,0,1,1.93-.509,3.289,3.289,0,0,1,2.56,1.025,4.167,4.167,0,0,1,.934,2.908v.864H139.8a1.966,1.966,0,0,0,.619,1.245,1.871,1.871,0,0,0,1.307.469,2.285,2.285,0,0,0,1.912-.886l1.04,1.165a3.178,3.178,0,0,1-1.289,1.051A4.229,4.229,0,0,1,141.587,14.146Zm-.242-6.511a1.323,1.323,0,0,0-1.022.427,2.209,2.209,0,0,0-.5,1.221h2.944V9.114a1.576,1.576,0,0,0-.381-1.092A1.365,1.365,0,0,0,141.345,7.635Zm11.733,4.8a1.388,1.388,0,0,0,.952-.322,1.129,1.129,0,0,0,.381-.857H156.4a2.715,2.715,0,0,1-.439,1.476,2.9,2.9,0,0,1-1.183,1.04,3.7,3.7,0,0,1-1.659.37,3.44,3.44,0,0,1-2.681-1.08,4.275,4.275,0,0,1-.981-2.985V9.942a4.226,4.226,0,0,1,.974-2.922A3.4,3.4,0,0,1,153.1,5.929a3.333,3.333,0,0,1,2.384.846,3,3,0,0,1,.912,2.252h-1.985a1.455,1.455,0,0,0-.381-1.005,1.416,1.416,0,0,0-2.084.153,3.125,3.125,0,0,0-.377,1.749v.22a3.164,3.164,0,0,0,.374,1.761A1.291,1.291,0,0,0,153.079,12.44Zm8.174,1.707a3.89,3.89,0,0,1-2.838-1.069,3.8,3.8,0,0,1-1.095-2.849v-.205a4.787,4.787,0,0,1,.461-2.135,3.386,3.386,0,0,1,1.307-1.45,3.669,3.669,0,0,1,1.93-.509,3.289,3.289,0,0,1,2.56,1.025,4.167,4.167,0,0,1,.934,2.908v.864h-5.046a1.966,1.966,0,0,0,.619,1.245,1.871,1.871,0,0,0,1.307.469,2.285,2.285,0,0,0,1.912-.886l1.04,1.165a3.178,3.178,0,0,1-1.289,1.051A4.229,4.229,0,0,1,161.253,14.146Zm-.242-6.511a1.323,1.323,0,0,0-1.022.427,2.209,2.209,0,0,0-.5,1.221h2.944V9.114a1.576,1.576,0,0,0-.381-1.092A1.365,1.365,0,0,0,161.011,7.635Zm9.155.425A5.751,5.751,0,0,0,169.4,8a1.55,1.55,0,0,0-1.575.813V14h-2.117V6.075h2l.059.945a1.961,1.961,0,0,1,1.765-1.091,2.218,2.218,0,0,1,.659.1Zm5.471,0A5.751,5.751,0,0,0,174.876,8a1.55,1.55,0,0,0-1.575.813V14h-2.117V6.075h2l.059.945a1.961,1.961,0,0,1,1.765-1.091,2.218,2.218,0,0,1,.659.1ZM181.028,14a2.351,2.351,0,0,1-.212-.71,2.561,2.561,0,0,1-2,.857,2.814,2.814,0,0,1-1.93-.674,2.167,2.167,0,0,1-.765-1.7,2.24,2.24,0,0,1,.934-1.934,4.608,4.608,0,0,1,2.7-.681h.974V8.7a1.306,1.306,0,0,0-.282-.879,1.109,1.109,0,0,0-.89-.33,1.261,1.261,0,0,0-.839.256.871.871,0,0,0-.3.7H176.3a2.126,2.126,0,0,1,.425-1.274,2.808,2.808,0,0,1,1.2-.919,4.378,4.378,0,0,1,1.743-.333,3.459,3.459,0,0,1,2.325.736,2.575,2.575,0,0,1,.861,2.069v3.435a3.789,3.789,0,0,0,.315,1.707V14Zm-1.75-1.472a1.823,1.823,0,0,0,.864-.209,1.371,1.371,0,0,0,.586-.56V10.4h-.791q-1.589,0-1.692,1.1l-.007.125a.847.847,0,0,0,.278.652A1.081,1.081,0,0,0,179.278,12.528Zm4.871-2.549a4.776,4.776,0,0,1,.831-2.952,2.7,2.7,0,0,1,2.274-1.1,2.427,2.427,0,0,1,1.912.864V2.75h2.124V14h-1.912l-.1-.842a2.491,2.491,0,0,1-2.036.989,2.69,2.69,0,0,1-2.245-1.1A4.93,4.93,0,0,1,184.148,9.979Zm2.117.151a3.146,3.146,0,0,0,.388,1.714,1.263,1.263,0,0,0,1.128.6,1.416,1.416,0,0,0,1.384-.831V8.467a1.4,1.4,0,0,0-1.37-.831Q186.265,7.635,186.265,10.13ZM197.522,14a2.351,2.351,0,0,1-.212-.71,2.561,2.561,0,0,1-2,.857,2.814,2.814,0,0,1-1.93-.674,2.167,2.167,0,0,1-.765-1.7,2.24,2.24,0,0,1,.934-1.934,4.608,4.608,0,0,1,2.7-.681h.974V8.7a1.306,1.306,0,0,0-.282-.879,1.109,1.109,0,0,0-.89-.33,1.261,1.261,0,0,0-.839.256.871.871,0,0,0-.3.7h-2.117a2.126,2.126,0,0,1,.425-1.274,2.808,2.808,0,0,1,1.2-.919,4.378,4.378,0,0,1,1.743-.333,3.459,3.459,0,0,1,2.325.736,2.575,2.575,0,0,1,.861,2.069v3.435a3.789,3.789,0,0,0,.315,1.707V14Zm-1.75-1.472a1.823,1.823,0,0,0,.864-.209,1.371,1.371,0,0,0,.586-.56V10.4h-.791q-1.589,0-1.692,1.1l-.007.125a.847.847,0,0,0,.278.652A1.081,1.081,0,0,0,195.772,12.528Z" transform="translate(847.663 3081.073)"/>
      <path id="Trazado_114932" data-name="Trazado 114932" d="M78.222,9.825V14H76.815V3.336h3.933a3.952,3.952,0,0,1,2.743.894A3.029,3.029,0,0,1,84.484,6.6a2.989,2.989,0,0,1-.97,2.391,4.128,4.128,0,0,1-2.78.839Zm0-1.15h2.527a2.526,2.526,0,0,0,1.729-.532,1.945,1.945,0,0,0,.6-1.537,2.009,2.009,0,0,0-.6-1.526,2.367,2.367,0,0,0-1.648-.594H78.222Zm11.038,5.471a3.463,3.463,0,0,1-2.622-1.058,3.928,3.928,0,0,1-1.011-2.831v-.249a4.756,4.756,0,0,1,.45-2.106,3.514,3.514,0,0,1,1.26-1.45,3.167,3.167,0,0,1,1.754-.524,2.968,2.968,0,0,1,2.4,1.018,4.408,4.408,0,0,1,.857,2.915v.564H86.981a2.817,2.817,0,0,0,.685,1.893,2.153,2.153,0,0,0,1.666.721,2.36,2.36,0,0,0,1.216-.293,3.055,3.055,0,0,0,.872-.776l.828.645A3.328,3.328,0,0,1,89.259,14.146Zm-.168-7.1a1.807,1.807,0,0,0-1.377.6,2.9,2.9,0,0,0-.688,1.674H91v-.1a2.581,2.581,0,0,0-.557-1.6A1.7,1.7,0,0,0,89.091,7.042ZM98.532,11.9a1,1,0,0,0-.414-.853,3.983,3.983,0,0,0-1.443-.524,6.822,6.822,0,0,1-1.633-.527,2.324,2.324,0,0,1-.894-.732,1.752,1.752,0,0,1-.289-1.011A2.056,2.056,0,0,1,94.683,6.6a3.218,3.218,0,0,1,2.106-.674,3.311,3.311,0,0,1,2.186.7,2.21,2.21,0,0,1,.839,1.78H98.451a1.223,1.223,0,0,0-.472-.959,1.77,1.77,0,0,0-1.19-.4,1.852,1.852,0,0,0-1.157.322,1.014,1.014,0,0,0-.417.842.822.822,0,0,0,.388.74,4.776,4.776,0,0,0,1.4.476,7.308,7.308,0,0,1,1.644.542,2.4,2.4,0,0,1,.934.758,1.864,1.864,0,0,1,.3,1.08,2.028,2.028,0,0,1-.85,1.7,3.564,3.564,0,0,1-2.2.641,3.991,3.991,0,0,1-1.685-.337A2.74,2.74,0,0,1,94,12.868a2.268,2.268,0,0,1-.414-1.307h1.355a1.4,1.4,0,0,0,.546,1.08,2.117,2.117,0,0,0,1.344.4,2.185,2.185,0,0,0,1.234-.311A.956.956,0,0,0,98.532,11.9Zm9.814-1.772a4.745,4.745,0,0,1-.828,2.915,2.653,2.653,0,0,1-2.241,1.106,2.906,2.906,0,0,1-2.271-.916v3.816h-1.355V6.075h1.238l.066.879a2.791,2.791,0,0,1,2.3-1.025,2.7,2.7,0,0,1,2.26,1.077,4.8,4.8,0,0,1,.831,3Zm-1.355-.154a3.5,3.5,0,0,0-.571-2.117,1.84,1.84,0,0,0-1.567-.776,1.992,1.992,0,0,0-1.846,1.091v3.787a2,2,0,0,0,1.86,1.084,1.832,1.832,0,0,0,1.549-.773A3.822,3.822,0,0,0,106.991,9.972Zm7.969,3.245a2.878,2.878,0,0,1-2.322.93,2.464,2.464,0,0,1-1.93-.736,3.186,3.186,0,0,1-.67-2.179V6.075h1.355v5.12q0,1.8,1.465,1.8a2.028,2.028,0,0,0,2.065-1.157V6.075h1.355V14h-1.289Zm4.658-7.141.044,1a2.888,2.888,0,0,1,2.373-1.143q2.512,0,2.534,2.834V14h-1.355V8.756a1.824,1.824,0,0,0-.392-1.267,1.57,1.57,0,0,0-1.2-.41,1.956,1.956,0,0,0-1.157.352,2.387,2.387,0,0,0-.776.923V14h-1.355V6.075Zm8.833-1.919V6.075h1.479V7.123h-1.479v4.921a1.1,1.1,0,0,0,.2.715.832.832,0,0,0,.674.238,3.281,3.281,0,0,0,.645-.088V14a3.951,3.951,0,0,1-1.04.146,1.687,1.687,0,0,1-1.37-.549,2.36,2.36,0,0,1-.461-1.56V7.123h-1.443V6.075H127.1V4.156Zm6.35,9.99a3.463,3.463,0,0,1-2.622-1.058,3.928,3.928,0,0,1-1.011-2.831v-.249a4.756,4.756,0,0,1,.45-2.106,3.514,3.514,0,0,1,1.26-1.45,3.167,3.167,0,0,1,1.754-.524,2.968,2.968,0,0,1,2.4,1.018,4.408,4.408,0,0,1,.857,2.915v.564h-5.369a2.817,2.817,0,0,0,.685,1.893,2.153,2.153,0,0,0,1.666.721,2.36,2.36,0,0,0,1.216-.293,3.055,3.055,0,0,0,.872-.776l.828.645A3.328,3.328,0,0,1,134.8,14.146Zm-.168-7.1a1.807,1.807,0,0,0-1.377.6,2.9,2.9,0,0,0-.688,1.674h3.97v-.1a2.581,2.581,0,0,0-.557-1.6A1.7,1.7,0,0,0,134.633,7.042Z" transform="translate(847.663 2872.073)"/>
      <path id="Trazado_114315" data-name="Trazado 114315" d="M1111.228,1176.984H894.448a52.11,52.11,0,0,0-.3-9.086,49.1,49.1,0,0,0-3.463-13.385h218.738A93.461,93.461,0,0,1,1111.228,1176.984Z" transform="translate(-44.457 1823.581)" fill="#f2faff" stroke="#afafaf" stroke-miterlimit="10" stroke-width="1"/>
      <path id="Trazado_114316" data-name="Trazado 114316" d="M1117.077,1177.857l-215.492.82c-2.3-2.367-5.078-4.414-5.419-10.846-.265-4.993-3.237-9.412-4.879-13.264h218.269C1114.291,1161.357,1111.573,1170.111,1117.077,1177.857Z" transform="translate(-44.564 1823.572)" fill="#c6c6c6" stroke="#afafaf" stroke-miterlimit="10" stroke-width="0.999" style="isolation: isolate"/>
      <g id="Grupo_58373" data-name="Grupo 58373" transform="translate(814.934 2978.035)">
        <g id="Grupo_58371" data-name="Grupo 58371">
          <path id="Trazado_114317" data-name="Trazado 114317" d="M852.527,1165.828s5.192.127,7.231-.449c1.59-.45,3.6-2.551.72-3.481-4.463-1.441-1.921-4.08,1.08-3.691,2.917.38,15.992,2.761,22.262,2.7" transform="translate(-852.527 -1155.111)" fill="none" stroke="#bf3976" stroke-linecap="round" stroke-miterlimit="10" stroke-width="2"/>
          <path id="Trazado_114318" data-name="Trazado 114318" d="M871.826,1154.447s9.661-.36,2.684,4.555c-5.363,3.778-2.684,7.386,2.566,4.356,1.267-.731,2.94-1.949,9.871-3.119" transform="translate(-855.954 -1154.441)" fill="none" stroke="#bf3976" stroke-linecap="round" stroke-miterlimit="10" stroke-width="2"/>
        </g>
        <g id="Grupo_58372" data-name="Grupo 58372" transform="translate(251.763 1.161)">
          <path id="Trazado_114319" data-name="Trazado 114319" d="M1190.8,1155.868s-5.192-.127-7.231.449c-1.59.45-3.6,2.551-.72,3.481,4.463,1.441,1.92,4.08-1.08,3.691-2.917-.38-15.992-2.761-22.263-2.7" transform="translate(-1159.501 -1155.856)" fill="none" stroke="#bf3976" stroke-linecap="round" stroke-miterlimit="10" stroke-width="2"/>
          <path id="Trazado_114320" data-name="Trazado 114320" d="M1174.989,1166.729s-9.661.36-2.684-4.555c5.363-3.778,2.684-7.386-2.566-4.356-1.267.731-2.941,1.949-9.871,3.119" transform="translate(-1159.567 -1156.006)" fill="none" stroke="#bf3976" stroke-linecap="round" stroke-miterlimit="10" stroke-width="2"/>
        </g>
        <line id="Línea_371" data-name="Línea 371" x2="215.784" transform="translate(33.791 6.027)" fill="none" stroke="#bf3976" stroke-linecap="round" stroke-miterlimit="10" stroke-width="2" stroke-dasharray="4 5"/>
      </g>
      <g id="Grupo_58374" data-name="Grupo 58374" transform="translate(1139.933 2978.809)">
        <path id="Trazado_114321" data-name="Trazado 114321" d="M1248.8,1155.384" transform="translate(-1248.798 -1155.384)" fill="none" stroke="#bf3976" stroke-linecap="round" stroke-miterlimit="10" stroke-width="2"/>
      </g>
      <rect id="Rectángulo_5607" data-name="Rectángulo 5607" width="217.972" height="261.631" transform="translate(1142.34 2847.323)" fill="#f2faff" stroke="#afafaf" stroke-miterlimit="10" stroke-width="1"/>
      <path id="Trazado_114928" data-name="Trazado 114928" d="M30.537,10.448a3.774,3.774,0,0,1-1.271,2.71,4.463,4.463,0,0,1-3.021.989,4.013,4.013,0,0,1-3.226-1.381,5.661,5.661,0,0,1-1.176-3.79V8.324a6.393,6.393,0,0,1,.542-2.71,4.062,4.062,0,0,1,1.549-1.8,4.339,4.339,0,0,1,2.34-.626,4.348,4.348,0,0,1,2.974.989,4.055,4.055,0,0,1,1.3,2.776h-2.2a2.227,2.227,0,0,0-.575-1.5,2.129,2.129,0,0,0-1.505-.465,1.867,1.867,0,0,0-1.644.787,4.413,4.413,0,0,0-.56,2.443v.806a4.723,4.723,0,0,0,.524,2.527,1.832,1.832,0,0,0,1.652.8,2.169,2.169,0,0,0,1.52-.465,2.1,2.1,0,0,0,.575-1.439Zm.974-.483a4.7,4.7,0,0,1,.454-2.1,3.324,3.324,0,0,1,1.307-1.428,3.814,3.814,0,0,1,1.981-.505,3.609,3.609,0,0,1,2.618.981A3.939,3.939,0,0,1,39,9.576l.015.542A4.142,4.142,0,0,1,38,13.044a3.946,3.946,0,0,1-5.468,0,4.215,4.215,0,0,1-1.022-2.988Zm2.117.15a2.962,2.962,0,0,0,.425,1.727,1.526,1.526,0,0,0,2.417.007A3.241,3.241,0,0,0,36.9,9.961a2.933,2.933,0,0,0-.432-1.716,1.4,1.4,0,0,0-1.216-.609,1.382,1.382,0,0,0-1.2.605A3.3,3.3,0,0,0,33.628,10.115Zm10.986,1.7a.682.682,0,0,0-.385-.612A4.368,4.368,0,0,0,43,10.8q-2.827-.593-2.827-2.4a2.178,2.178,0,0,1,.875-1.761,3.531,3.531,0,0,1,2.289-.707,3.8,3.8,0,0,1,2.413.71,2.239,2.239,0,0,1,.9,1.846H44.534a1.024,1.024,0,0,0-.293-.751,1.24,1.24,0,0,0-.916-.3,1.267,1.267,0,0,0-.828.242.763.763,0,0,0-.293.615.652.652,0,0,0,.333.568,3.428,3.428,0,0,0,1.124.374A9.183,9.183,0,0,1,45,9.591a2.19,2.19,0,0,1,1.677,2.131,2.067,2.067,0,0,1-.93,1.754,4.013,4.013,0,0,1-2.4.67,4.191,4.191,0,0,1-1.769-.355,2.968,2.968,0,0,1-1.212-.974,2.263,2.263,0,0,1-.439-1.337h2.007a1.105,1.105,0,0,0,.417.864,1.656,1.656,0,0,0,1.04.3,1.533,1.533,0,0,0,.919-.231A.718.718,0,0,0,44.614,11.81Zm5.955-7.683V6.075h1.355V7.628H50.569v3.955a.944.944,0,0,0,.168.63.846.846,0,0,0,.645.19A3.376,3.376,0,0,0,52,12.352v1.6a4.358,4.358,0,0,1-1.282.19A2.021,2.021,0,0,1,48.452,11.9V7.628H47.3V6.075h1.157V4.127Zm7.28,9.067a2.654,2.654,0,0,1-2.168.952,2.5,2.5,0,0,1-1.945-.732,3.127,3.127,0,0,1-.685-2.146V6.075h2.117V11.2q0,1.239,1.128,1.239a1.528,1.528,0,0,0,1.479-.748V6.075H59.9V14H57.908Zm8.1-5.134A5.751,5.751,0,0,0,65.188,8a1.55,1.55,0,0,0-1.575.813V14H61.5V6.075h2l.059.945A1.961,1.961,0,0,1,65.32,5.929a2.218,2.218,0,0,1,.659.1ZM71.341,14a2.351,2.351,0,0,1-.212-.71,2.561,2.561,0,0,1-2,.857,2.814,2.814,0,0,1-1.93-.674,2.167,2.167,0,0,1-.765-1.7,2.24,2.24,0,0,1,.934-1.934,4.608,4.608,0,0,1,2.7-.681h.974V8.7a1.306,1.306,0,0,0-.282-.879,1.109,1.109,0,0,0-.89-.33,1.261,1.261,0,0,0-.839.256.871.871,0,0,0-.3.7H66.609a2.126,2.126,0,0,1,.425-1.274,2.808,2.808,0,0,1,1.2-.919,4.378,4.378,0,0,1,1.743-.333,3.459,3.459,0,0,1,2.325.736,2.575,2.575,0,0,1,.861,2.069v3.435a3.789,3.789,0,0,0,.315,1.707V14Zm-1.75-1.472a1.823,1.823,0,0,0,.864-.209,1.371,1.371,0,0,0,.586-.56V10.4h-.791q-1.589,0-1.692,1.1l-.007.125a.847.847,0,0,0,.278.652A1.081,1.081,0,0,0,69.59,12.528Zm11.9-1.113,1.472-5.339h2.212L82.5,14H80.481L77.808,6.075H80.02ZM88.34,14H86.216V6.075H88.34ZM86.092,4.024a1.042,1.042,0,0,1,.319-.784,1.373,1.373,0,0,1,1.732,0,1.036,1.036,0,0,1,.322.784,1.039,1.039,0,0,1-.326.791,1.358,1.358,0,0,1-1.721,0A1.039,1.039,0,0,1,86.092,4.024Zm8.284,7.786a.682.682,0,0,0-.385-.612,4.368,4.368,0,0,0-1.234-.4q-2.827-.593-2.827-2.4A2.178,2.178,0,0,1,90.8,6.635a3.531,3.531,0,0,1,2.289-.707,3.8,3.8,0,0,1,2.413.71,2.239,2.239,0,0,1,.9,1.846H94.295A1.024,1.024,0,0,0,94,7.734a1.24,1.24,0,0,0-.916-.3,1.267,1.267,0,0,0-.828.242.763.763,0,0,0-.293.615.652.652,0,0,0,.333.568,3.428,3.428,0,0,0,1.124.374,9.183,9.183,0,0,1,1.333.355,2.19,2.19,0,0,1,1.677,2.131,2.067,2.067,0,0,1-.93,1.754,4.013,4.013,0,0,1-2.4.67,4.191,4.191,0,0,1-1.769-.355,2.968,2.968,0,0,1-1.212-.974,2.263,2.263,0,0,1-.439-1.337h2.007a1.105,1.105,0,0,0,.417.864,1.656,1.656,0,0,0,1.04.3,1.533,1.533,0,0,0,.919-.231A.718.718,0,0,0,94.375,11.81Zm5.955-7.683V6.075h1.355V7.628H100.33v3.955a.944.944,0,0,0,.168.63.846.846,0,0,0,.645.19,3.376,3.376,0,0,0,.623-.051v1.6a4.358,4.358,0,0,1-1.282.19A2.021,2.021,0,0,1,98.213,11.9V7.628H97.056V6.075h1.157V4.127ZM107.456,14a2.351,2.351,0,0,1-.212-.71,2.561,2.561,0,0,1-2,.857,2.814,2.814,0,0,1-1.93-.674,2.167,2.167,0,0,1-.765-1.7,2.24,2.24,0,0,1,.934-1.934,4.608,4.608,0,0,1,2.7-.681h.974V8.7a1.306,1.306,0,0,0-.282-.879,1.109,1.109,0,0,0-.89-.33,1.261,1.261,0,0,0-.839.256.871.871,0,0,0-.3.7h-2.117a2.126,2.126,0,0,1,.425-1.274,2.808,2.808,0,0,1,1.2-.919,4.378,4.378,0,0,1,1.743-.333,3.459,3.459,0,0,1,2.325.736,2.575,2.575,0,0,1,.861,2.069v3.435a3.789,3.789,0,0,0,.315,1.707V14Zm-1.75-1.472a1.823,1.823,0,0,0,.864-.209,1.371,1.371,0,0,0,.586-.56V10.4h-.791q-1.589,0-1.692,1.1l-.007.125a.847.847,0,0,0,.278.652A1.081,1.081,0,0,0,105.706,12.528Zm8.606-2.549a4.776,4.776,0,0,1,.831-2.952,2.7,2.7,0,0,1,2.274-1.1,2.427,2.427,0,0,1,1.912.864V2.75h2.124V14h-1.912l-.1-.842a2.491,2.491,0,0,1-2.036.989,2.69,2.69,0,0,1-2.245-1.1A4.93,4.93,0,0,1,114.312,9.979Zm2.117.151a3.146,3.146,0,0,0,.388,1.714,1.263,1.263,0,0,0,1.128.6,1.416,1.416,0,0,0,1.384-.831V8.467a1.4,1.4,0,0,0-1.37-.831Q116.428,7.635,116.428,10.13Zm10.313,4.017a3.89,3.89,0,0,1-2.838-1.069,3.8,3.8,0,0,1-1.095-2.849v-.205a4.787,4.787,0,0,1,.461-2.135,3.386,3.386,0,0,1,1.307-1.45,3.669,3.669,0,0,1,1.93-.509,3.289,3.289,0,0,1,2.56,1.025A4.167,4.167,0,0,1,130,9.862v.864h-5.046a1.966,1.966,0,0,0,.619,1.245,1.871,1.871,0,0,0,1.307.469,2.285,2.285,0,0,0,1.912-.886l1.04,1.165a3.178,3.178,0,0,1-1.289,1.051A4.229,4.229,0,0,1,126.741,14.146ZM126.5,7.635a1.323,1.323,0,0,0-1.022.427,2.209,2.209,0,0,0-.5,1.221h2.944V9.114a1.576,1.576,0,0,0-.381-1.092A1.365,1.365,0,0,0,126.5,7.635ZM133.435,14h-2.124V2.75h2.124Zm5.149-4.021a4.776,4.776,0,0,1,.831-2.952,2.7,2.7,0,0,1,2.274-1.1,2.427,2.427,0,0,1,1.912.864V2.75h2.124V14h-1.912l-.1-.842a2.491,2.491,0,0,1-2.036.989,2.69,2.69,0,0,1-2.245-1.1A4.93,4.93,0,0,1,138.584,9.979Zm2.117.151a3.146,3.146,0,0,0,.388,1.714,1.263,1.263,0,0,0,1.128.6,1.416,1.416,0,0,0,1.384-.831V8.467a1.4,1.4,0,0,0-1.37-.831Q140.7,7.635,140.7,10.13Zm10.313,4.017a3.89,3.89,0,0,1-2.838-1.069,3.8,3.8,0,0,1-1.095-2.849v-.205a4.787,4.787,0,0,1,.461-2.135,3.386,3.386,0,0,1,1.307-1.45,3.669,3.669,0,0,1,1.93-.509,3.289,3.289,0,0,1,2.56,1.025,4.167,4.167,0,0,1,.934,2.908v.864h-5.046a1.966,1.966,0,0,0,.619,1.245,1.871,1.871,0,0,0,1.307.469,2.285,2.285,0,0,0,1.912-.886l1.04,1.165a3.178,3.178,0,0,1-1.289,1.051A4.229,4.229,0,0,1,151.013,14.146Zm-.242-6.511a1.323,1.323,0,0,0-1.022.427,2.209,2.209,0,0,0-.5,1.221h2.944V9.114a1.576,1.576,0,0,0-.381-1.092A1.365,1.365,0,0,0,150.772,7.635Zm9.155.425A5.751,5.751,0,0,0,159.165,8a1.55,1.55,0,0,0-1.575.813V14h-2.117V6.075h2l.059.945A1.961,1.961,0,0,1,159.3,5.929a2.218,2.218,0,0,1,.659.1Zm4.526,6.086a3.89,3.89,0,0,1-2.838-1.069,3.8,3.8,0,0,1-1.095-2.849v-.205a4.787,4.787,0,0,1,.461-2.135,3.386,3.386,0,0,1,1.307-1.45,3.669,3.669,0,0,1,1.93-.509,3.289,3.289,0,0,1,2.56,1.025,4.167,4.167,0,0,1,.934,2.908v.864h-5.046a1.966,1.966,0,0,0,.619,1.245,1.871,1.871,0,0,0,1.307.469,2.285,2.285,0,0,0,1.912-.886l1.04,1.165a3.178,3.178,0,0,1-1.289,1.051A4.229,4.229,0,0,1,164.453,14.146Zm-.242-6.511a1.323,1.323,0,0,0-1.022.427,2.209,2.209,0,0,0-.5,1.221h2.944V9.114a1.576,1.576,0,0,0-.381-1.092A1.365,1.365,0,0,0,164.212,7.635Zm8,4.8a1.388,1.388,0,0,0,.952-.322,1.129,1.129,0,0,0,.381-.857h1.985a2.715,2.715,0,0,1-.439,1.476,2.9,2.9,0,0,1-1.183,1.04,3.7,3.7,0,0,1-1.659.37,3.44,3.44,0,0,1-2.681-1.08,4.275,4.275,0,0,1-.981-2.985V9.942a4.226,4.226,0,0,1,.974-2.922,3.4,3.4,0,0,1,2.673-1.091,3.333,3.333,0,0,1,2.384.846,3,3,0,0,1,.912,2.252h-1.985a1.455,1.455,0,0,0-.381-1.005,1.416,1.416,0,0,0-2.084.153,3.125,3.125,0,0,0-.377,1.749v.22a3.164,3.164,0,0,0,.374,1.761A1.291,1.291,0,0,0,172.21,12.44Zm6.592-5.5a2.642,2.642,0,0,1,2.117-1.011q2.578,0,2.615,3V14h-2.117V8.971a1.478,1.478,0,0,0-.293-1.009,1.254,1.254,0,0,0-.974-.327,1.44,1.44,0,0,0-1.348.719V14h-2.117V2.75H178.8Zm6,3.025a4.7,4.7,0,0,1,.454-2.1,3.324,3.324,0,0,1,1.307-1.428,3.814,3.814,0,0,1,1.981-.505,3.609,3.609,0,0,1,2.618.981,3.939,3.939,0,0,1,1.132,2.666l.015.542a4.142,4.142,0,0,1-1.018,2.926,3.946,3.946,0,0,1-5.468,0A4.215,4.215,0,0,1,184.8,10.06Zm2.117.15a2.962,2.962,0,0,0,.425,1.727,1.526,1.526,0,0,0,2.417.007,3.241,3.241,0,0,0,.432-1.889,2.933,2.933,0,0,0-.432-1.716,1.4,1.4,0,0,0-1.216-.609,1.382,1.382,0,0,0-1.2.605A3.3,3.3,0,0,0,186.917,10.115Z" transform="translate(1143.281 3081.073)"/>
      <g id="Grupo_58377" data-name="Grupo 58377" transform="translate(1110.552 2978.035)">
        <g id="Grupo_58375" data-name="Grupo 58375">
          <path id="Trazado_114322" data-name="Trazado 114322" d="M1212.974,1165.828s5.192.127,7.231-.449c1.59-.45,3.6-2.551.72-3.481-4.463-1.441-1.92-4.08,1.08-3.691,2.917.38,15.992,2.761,22.263,2.7" transform="translate(-1212.974 -1155.111)" fill="none" stroke="#bf3976" stroke-linecap="round" stroke-miterlimit="10" stroke-width="2"/>
          <path id="Trazado_114323" data-name="Trazado 114323" d="M1232.273,1154.447s9.661-.36,2.684,4.555c-5.363,3.778-2.684,7.386,2.566,4.356,1.267-.731,2.94-1.949,9.871-3.119" transform="translate(-1216.401 -1154.441)" fill="none" stroke="#bf3976" stroke-linecap="round" stroke-miterlimit="10" stroke-width="2"/>
        </g>
        <g id="Grupo_58376" data-name="Grupo 58376" transform="translate(251.763 1.161)">
          <path id="Trazado_114324" data-name="Trazado 114324" d="M1551.242,1155.868s-5.192-.127-7.231.449c-1.59.45-3.6,2.551-.72,3.481,4.463,1.441,1.921,4.08-1.08,3.691-2.917-.38-15.992-2.761-22.263-2.7" transform="translate(-1519.948 -1155.856)" fill="none" stroke="#bf3976" stroke-linecap="round" stroke-miterlimit="10" stroke-width="2"/>
          <path id="Trazado_114325" data-name="Trazado 114325" d="M1535.436,1166.729s-9.661.36-2.684-4.555c5.363-3.778,2.684-7.386-2.566-4.356-1.267.731-2.94,1.949-9.871,3.119" transform="translate(-1520.014 -1156.006)" fill="none" stroke="#bf3976" stroke-linecap="round" stroke-miterlimit="10" stroke-width="2"/>
        </g>
        <line id="Línea_372" data-name="Línea 372" x2="215.784" transform="translate(33.791 6.027)" fill="none" stroke="#bf3976" stroke-linecap="round" stroke-miterlimit="10" stroke-width="2" stroke-dasharray="4 5"/>
      </g>
      <line id="Línea_373" data-name="Línea 373" x2="218.277" transform="translate(1141.851 2976.867)" fill="#f2eaee" stroke="#afafaf" stroke-miterlimit="10" stroke-width="1"/>
      <g id="Grupo_58399" data-name="Grupo 58399" transform="translate(-0.337)">
        <circle id="Elipse_5038" data-name="Elipse 5038" cx="24" cy="24" r="24" transform="translate(931 2784.123)" fill="#bf3976"/>
        <path id="Trazado_114926" data-name="Trazado 114926" d="M20.7,12.816h1.863a1.937,1.937,0,0,0,2.215-2.168,1.875,1.875,0,0,0-.527-1.377,2,2,0,0,0-1.488-.533A2.141,2.141,0,0,0,21.4,9.2a1.394,1.394,0,0,0-.58,1.137H16.871a4.043,4.043,0,0,1,.75-2.4A4.953,4.953,0,0,1,19.7,6.283a7.112,7.112,0,0,1,2.924-.592,6.988,6.988,0,0,1,4.477,1.3,4.324,4.324,0,0,1,1.629,3.574,3.6,3.6,0,0,1-.674,2.08,4.8,4.8,0,0,1-1.963,1.588,4.587,4.587,0,0,1,2.133,1.494A3.935,3.935,0,0,1,29,18.207a4.4,4.4,0,0,1-1.758,3.656,7.3,7.3,0,0,1-4.617,1.371,7.567,7.567,0,0,1-3.111-.639,4.875,4.875,0,0,1-2.174-1.77,4.6,4.6,0,0,1-.738-2.572h3.973a1.778,1.778,0,0,0,.633,1.359,2.234,2.234,0,0,0,1.559.574,2.34,2.34,0,0,0,1.664-.58,1.939,1.939,0,0,0,.621-1.482,2.267,2.267,0,0,0-.645-1.828,2.694,2.694,0,0,0-1.781-.539H20.7Z" transform="translate(932 2794.123)" fill="#fff"/>
      </g>
      <g id="Grupo_58400" data-name="Grupo 58400" transform="translate(-5.719)">
        <circle id="Elipse_5037" data-name="Elipse 5037" cx="24" cy="24" r="24" transform="translate(1232 2784.123)" fill="#bf3976"/>
        <path id="Trazado_114927" data-name="Trazado 114927" d="M27.523,16.332h1.734v3.047H27.523V23H23.574V19.379h-6.6l-.234-2.414L23.574,5.973V5.938h3.949Zm-7.02,0h3.07v-5.25l-.246.4Z" transform="translate(1233 2794.123)" fill="#fff"/>
      </g>
    </g>
  </g>
</svg>
