<svg xmlns="http://www.w3.org/2000/svg" xmlns:xlink="http://www.w3.org/1999/xlink" width="406.802" height="355.406" viewBox="0 0 406.802 355.406">
  <defs>
    <linearGradient id="linear-gradient" x1="0.498" y1="0.696" x2="0.346" y2="0.31" gradientUnits="objectBoundingBox">
      <stop offset="0" stop-color="#ff9085"/>
      <stop offset="1" stop-color="#fb6fbb"/>
    </linearGradient>
    <clipPath id="clip-path">
      <path id="Trazado_105732" data-name="Trazado 105732" d="M1039.391,2409.209c0,1.961,13.047,3.551,29.143,3.551s29.143-1.59,29.143-3.551v-64.128h-58.286Z" transform="translate(-1039.391 -2345.081)" fill="#ec9ca8"/>
    </clipPath>
    <clipPath id="clip-path-2">
      <path id="Trazado_105739" data-name="Trazado 105739" d="M1032.673,2239.184c10.555,30.866,27.469,78.243,28.256,77.974s-14.849-48.083-25.4-78.949-10.323-33.68-12.818-32.826S1022.118,2208.318,1032.673,2239.184Zm-8.84-28.879c-.5-1.457-.679-2.714-.4-2.808s.9,1.01,1.4,2.468.679,2.714.4,2.808S1024.332,2211.763,1023.833,2210.305Z" transform="translate(-1021.728 -2205.259)" fill="#b6bec9"/>
    </clipPath>
    <clipPath id="clip-path-3">
      <path id="Trazado_105743" data-name="Trazado 105743" d="M1407.32,2241.718a14.979,14.979,0,0,0,1.946,2.151c8.787,7.949,25.275,4.039,36.828-8.731s13.8-29.568,5.012-37.516-28.98-5.845-40.533,6.925l-122.806,141.647a1.767,1.767,0,0,0,2.3,2.65Zm11.856-30.934c8-8.839,19.408-11.545,25.489-6.043s4.527,17.126-3.469,25.965-19.409,11.544-25.49,6.043S1411.179,2219.624,1419.176,2210.784Z" transform="translate(-1287.29 -2192.945)" fill="#97a4b8"/>
    </clipPath>
    <clipPath id="clip-path-4">
      <path id="Trazado_105750" data-name="Trazado 105750" d="M1381.528,2376.148a1.767,1.767,0,0,0,3.509-.078l21.281-187.392c1.686-17.139-9.321-32.25-21.112-33.41s-22.716,11.794-24.4,28.932,6.506,31.973,18.3,33.134a15.062,15.062,0,0,0,2.9,0Zm-1.49-168.369c-8.161-.8-13.83-11.071-12.663-22.933s8.729-20.827,16.89-20.024,13.83,11.071,12.663,22.933S1388.2,2208.581,1380.038,2207.779Z" transform="translate(-1360.582 -2155.195)" fill="#a8b2bb"/>
    </clipPath>
    <linearGradient id="linear-gradient-3" x1="0.466" y1="0.617" x2="0.761" y2="1.183" gradientUnits="objectBoundingBox">
      <stop offset="0" stop-color="#ffc444"/>
      <stop offset="0.996" stop-color="#f36f56"/>
    </linearGradient>
    <linearGradient id="linear-gradient-4" x1="0.465" y1="0.617" x2="0.761" y2="1.183" xlink:href="#linear-gradient-3"/>
    <clipPath id="clip-path-5">
      <path id="Trazado_105757" data-name="Trazado 105757" d="M1074.592,2423.131a3.86,3.86,0,0,1,4.419-3.8q1.243.167,2.569.235a56.124,56.124,0,0,0,12.688-.865c2.235-.371,4.462-.865,6.793-1.427s4.747-1.211,7.228-1.893c4.952-1.354,10.186-2.855,15.842-4.1,2.818-.625,5.759-1.172,8.8-1.582a71.134,71.134,0,0,1,9.373-.719,88.758,88.758,0,0,1,18.385,1.535c11.719,2.172,22.154,5.865,31.925,9.177,4.9,1.654,9.663,3.28,14.31,4.606,1.175.367,2.314.631,3.473.954l1.728.457,1.71.392c1.121.256,2.385.577,3.121.65l1.282.221,1.333.1a39.272,39.272,0,0,0,11.766-1.108,122.086,122.086,0,0,0,13.485-4.106c4.725-1.668,9.646-3.549,14.99-5.3l2.038-.645c.708-.217,1.262-.419,2.234-.663l2.654-.676c.885-.183,1.772-.328,2.661-.483a55.965,55.965,0,0,1,10.252-.656c3.231.07,6.292.333,9.091.658,2.834.315,5.482.68,7.958.978a74.6,74.6,0,0,0,13.327.723l1.655,21.3a100.132,100.132,0,0,1-18.2-.866c-2.749-.332-5.312-.685-7.71-.949-2.427-.285-4.624-.453-6.663-.5a29.284,29.284,0,0,0-5.494.326l-1.215.211q-.57.162-1.146.3c-.3.052-.979.284-1.516.451l-1.69.534c-4.556,1.492-9.336,3.31-14.415,5.108a146.59,146.59,0,0,1-16.45,4.961,65.778,65.778,0,0,1-19.557,1.685c-.869-.069-1.736-.13-2.6-.221l-2.607-.416c-1.874-.281-3.145-.621-4.579-.944l-2.119-.49-2.064-.543c-1.359-.375-2.771-.715-4.085-1.123-5.4-1.545-10.483-3.288-15.449-4.963-9.91-3.389-19.222-6.57-28.191-8.211a62.055,62.055,0,0,0-13.032-1.114,45.088,45.088,0,0,0-6.37.483q-3.255.437-6.7,1.209c-4.587,1-9.406,2.368-14.533,3.775-2.557.7-5.206,1.413-7.949,2.08s-5.652,1.309-8.6,1.8a82.422,82.422,0,0,1-18.772,1.195q-.936-.048-1.885-.132a3.844,3.844,0,0,1-3.5-3.831Z" transform="translate(-1074.592 -2408.966)" fill="#e8624e"/>
    </clipPath>
    <clipPath id="clip-path-6">
      <rect id="Rectángulo_5594" data-name="Rectángulo 5594" width="8.497" height="26.183" transform="translate(8.497 26.183) rotate(-180)" fill="#b6bec9"/>
    </clipPath>
    <clipPath id="clip-path-7">
      <ellipse id="Elipse_5005" data-name="Elipse 5005" cx="28.652" cy="9.205" rx="28.652" ry="9.205" fill="#ff796a"/>
    </clipPath>
    <clipPath id="clip-path-8">
      <path id="Trazado_105760" data-name="Trazado 105760" d="M1347.208,2437.5c0,5.084,12.828,9.206,28.652,9.206s28.652-4.121,28.652-9.206v-19.8c0,5.084-12.828,9.206-28.652,9.206s-28.652-4.122-28.652-9.206Z" transform="translate(-1347.208 -2417.698)" fill="#e8624e"/>
    </clipPath>
    <clipPath id="clip-path-9">
      <path id="Trazado_105763" data-name="Trazado 105763" d="M1268.146,2467.507a2.6,2.6,0,0,1-1.84-2.65,32.6,32.6,0,0,1,65.076.111,2.611,2.611,0,0,1-1.759,2.624C1322.984,2469.869,1298.811,2476.668,1268.146,2467.507Z" transform="translate(-1266.301 -2434.321)" fill="#b03636"/>
    </clipPath>
    <clipPath id="clip-path-10">
      <path id="Trazado_105766" data-name="Trazado 105766" d="M1304.808,2406.562l.679,31.038a.145.145,0,0,0,.289,0l.679-31.038a.824.824,0,0,0-1.647-.036Z" transform="translate(-1304.808 -2405.72)" fill="#97a4b8"/>
    </clipPath>
    <clipPath id="clip-path-11">
      <circle id="Elipse_5007" data-name="Elipse 5007" cx="2.383" cy="2.383" r="2.383" fill="#e8624e"/>
    </clipPath>
    <clipPath id="clip-path-12">
      <path id="Trazado_105770" data-name="Trazado 105770" d="M1260.1,2443.976l29.2,10.544a.144.144,0,0,1-.092.273l-29.634-9.256a.824.824,0,0,1,.492-1.573Z" transform="translate(-1258.994 -2443.927)" fill="#97a4b8"/>
    </clipPath>
    <clipPath id="clip-path-13">
      <path id="Trazado_105773" data-name="Trazado 105773" d="M1260.265,2442.165a2.383,2.383,0,1,0,1.5,3.019A2.384,2.384,0,0,0,1260.265,2442.165Z" transform="translate(-1257.121 -2442.04)" fill="#f9dce4"/>
    </clipPath>
    <clipPath id="clip-path-14">
      <path id="Trazado_105776" data-name="Trazado 105776" d="M1319.747,2449.22a2.383,2.383,0,1,0,1.5,3.019A2.384,2.384,0,0,0,1319.747,2449.22Z" transform="translate(-1316.603 -2449.095)" fill="#f9dce4"/>
    </clipPath>
    <clipPath id="clip-path-15">
      <path id="Trazado_105779" data-name="Trazado 105779" d="M1295.078,2465.747a2.383,2.383,0,1,0,1.5,3.019A2.383,2.383,0,0,0,1295.078,2465.747Z" transform="translate(-1291.935 -2465.622)" fill="#f9dce4"/>
    </clipPath>
    <clipPath id="clip-path-16">
      <path id="Trazado_105782" data-name="Trazado 105782" d="M1357.606,2430.686l-24.045,19.64a.144.144,0,0,1-.187-.22l23.162-20.672a.824.824,0,0,1,1.1,1.229Z" transform="translate(-1333.326 -2429.224)" fill="#97a4b8"/>
    </clipPath>
    <clipPath id="clip-path-17">
      <path id="Trazado_105785" data-name="Trazado 105785" d="M1363.193,2431.541a2.383,2.383,0,1,0-3.36-.265A2.384,2.384,0,0,0,1363.193,2431.541Z" transform="translate(-1359.262 -2427.345)" fill="#f9dce4"/>
    </clipPath>
    <linearGradient id="linear-gradient-5" x1="0.229" y1="0.09" x2="1.023" y2="1.844" xlink:href="#linear-gradient-3"/>
    <linearGradient id="linear-gradient-6" x1="0.489" y1="-0.641" x2="0.501" y2="0.635" gradientUnits="objectBoundingBox">
      <stop offset="0" stop-color="#056260"/>
      <stop offset="1" stop-color="#08938f"/>
    </linearGradient>
    <linearGradient id="linear-gradient-7" y1="0.5" x2="1" y2="0.5" gradientUnits="objectBoundingBox">
      <stop offset="0.003" stop-color="#056260"/>
      <stop offset="1" stop-color="#08938f"/>
    </linearGradient>
    <linearGradient id="linear-gradient-8" x1="0.483" y1="1.389" x2="0.313" y2="12.431" xlink:href="#linear-gradient-3"/>
    <linearGradient id="linear-gradient-9" x1="0.643" y1="-1.922" x2="0.265" y2="4.528" xlink:href="#linear-gradient-3"/>
    <linearGradient id="linear-gradient-10" y1="0.5" x2="1" y2="0.5" gradientUnits="objectBoundingBox">
      <stop offset="0.004" stop-color="#6cdcd9"/>
      <stop offset="1" stop-color="#0ac4bf"/>
    </linearGradient>
    <linearGradient id="linear-gradient-11" y1="0.5" x2="1" y2="0.5" gradientUnits="objectBoundingBox">
      <stop offset="0.004" stop-color="#3bd0cc"/>
      <stop offset="1" stop-color="#0ac4bf"/>
    </linearGradient>
    <linearGradient id="linear-gradient-12" y1="0.5" x2="1" y2="0.5" gradientUnits="objectBoundingBox">
      <stop offset="0.004" stop-color="#e38ddd"/>
      <stop offset="1" stop-color="#9571f6"/>
    </linearGradient>
    <linearGradient id="linear-gradient-13" x1="0" y1="0.5" x2="1" y2="0.5" xlink:href="#linear-gradient-3"/>
    <linearGradient id="linear-gradient-14" x1="1.078" y1="1.488" x2="-0.729" y2="-2.552" xlink:href="#linear-gradient-3"/>
    <linearGradient id="linear-gradient-15" x1="0" y1="0.5" x2="1" y2="0.5" xlink:href="#linear-gradient-10"/>
    <linearGradient id="linear-gradient-17" x1="0" y1="0.5" x2="1" y2="0.5" xlink:href="#linear-gradient-10"/>
    <linearGradient id="linear-gradient-18" x1="0.06" y1="3.369" x2="0.475" y2="0.701" gradientUnits="objectBoundingBox">
      <stop offset="0.494" stop-color="#ebeff2"/>
      <stop offset="1" stop-color="#fff"/>
    </linearGradient>
    <linearGradient id="linear-gradient-19" x1="0.064" y1="4.057" x2="0.546" y2="-0.103" xlink:href="#linear-gradient-18"/>
    <linearGradient id="linear-gradient-20" y1="0.5" x2="1" y2="0.5" gradientUnits="objectBoundingBox">
      <stop offset="0" stop-color="#311944"/>
      <stop offset="1" stop-color="#a03976"/>
    </linearGradient>
  </defs>
  <g id="Grupo_54890" data-name="Grupo 54890" transform="translate(-950.907 -174.211)">
    <path id="Trazado_100598" data-name="Trazado 100598" d="M1259.719,2124.538c53.613.472,175.628,241.181,129.41,295.531s-348.007-8.517-334.841-86.158S1206.107,2124.068,1259.719,2124.538Z" transform="translate(-101.379 -1941.636)" fill="#fff" opacity="0.2" style="isolation: isolate"/>
    <path id="Trazado_100599" data-name="Trazado 100599" d="M1294.566,2117.256S1431.9,2232.338,1415.959,2411.2" transform="translate(-101.379 -1941.636)" fill="none" stroke="#fff" stroke-linecap="round" stroke-linejoin="round" stroke-width="2" stroke-dasharray="12"/>
    <g id="Grupo_54889" data-name="Grupo 54889" transform="translate(53.158 55.009)">
      <g id="Grupo_54841" data-name="Grupo 54841" transform="translate(958.346 175.62)">
        <path id="Trazado_105718" data-name="Trazado 105718" d="M1268.439,2377.71c-11.323.445-96.938,2.384-153.8-65-43.171-51.154-46.337-114.488-39.477-150.233,2.03-10.576,8.313-43.314,22.471-45.141,4.673-.6,10.415,2.134,13.084,6.481,7.662,12.484-12.923,33.517-5.9,41.135a7.736,7.736,0,0,0,8.4,1.618c6.682-3.308-.5-18.71,7.1-31.85,5.667-9.8,18.428-16.392,23.429-13.227,6.877,4.353-2.3,26.283-6.8,47.615,0,0-11.467,54.281,11.715,110.724C1176.068,2346.6,1250.856,2372.173,1268.439,2377.71Z" transform="translate(-1072.361 -2117.255)" fill="url(#linear-gradient)"/>
        <path id="Trazado_105719" data-name="Trazado 105719" d="M1180.571,2351.413c-11.271-12.151-15.76-29.876-43.08-58.952-28.695-30.538-38.546-26.739-43.554-41.81-12.641-38.038,46.907-71.894,37.507-118.419a52.728,52.728,0,0,0-2.011-7.221,31.357,31.357,0,0,0-9.13,9.71c-7.6,13.14-.414,28.542-7.1,31.85a7.735,7.735,0,0,1-8.4-1.619c-7.02-7.617,13.566-28.649,5.9-41.134-2.669-4.347-8.41-7.084-13.084-6.481-14.158,1.827-20.441,34.565-22.471,45.141-6.86,35.745-3.695,99.079,39.477,150.233,56.866,67.382,142.482,65.443,153.8,65-4.158-1.309-11.518-3.741-20.691-7.57C1210.791,2372.175,1191.363,2363.048,1180.571,2351.413Z" transform="translate(-1072.361 -2117.255)" opacity="0.3" fill="url(#linear-gradient)" style="mix-blend-mode: multiply;isolation: isolate"/>
      </g>
      <ellipse id="Elipse_5002" data-name="Elipse 5002" cx="13.59" cy="1.647" rx="13.59" ry="1.647" transform="translate(988.056 452.99)" opacity="0.18" style="isolation: isolate"/>
      <g id="Grupo_54847" data-name="Grupo 54847" transform="translate(899.333 248.103)">
        <path id="Trazado_105720" data-name="Trazado 105720" d="M1020.7,2210.794a17.44,17.44,0,0,0-7.244,3.633c-5.553,4.794-6.96,13.009-5.773,20.248s4.521,13.916,7.065,20.8,4.318,14.465,2.266,21.508c-2.86,9.815-12.5,16.508-15.41,26.308-2.252,7.575-.035,15.915,4.127,22.631s10.108,12.109,15.971,17.406l12.767,11.533" transform="translate(-1000.712 -2206.235)" fill="none" stroke="#ec9ca8" stroke-linecap="round" stroke-linejoin="round" stroke-width="3"/>
        <path id="Trazado_105721" data-name="Trazado 105721" d="M1026.478,2424.54c0-2.164,17.81-3.917,39.779-3.917s39.779,1.753,39.779,3.917-17.81,3.917-39.779,3.917S1026.478,2426.7,1026.478,2424.54Z" transform="translate(-1005.256 -2243.24)" fill="#f3b06f"/>
        <g id="Grupo_54844" data-name="Grupo 54844" transform="translate(31.858 115.164)">
          <path id="Trazado_105722" data-name="Trazado 105722" d="M1039.391,2409.209c0,1.961,13.047,3.551,29.143,3.551s29.143-1.59,29.143-3.551v-64.128h-58.286Z" transform="translate(-1039.391 -2345.081)" fill="#ec9ca8"/>
          <g id="Grupo_54843" data-name="Grupo 54843" clip-path="url(#clip-path)">
            <g id="Grupo_54842" data-name="Grupo 54842" transform="translate(-21.088 -12.714)">
              <path id="Trazado_105723" data-name="Trazado 105723" d="M1109.442,2358.322a92.973,92.973,0,0,1-41.751-22.759" transform="translate(-1023.294 -2330.689)" fill="none" stroke="#cf5e72" stroke-miterlimit="10" stroke-width="2"/>
              <path id="Trazado_105724" data-name="Trazado 105724" d="M1107.568,2367.637c-18.03-6.073-36.357-12.3-51.841-23.352a96.768,96.768,0,0,1-13.732-11.907" transform="translate(-1018.762 -2330.127)" fill="none" stroke="#cf5e72" stroke-miterlimit="10" stroke-width="2"/>
              <path id="Trazado_105725" data-name="Trazado 105725" d="M1104.317,2377.15a152.338,152.338,0,0,1-76.826-47.505" transform="translate(-1016.205 -2329.645)" fill="none" stroke="#cf5e72" stroke-miterlimit="10" stroke-width="2"/>
              <path id="Trazado_105726" data-name="Trazado 105726" d="M1107.108,2390.844a180.122,180.122,0,0,1-73.914-37.857c-3.211-2.744-6.593-6.218-6.32-10.433" transform="translate(-1016.093 -2331.922)" fill="none" stroke="#cf5e72" stroke-miterlimit="10" stroke-width="2"/>
              <path id="Trazado_105727" data-name="Trazado 105727" d="M1105.358,2400.736a176.782,176.782,0,0,1-76.574-34.064c-4.41-3.416-8.872-7.362-10.42-12.72" transform="translate(-1014.595 -2333.932)" fill="none" stroke="#cf5e72" stroke-miterlimit="10" stroke-width="2"/>
              <path id="Trazado_105728" data-name="Trazado 105728" d="M1100.829,2410.523a128.264,128.264,0,0,1-78.6-44.507" transform="translate(-1015.277 -2336.059)" fill="none" stroke="#cf5e72" stroke-miterlimit="10" stroke-width="2"/>
              <path id="Trazado_105729" data-name="Trazado 105729" d="M1096.293,2418.9a120.364,120.364,0,0,1-66.458-32.3" transform="translate(-1016.618 -2339.689)" fill="none" stroke="#cf5e72" stroke-miterlimit="10" stroke-width="2"/>
              <path id="Trazado_105730" data-name="Trazado 105730" d="M1077.225,2422.067c-11.1-3.454-22.265-6.938-32.559-12.333s-19.775-12.871-25.8-22.809" transform="translate(-1014.683 -2339.747)" fill="none" stroke="#cf5e72" stroke-miterlimit="10" stroke-width="2"/>
              <path id="Trazado_105731" data-name="Trazado 105731" d="M1053.76,2421.93a74.172,74.172,0,0,1-39.971-29.5" transform="translate(-1013.788 -2340.717)" fill="none" stroke="#cf5e72" stroke-miterlimit="10" stroke-width="2"/>
            </g>
          </g>
        </g>
        <path id="Trazado_105733" data-name="Trazado 105733" d="M1026.478,2338.976c0-2.164,17.81-3.917,39.779-3.917s39.779,1.753,39.779,3.917-17.81,3.918-39.779,3.918S1026.478,2341.14,1026.478,2338.976Z" transform="translate(-1005.256 -2228.15)" fill="#f3b06f"/>
        <path id="Trazado_105734" data-name="Trazado 105734" d="M1026.478,2344.572c0,2.164,17.81,3.918,39.779,3.918s39.779-1.754,39.779-3.918v-4.757c0,2.164-17.81,3.918-39.779,3.918s-39.779-1.754-39.779-3.918Z" transform="translate(-1005.256 -2228.989)" fill="#dd9656"/>
        <path id="Trazado_105735" data-name="Trazado 105735" d="M1026.478,2430.135c0,2.164,17.81,3.918,39.779,3.918s39.779-1.754,39.779-3.918v-4.757c0,2.164-17.81,3.917-39.779,3.917s-39.779-1.754-39.779-3.917Z" transform="translate(-1005.256 -2244.078)" fill="#dd9656"/>
        <path id="Trazado_105736" data-name="Trazado 105736" d="M1056.276,2339.494c0-.828,6.821-1.5,15.236-1.5s15.236.672,15.236,1.5-6.821,1.5-15.236,1.5S1056.276,2340.323,1056.276,2339.494Z" transform="translate(-1010.511 -2228.667)" fill="#dd9656"/>
        <g id="Grupo_54846" data-name="Grupo 54846" transform="translate(17.31 0)">
          <path id="Trazado_105737" data-name="Trazado 105737" d="M1032.673,2239.184c10.555,30.866,27.469,78.243,28.256,77.974s-14.849-48.083-25.4-78.949-10.323-33.68-12.818-32.826S1022.118,2208.318,1032.673,2239.184Zm-8.84-28.879c-.5-1.457-.679-2.714-.4-2.808s.9,1.01,1.4,2.468.679,2.714.4,2.808S1024.332,2211.763,1023.833,2210.305Z" transform="translate(-1021.728 -2205.259)" fill="#b6bec9"/>
          <g id="Grupo_54845" data-name="Grupo 54845" clip-path="url(#clip-path-2)">
            <path id="Trazado_105738" data-name="Trazado 105738" d="M1033.132,2239.464c10.555,30.866,27.469,78.243,28.256,77.973s-14.85-48.083-25.4-78.949-10.323-33.68-12.818-32.826S1022.578,2208.6,1033.132,2239.464Zm-8.84-28.879c-.5-1.456-.678-2.714-.4-2.808s.9,1.01,1.4,2.467.679,2.714.4,2.808S1024.791,2212.043,1024.292,2210.586Z" transform="translate(-1021.809 -2205.308)" fill="#b6bec9" stroke="#6f7c93" stroke-miterlimit="10" stroke-width="1"/>
          </g>
        </g>
        <path id="Trazado_105740" data-name="Trazado 105740" d="M1136.551,2206.481a116.3,116.3,0,0,1-84.913,7.587c-8.439-2.517-17.427-6.089-26.382-4.088" transform="translate(-1005.04 -2205.475)" fill="none" stroke="#ec9ca8" stroke-linecap="round" stroke-linejoin="round" stroke-width="3"/>
      </g>
      <g id="Grupo_54853" data-name="Grupo 54853" transform="translate(1135.372 206.869)">
        <g id="Grupo_54849" data-name="Grupo 54849" transform="translate(0 31.092)">
          <path id="Trazado_105741" data-name="Trazado 105741" d="M1407.32,2241.718a14.979,14.979,0,0,0,1.946,2.151c8.787,7.949,25.275,4.039,36.828-8.731s13.8-29.568,5.012-37.516-28.98-5.845-40.533,6.925l-122.806,141.647a1.767,1.767,0,0,0,2.3,2.65Zm11.856-30.934c8-8.839,19.408-11.545,25.489-6.043s4.527,17.126-3.469,25.965-19.409,11.544-25.49,6.043S1411.179,2219.624,1419.176,2210.784Z" transform="translate(-1287.29 -2192.945)" fill="#97a4b8"/>
          <g id="Grupo_54848" data-name="Grupo 54848" clip-path="url(#clip-path-3)">
            <path id="Trazado_105742" data-name="Trazado 105742" d="M1404.4,2239.818a15,15,0,0,0,1.946,2.151c8.787,7.949,25.275,4.039,36.828-8.731s13.8-29.568,5.012-37.516-28.98-5.845-40.533,6.925l-122.806,141.647a1.767,1.767,0,0,0,2.3,2.65Zm11.855-30.934c8-8.839,19.409-11.545,25.49-6.043s4.528,17.126-3.468,25.965-19.409,11.544-25.49,6.043S1408.261,2217.724,1416.257,2208.884Z" transform="translate(-1286.775 -2192.61)" fill="#a8b2bb"/>
            <line id="Línea_355" data-name="Línea 355" x1="4.794" y2="42.875" transform="translate(98.43 28.155)" fill="none" stroke="#76849a" stroke-miterlimit="10" stroke-width="1"/>
            <line id="Línea_356" data-name="Línea 356" x1="1.125" y2="42.175" transform="translate(80.732 44.495)" fill="none" stroke="#76849a" stroke-miterlimit="10" stroke-width="1"/>
          </g>
        </g>
        <g id="Grupo_54852" data-name="Grupo 54852" transform="translate(60.367 0)">
          <path id="Trazado_105744" data-name="Trazado 105744" d="M1381.528,2376.148a1.767,1.767,0,0,0,3.509-.078l21.281-187.392c1.686-17.139-9.321-32.25-21.112-33.41s-22.716,11.794-24.4,28.932,6.506,31.973,18.3,33.134a15.062,15.062,0,0,0,2.9,0Zm-1.49-168.369c-8.161-.8-13.83-11.071-12.663-22.933s8.729-20.827,16.89-20.024,13.83,11.071,12.663,22.933S1388.2,2208.581,1380.038,2207.779Z" transform="translate(-1360.582 -2155.195)" fill="#a8b2bb"/>
          <g id="Grupo_54851" data-name="Grupo 54851" clip-path="url(#clip-path-4)">
            <path id="Trazado_105745" data-name="Trazado 105745" d="M1379.317,2376.52a1.768,1.768,0,0,0,3.51-.077l21.28-187.392c1.687-17.139-9.32-32.251-21.112-33.41s-22.717,11.793-24.4,28.932,6.505,31.973,18.3,33.134a15.012,15.012,0,0,0,2.9-.006Zm-1.489-168.369c-8.161-.8-13.83-11.07-12.663-22.932s8.728-20.828,16.889-20.024,13.831,11.07,12.664,22.932S1385.989,2208.954,1377.828,2208.151Z" transform="translate(-1360.192 -2155.261)" fill="#a8b2bb"/>
            <path id="Trazado_105746" data-name="Trazado 105746" d="M1379.283,2375.87a1.767,1.767,0,0,0,3.509-.077l21.281-187.391c1.686-17.139-9.321-32.251-21.112-33.41s-22.716,11.793-24.4,28.932,6.506,31.973,18.3,33.133a14.981,14.981,0,0,0,2.9-.005Zm-1.489-168.369c-8.161-.8-13.831-11.07-12.664-22.932s8.729-20.827,16.89-20.024,13.83,11.07,12.663,22.932S1385.955,2208.3,1377.794,2207.5Z" transform="translate(-1360.186 -2155.146)" fill="#b6bec9"/>
            <g id="Grupo_54850" data-name="Grupo 54850" transform="translate(-6.852 55.836)" style="mix-blend-mode: soft-light;isolation: isolate">
              <path id="Trazado_105747" data-name="Trazado 105747" d="M1361.24,2309.419a437.742,437.742,0,0,1,61.015-30.427" transform="translate(-1353.846 -2232.863)" fill="none" stroke="#fff" stroke-miterlimit="10" stroke-width="4" opacity="0.5" style="mix-blend-mode: color-dodge;isolation: isolate"/>
              <path id="Trazado_105748" data-name="Trazado 105748" d="M1355.753,2282.529q35.116-18.71,71.974-33.874" transform="translate(-1352.878 -2227.513)" fill="none" stroke="#fff" stroke-miterlimit="10" stroke-width="4" opacity="0.5" style="mix-blend-mode: color-dodge;isolation: isolate"/>
              <path id="Trazado_105749" data-name="Trazado 105749" d="M1352.263,2259.386a490.842,490.842,0,0,1,82.919-36.4" transform="translate(-1352.263 -2222.986)" fill="none" stroke="#fff" stroke-miterlimit="10" stroke-width="4" opacity="0.5" style="mix-blend-mode: color-dodge;isolation: isolate"/>
            </g>
          </g>
        </g>
        <path id="Trazado_105751" data-name="Trazado 105751" d="M1400.829,2267.823a4.3,4.3,0,1,0-4.7,3.859A4.3,4.3,0,0,0,1400.829,2267.823Z" transform="translate(-1305.8 -2174.225)" fill="#8893aa"/>
      </g>
      <g id="Grupo_54854" data-name="Grupo 54854" transform="translate(1045.177 239.935)">
        <path id="Trazado_105752" data-name="Trazado 105752" d="M1296.478,2385.813c2.769-4.841-28.369-17.509-49.882-51.772-8.189-13.042-25.761-46.376-25.731-88.037.012-17.388,3.094-38.869-3.745-41.2-2.734-.934-7.41,1.09-9.447,4.156-1.795,2.7-.651,4.873-2.2,11.218-.168.688-1.81,7.408-3.09,7.3-1.629-.138.349-11.083-5.29-22.3-1.306-2.6-5.094-10.146-8.314-9.825-7.134.711-14.608,38.132-9.069,72.556,7.652,47.563,39.822,87.387,77.091,106.946C1274.1,2383.934,1294.314,2389.6,1296.478,2385.813Z" transform="translate(-1177.784 -2195.342)" fill="url(#linear-gradient-3)"/>
        <path id="Trazado_105753" data-name="Trazado 105753" d="M1233.929,2337.22c-25.652-27.34-44.648-48.135-41.569-71.8,1.75-13.448,9.063-15.8,15.116-30.232a69.176,69.176,0,0,0,5.043-29.963,10.587,10.587,0,0,0-4.847,3.732c-1.795,2.7-.651,4.873-2.2,11.218-.168.688-1.81,7.408-3.09,7.3-1.629-.138.349-11.083-5.29-22.3-1.306-2.6-5.094-10.146-8.314-9.825-7.134.711-14.608,38.132-9.069,72.556,7.652,47.563,39.822,87.387,77.091,106.946,17.1,8.974,37.04,14.607,39.593,11.086a89.9,89.9,0,0,1-15.6-6.4C1266.695,2372.142,1255.773,2360.5,1233.929,2337.22Z" transform="translate(-1177.784 -2195.342)" opacity="0.3" fill="url(#linear-gradient-4)" style="mix-blend-mode: multiply;isolation: isolate"/>
      </g>
      <g id="Grupo_54863" data-name="Grupo 54863" transform="translate(960.184 413.873)">
        <g id="Grupo_54858" data-name="Grupo 54858" transform="translate(0 2.013)">
          <path id="Trazado_105754" data-name="Trazado 105754" d="M1074.592,2423.131a3.86,3.86,0,0,1,4.419-3.8q1.243.167,2.569.235a56.124,56.124,0,0,0,12.688-.865c2.235-.371,4.462-.865,6.793-1.427s4.747-1.211,7.228-1.893c4.952-1.354,10.186-2.855,15.842-4.1,2.818-.625,5.759-1.172,8.8-1.582a71.134,71.134,0,0,1,9.373-.719,88.758,88.758,0,0,1,18.385,1.535c11.719,2.172,22.154,5.865,31.925,9.177,4.9,1.654,9.663,3.28,14.31,4.606,1.175.367,2.314.631,3.473.954l1.728.457,1.71.392c1.121.256,2.385.577,3.121.65l1.282.221,1.333.1a39.272,39.272,0,0,0,11.766-1.108,122.086,122.086,0,0,0,13.485-4.106c4.725-1.668,9.646-3.549,14.99-5.3l2.038-.645c.708-.217,1.262-.419,2.234-.663l2.654-.676c.885-.183,1.772-.328,2.661-.483a55.965,55.965,0,0,1,10.252-.656c3.231.07,6.292.333,9.091.658,2.834.315,5.482.68,7.958.978a74.6,74.6,0,0,0,13.327.723l1.655,21.3a100.132,100.132,0,0,1-18.2-.866c-2.749-.332-5.312-.685-7.71-.949-2.427-.285-4.624-.453-6.663-.5a29.284,29.284,0,0,0-5.494.326l-1.215.211q-.57.162-1.146.3c-.3.052-.979.284-1.516.451l-1.69.534c-4.556,1.492-9.336,3.31-14.415,5.108a146.59,146.59,0,0,1-16.45,4.961,65.778,65.778,0,0,1-19.557,1.685c-.869-.069-1.736-.13-2.6-.221l-2.607-.416c-1.874-.281-3.145-.621-4.579-.944l-2.119-.49-2.064-.543c-1.359-.375-2.771-.715-4.085-1.123-5.4-1.545-10.483-3.288-15.449-4.963-9.91-3.389-19.222-6.57-28.191-8.211a62.055,62.055,0,0,0-13.032-1.114,45.088,45.088,0,0,0-6.37.483q-3.255.437-6.7,1.209c-4.587,1-9.406,2.368-14.533,3.775-2.557.7-5.206,1.413-7.949,2.08s-5.652,1.309-8.6,1.8a82.422,82.422,0,0,1-18.772,1.195q-.936-.048-1.885-.132a3.844,3.844,0,0,1-3.5-3.831Z" transform="translate(-1074.592 -2408.966)" fill="#e8624e"/>
          <g id="Grupo_54857" data-name="Grupo 54857" clip-path="url(#clip-path-5)">
            <path id="Trazado_105755" data-name="Trazado 105755" d="M1343.522,2440.5l-9.537-27.569,28.611.31,3.121,33.145Z" transform="translate(-1120.337 -2409.664)" fill="#9d9b9b" opacity="0.3" style="mix-blend-mode: color-burn;isolation: isolate"/>
            <g id="Grupo_54856" data-name="Grupo 54856" transform="translate(-1.497 9.158)">
              <rect id="Rectángulo_5592" data-name="Rectángulo 5592" width="8.497" height="26.183" transform="translate(8.497 26.183) rotate(-180)" fill="#b6bec9"/>
              <g id="Grupo_54855" data-name="Grupo 54855" clip-path="url(#clip-path-6)">
                <rect id="Rectángulo_5593" data-name="Rectángulo 5593" width="8.496" height="26.183" transform="translate(15.909 26.183) rotate(-180)" fill="#9d9b9b" style="mix-blend-mode: color-burn;isolation: isolate"/>
                <circle id="Elipse_5003" data-name="Elipse 5003" cx="0.715" cy="0.715" r="0.715" transform="translate(3.988 7.564)" fill="#9d9b9b" style="mix-blend-mode: color-burn;isolation: isolate"/>
                <path id="Trazado_105756" data-name="Trazado 105756" d="M1077.169,2439.365a.78.78,0,1,1,.781.78A.781.781,0,0,1,1077.169,2439.365Z" transform="translate(-1073.55 -2423.347)" fill="#9d9b9b" style="mix-blend-mode: color-burn;isolation: isolate"/>
              </g>
            </g>
            <line id="Línea_357" data-name="Línea 357" y2="28.871" transform="translate(201.076 1.182)" fill="none" stroke="#8d241a" stroke-linecap="round" stroke-linejoin="round" stroke-width="0.5"/>
            <line id="Línea_358" data-name="Línea 358" y2="53.58" transform="translate(178.968 -11.173)" fill="none" stroke="#8d241a" stroke-linecap="round" stroke-linejoin="round" stroke-width="0.5"/>
            <line id="Línea_359" data-name="Línea 359" y2="53.58" transform="translate(156.859 -11.173)" fill="none" stroke="#8d241a" stroke-linecap="round" stroke-linejoin="round" stroke-width="0.5"/>
            <line id="Línea_360" data-name="Línea 360" y2="53.58" transform="translate(134.751 -11.173)" fill="none" stroke="#8d241a" stroke-linecap="round" stroke-linejoin="round" stroke-width="0.5"/>
            <line id="Línea_361" data-name="Línea 361" y2="53.58" transform="translate(112.643 -12.213)" fill="none" stroke="#8d241a" stroke-linecap="round" stroke-linejoin="round" stroke-width="0.5"/>
            <line id="Línea_362" data-name="Línea 362" y2="53.58" transform="translate(90.534 -12.213)" fill="none" stroke="#8d241a" stroke-linecap="round" stroke-linejoin="round" stroke-width="0.5"/>
            <line id="Línea_363" data-name="Línea 363" y2="53.58" transform="translate(68.426 -12.213)" fill="none" stroke="#8d241a" stroke-linecap="round" stroke-linejoin="round" stroke-width="0.5"/>
            <line id="Línea_364" data-name="Línea 364" y2="53.58" transform="translate(46.318 -12.213)" fill="none" stroke="#8d241a" stroke-linecap="round" stroke-linejoin="round" stroke-width="0.5"/>
            <line id="Línea_365" data-name="Línea 365" y2="53.58" transform="translate(24.21 -12.213)" fill="none" stroke="#8d241a" stroke-linecap="round" stroke-linejoin="round" stroke-width="0.5"/>
          </g>
        </g>
        <g id="Grupo_54860" data-name="Grupo 54860" transform="translate(224.539 0)">
          <ellipse id="Elipse_5004" data-name="Elipse 5004" cx="28.652" cy="9.205" rx="28.652" ry="9.205" fill="#ff796a"/>
          <g id="Grupo_54859" data-name="Grupo 54859" clip-path="url(#clip-path-7)">
            <path id="Trazado_105758" data-name="Trazado 105758" d="M1376.6,2415.593l-.118-.01a.949.949,0,0,1-.094-.029.159.159,0,0,1-.048-.043.07.07,0,0,1,.015-.052.325.325,0,0,1,.086-.052,1.062,1.062,0,0,1,.158-.045c.054-.011.149-.024.221-.03s.183-.008.268-.006a2.8,2.8,0,0,1,.289.021,2.765,2.765,0,0,1,.282.052,1.507,1.507,0,0,1,.24.083.624.624,0,0,1,.169.11.213.213,0,0,1,.067.129.2.2,0,0,1-.052.139.638.638,0,0,1-.186.138,1.84,1.84,0,0,1-.319.125,3.848,3.848,0,0,1-.44.1c-.161.026-.35.048-.539.061s-.4.018-.6.013-.42-.017-.622-.04a5.935,5.935,0,0,1-.594-.094,3.807,3.807,0,0,1-.514-.148,1.844,1.844,0,0,1-.387-.194.667.667,0,0,1-.218-.228.31.31,0,0,1-.018-.249.6.6,0,0,1,.2-.251,1.866,1.866,0,0,1,.419-.234,4.376,4.376,0,0,1,.623-.2,7.432,7.432,0,0,1,.795-.145c.287-.036.6-.064.918-.076s.654-.012.982,0,.661.043.976.086a8.438,8.438,0,0,1,.9.169,4.958,4.958,0,0,1,.748.243,2.281,2.281,0,0,1,.534.3.794.794,0,0,1,.269.348.461.461,0,0,1-.032.367,1.056,1.056,0,0,1-.346.363,3.1,3.1,0,0,1-.652.329,6.841,6.841,0,0,1-.927.271,11.211,11.211,0,0,1-1.149.19c-.411.048-.851.08-1.3.092s-.909.008-1.362-.018-.9-.068-1.33-.132a10.893,10.893,0,0,1-1.2-.241,6.363,6.363,0,0,1-.981-.339,2.778,2.778,0,0,1-.68-.416.958.958,0,0,1-.318-.467.633.633,0,0,1,.082-.488,1.544,1.544,0,0,1,.493-.473,4.358,4.358,0,0,1,.885-.425,9.382,9.382,0,0,1,1.231-.344,14.924,14.924,0,0,1,1.5-.236c.536-.059,1.1-.1,1.679-.108s1.165,0,1.742.033,1.146.1,1.683.178a13.549,13.549,0,0,1,1.506.315,7.718,7.718,0,0,1,1.215.434,3.282,3.282,0,0,1,.827.528,1.129,1.129,0,0,1,.368.586.8.8,0,0,1-.132.606,2.051,2.051,0,0,1-.64.584,5.7,5.7,0,0,1-1.119.521,11.817,11.817,0,0,1-1.535.417c-.573.118-1.2.214-1.857.282s-1.354.111-2.058.124-1.42,0-2.122-.05-1.389-.12-2.038-.223a16.23,16.23,0,0,1-1.81-.388,9,9,0,0,1-1.448-.53,3.741,3.741,0,0,1-.974-.639,1.3,1.3,0,0,1-.418-.7.979.979,0,0,1,.182-.726,2.551,2.551,0,0,1,.786-.7,7.016,7.016,0,0,1,1.353-.615,14.223,14.223,0,0,1,1.839-.491c.684-.138,1.427-.25,2.211-.329s1.605-.127,2.438-.139,1.676.008,2.5.065,1.633.146,2.393.269a18.586,18.586,0,0,1,2.113.461,10.214,10.214,0,0,1,1.681.625,4.255,4.255,0,0,1,1.12.749,1.48,1.48,0,0,1,.469.825,1.157,1.157,0,0,1-.232.844,3.043,3.043,0,0,1-.932.807,8.388,8.388,0,0,1-1.586.711,16.829,16.829,0,0,1-2.143.564c-.794.158-1.657.286-2.565.375s-1.857.143-2.818.155-1.932-.014-2.882-.081-1.875-.172-2.746-.315a21.067,21.067,0,0,1-2.417-.534,11.59,11.59,0,0,1-1.914-.721,4.782,4.782,0,0,1-1.267-.861,1.658,1.658,0,0,1-.518-.944,1.337,1.337,0,0,1,.282-.965,3.561,3.561,0,0,1,1.08-.917,9.615,9.615,0,0,1,1.819-.806,19.241,19.241,0,0,1,2.448-.637c.905-.179,1.887-.321,2.919-.421s2.108-.158,3.2-.17,2.188.019,3.261.1,2.118.2,3.1.362a23.631,23.631,0,0,1,2.721.608,12.878,12.878,0,0,1,2.147.815,5.3,5.3,0,0,1,1.414.972,1.844,1.844,0,0,1,.568,1.064,1.523,1.523,0,0,1-.332,1.083,4.055,4.055,0,0,1-1.227,1.029,10.889,10.889,0,0,1-2.052.9,21.79,21.79,0,0,1-2.751.711c-1.017.2-2.118.357-3.273.467s-2.361.174-3.579.186-2.444-.024-3.641-.112-2.362-.224-3.455-.408a26.1,26.1,0,0,1-3.025-.681,14.263,14.263,0,0,1-2.381-.911,5.823,5.823,0,0,1-1.561-1.083,2.026,2.026,0,0,1-.618-1.183,1.7,1.7,0,0,1,.382-1.2,4.58,4.58,0,0,1,1.372-1.14,12.279,12.279,0,0,1,2.286-1,24.576,24.576,0,0,1,3.056-.784c1.128-.218,2.347-.392,3.627-.512s2.612-.189,3.958-.2,2.7.029,4.022.128,2.6.25,3.809.454a28.7,28.7,0,0,1,3.33.754,15.578,15.578,0,0,1,2.615,1.007,6.315,6.315,0,0,1,1.707,1.194,2.207,2.207,0,0,1,.668,1.3,1.886,1.886,0,0,1-.432,1.322,5.1,5.1,0,0,1-1.521,1.251,13.6,13.6,0,0,1-2.519,1.093,27.025,27.025,0,0,1-3.36.856c-1.239.24-2.577.428-3.981.56s-2.863.2-4.338.217-2.956-.035-4.4-.143-2.847-.276-4.163-.5a31.28,31.28,0,0,1-3.634-.827,16.884,16.884,0,0,1-2.847-1.1,6.806,6.806,0,0,1-1.854-1.306,2.386,2.386,0,0,1-.718-1.421,2.063,2.063,0,0,1,.482-1.441,5.6,5.6,0,0,1,1.666-1.363,14.865,14.865,0,0,1,2.752-1.188,29.556,29.556,0,0,1,3.664-.931c1.35-.259,2.807-.463,4.336-.6s3.114-.221,4.718-.234,3.212.04,4.782.16,3.09.3,4.517.546a33.643,33.643,0,0,1,3.938.9,18.237,18.237,0,0,1,3.081,1.2,7.328,7.328,0,0,1,2,1.417,2.567,2.567,0,0,1,.768,1.541,2.244,2.244,0,0,1-.532,1.56,6.108,6.108,0,0,1-1.813,1.474,16.225,16.225,0,0,1-2.986,1.284,31.968,31.968,0,0,1-3.968,1c-1.461.28-3.038.5-4.69.651s-3.366.236-5.1.249-3.469-.045-5.162-.175-3.333-.328-4.871-.592a36.322,36.322,0,0,1-4.242-.974,19.531,19.531,0,0,1-3.314-1.293,7.866,7.866,0,0,1-2.147-1.528,2.761,2.761,0,0,1-.819-1.66,2.433,2.433,0,0,1,.582-1.68,6.637,6.637,0,0,1,1.96-1.584,17.529,17.529,0,0,1,3.219-1.379,34.549,34.549,0,0,1,4.271-1.077c1.572-.3,3.268-.534,5.044-.7s3.618-.252,5.478-.265,3.724.051,5.542.191,3.576.353,5.225.638a38.755,38.755,0,0,1,4.546,1.047,20.824,20.824,0,0,1,3.548,1.389,8.365,8.365,0,0,1,2.294,1.638,2.938,2.938,0,0,1,.868,1.78,2.612,2.612,0,0,1-.632,1.8,7.145,7.145,0,0,1-2.107,1.7,18.858,18.858,0,0,1-3.452,1.474,37.08,37.08,0,0,1-4.576,1.151c-1.684.32-3.5.57-5.4.743s-3.87.268-5.858.28-3.98-.056-5.921-.206-3.819-.38-5.579-.685a41.284,41.284,0,0,1-4.85-1.12,22.167,22.167,0,0,1-3.781-1.484,8.868,8.868,0,0,1-2.44-1.749,3.122,3.122,0,0,1-.919-1.9,2.8,2.8,0,0,1,.683-1.919,7.66,7.66,0,0,1,2.253-1.806,20.2,20.2,0,0,1,3.686-1.571,39.614,39.614,0,0,1,4.88-1.223c1.795-.339,3.728-.606,5.752-.789s4.121-.284,6.238-.3,4.237.062,6.3.222,4.062.405,5.934.73a44.045,44.045,0,0,1,5.154,1.193,23.538,23.538,0,0,1,4.014,1.58,9.377,9.377,0,0,1,2.587,1.861,3.3,3.3,0,0,1,.969,2.018,2.979,2.979,0,0,1-.732,2.038,8.165,8.165,0,0,1-2.4,1.917,21.459,21.459,0,0,1-3.919,1.666,42.165,42.165,0,0,1-5.184,1.3c-1.906.36-3.958.642-6.106.835s-4.373.3-6.618.312-4.492-.067-6.682-.238-4.3-.432-6.288-.777a46.181,46.181,0,0,1-5.458-1.267,24.788,24.788,0,0,1-4.248-1.674,9.914,9.914,0,0,1-2.734-1.973,3.488,3.488,0,0,1-1.019-2.136,3.168,3.168,0,0,1,.782-2.157,8.692,8.692,0,0,1,2.547-2.03,22.817,22.817,0,0,1,4.152-1.761,44.57,44.57,0,0,1,5.488-1.37c2.017-.38,4.188-.677,6.46-.881s4.625-.316,7-.328,4.748.072,7.062.254,4.547.457,6.641.822a48.942,48.942,0,0,1,5.763,1.34,26.168,26.168,0,0,1,4.481,1.771,10.439,10.439,0,0,1,2.88,2.083,3.68,3.68,0,0,1,1.069,2.257,3.347,3.347,0,0,1-.833,2.276,9.21,9.21,0,0,1-2.693,2.141,24.112,24.112,0,0,1-4.385,1.856,47.245,47.245,0,0,1-5.793,1.443c-2.127.4-4.418.713-6.814.927s-4.877.33-7.378.344-5-.077-7.442-.27-4.791-.483-7-.868a51.481,51.481,0,0,1-6.067-1.414,27.4,27.4,0,0,1-4.714-1.866,10.935,10.935,0,0,1-3.028-2.194,3.861,3.861,0,0,1-1.118-2.375" transform="translate(-1347.213 -2406.618)" fill="none" stroke="#b03829" stroke-linecap="round" stroke-linejoin="round" stroke-width="0.5"/>
          </g>
        </g>
        <g id="Grupo_54862" data-name="Grupo 54862" transform="translate(224.539 9.205)">
          <path id="Trazado_105759" data-name="Trazado 105759" d="M1347.208,2437.5c0,5.084,12.828,9.206,28.652,9.206s28.652-4.121,28.652-9.206v-19.8c0,5.084-12.828,9.206-28.652,9.206s-28.652-4.122-28.652-9.206Z" transform="translate(-1347.208 -2417.698)" fill="#e8624e"/>
          <g id="Grupo_54861" data-name="Grupo 54861" clip-path="url(#clip-path-8)">
            <line id="Línea_366" data-name="Línea 366" y2="53.58" transform="translate(39.706 -11.765)" fill="none" stroke="#8d241a" stroke-linecap="round" stroke-linejoin="round" stroke-width="0.5"/>
            <line id="Línea_367" data-name="Línea 367" y2="53.58" transform="translate(17.598 -11.765)" fill="none" stroke="#8d241a" stroke-linecap="round" stroke-linejoin="round" stroke-width="0.5"/>
          </g>
        </g>
      </g>
      <g id="Grupo_54885" data-name="Grupo 54885" transform="translate(1110.523 411.671)">
        <g id="Grupo_54865" data-name="Grupo 54865" transform="translate(7.561 25.098)">
          <path id="Trazado_105761" data-name="Trazado 105761" d="M1268.146,2467.507a2.6,2.6,0,0,1-1.84-2.65,32.6,32.6,0,0,1,65.076.111,2.611,2.611,0,0,1-1.759,2.624C1322.984,2469.869,1298.811,2476.668,1268.146,2467.507Z" transform="translate(-1266.301 -2434.321)" fill="#b03636"/>
          <g id="Grupo_54864" data-name="Grupo 54864" clip-path="url(#clip-path-9)">
            <path id="Trazado_105762" data-name="Trazado 105762" d="M1328.709,2450.688c-.39,1.623-1.874,2.713-3.281,3.611a77.061,77.061,0,0,1-44.81,11.9c-5.248-.254-10.471-1.049-15.726-1.027-3.064.013-6.587.572-8.188,3.184-1.2,1.949-.909,4.465-.217,6.644a13.25,13.25,0,0,0,3.49,5.85c2.237,2.043,5.28,2.919,8.231,3.6,17.895,4.165,36.747,3.652,54.632-.558a58.063,58.063,0,0,0,12.925-4.377,11.924,11.924,0,0,0,4.709-3.684,11.647,11.647,0,0,0,1.6-6.187c.263-7.749-2.89-16.146-9.719-19.818a2.173,2.173,0,0,0-2.162-.24" transform="translate(-1264.464 -2436.977)" fill="#9d9b9b" opacity="0.3" style="mix-blend-mode: color-burn;isolation: isolate"/>
          </g>
        </g>
        <g id="Grupo_54870" data-name="Grupo 54870" transform="translate(37.718)">
          <g id="Grupo_54867" data-name="Grupo 54867" transform="translate(1.56 1.541)">
            <path id="Trazado_105764" data-name="Trazado 105764" d="M1304.808,2406.562l.679,31.038a.145.145,0,0,0,.289,0l.679-31.038a.824.824,0,0,0-1.647-.036Z" transform="translate(-1304.808 -2405.72)" fill="#97a4b8"/>
            <g id="Grupo_54866" data-name="Grupo 54866" clip-path="url(#clip-path-10)">
              <path id="Trazado_105765" data-name="Trazado 105765" d="M1308.219,2408.8a9.21,9.21,0,0,1-5.526,1.3,17.586,17.586,0,0,1-5.57-1.415c-1.7-.7-3.532-1.771-3.882-3.574" transform="translate(-1302.768 -2405.612)" fill="none" stroke="#9d9b9b" stroke-miterlimit="10" stroke-width="1" opacity="0.3" style="mix-blend-mode: color-burn;isolation: isolate"/>
            </g>
          </g>
          <g id="Grupo_54869" data-name="Grupo 54869">
            <circle id="Elipse_5006" data-name="Elipse 5006" cx="2.383" cy="2.383" r="2.383" fill="#e8624e"/>
            <g id="Grupo_54868" data-name="Grupo 54868" clip-path="url(#clip-path-11)">
              <path id="Trazado_105767" data-name="Trazado 105767" d="M1310.6,2407.5c-2.375,1.3-5.013,2.643-7.663,2.091a11.556,11.556,0,0,1-3.743-1.8" transform="translate(-1302.259 -2404.492)" fill="none" stroke="#9d9b9b" stroke-miterlimit="10" stroke-width="1" style="mix-blend-mode: color-burn;isolation: isolate"/>
            </g>
          </g>
        </g>
        <g id="Grupo_54875" data-name="Grupo 54875" transform="translate(0 31.456)">
          <g id="Grupo_54872" data-name="Grupo 54872" transform="translate(1.543 1.554)">
            <path id="Trazado_105768" data-name="Trazado 105768" d="M1260.1,2443.976l29.2,10.544a.144.144,0,0,1-.092.273l-29.634-9.256a.824.824,0,0,1,.492-1.573Z" transform="translate(-1258.994 -2443.927)" fill="#97a4b8"/>
            <g id="Grupo_54871" data-name="Grupo 54871" clip-path="url(#clip-path-12)">
              <path id="Trazado_105769" data-name="Trazado 105769" d="M1264.049,2442.315c-1.121,1.807-1.394,4.043-2.53,5.841a3.72,3.72,0,0,1-1.588,1.492c-1.074.463-2.34.133-3.456.482" transform="translate(-1258.55 -2443.642)" fill="none" stroke="#9d9b9b" stroke-miterlimit="10" stroke-width="1" opacity="0.3" style="mix-blend-mode: color-burn;isolation: isolate"/>
            </g>
          </g>
          <g id="Grupo_54874" data-name="Grupo 54874">
            <path id="Trazado_105771" data-name="Trazado 105771" d="M1260.265,2442.165a2.383,2.383,0,1,0,1.5,3.019A2.384,2.384,0,0,0,1260.265,2442.165Z" transform="translate(-1257.121 -2442.04)" fill="#f9dce4"/>
            <g id="Grupo_54873" data-name="Grupo 54873" clip-path="url(#clip-path-13)">
              <path id="Trazado_105772" data-name="Trazado 105772" d="M1261.477,2442.4a10.537,10.537,0,0,1-2.538,4.1,6.6,6.6,0,0,1-4.36,1.906,9.388,9.388,0,0,1-5.214-1.961" transform="translate(-1255.753 -2442.104)" fill="none" stroke="#9d9b9b" stroke-miterlimit="10" stroke-width="1" style="mix-blend-mode: color-burn;isolation: isolate"/>
            </g>
          </g>
        </g>
        <g id="Grupo_54877" data-name="Grupo 54877" transform="translate(48.992 37.267)">
          <path id="Trazado_105774" data-name="Trazado 105774" d="M1319.747,2449.22a2.383,2.383,0,1,0,1.5,3.019A2.384,2.384,0,0,0,1319.747,2449.22Z" transform="translate(-1316.603 -2449.095)" fill="#f9dce4"/>
          <g id="Grupo_54876" data-name="Grupo 54876" clip-path="url(#clip-path-14)">
            <path id="Trazado_105775" data-name="Trazado 105775" d="M1322.841,2450.571a9.649,9.649,0,0,1-3.28,2.442,7.335,7.335,0,0,1-1.62.363,8.364,8.364,0,0,1-3.123-.1,4.342,4.342,0,0,1-2.56-1.7" transform="translate(-1315.837 -2449.356)" fill="none" stroke="#9d9b9b" stroke-miterlimit="10" stroke-width="1" style="mix-blend-mode: color-burn;isolation: isolate"/>
          </g>
        </g>
        <g id="Grupo_54879" data-name="Grupo 54879" transform="translate(28.674 50.879)">
          <path id="Trazado_105777" data-name="Trazado 105777" d="M1295.078,2465.747a2.383,2.383,0,1,0,1.5,3.019A2.383,2.383,0,0,0,1295.078,2465.747Z" transform="translate(-1291.935 -2465.622)" fill="#f9dce4"/>
          <g id="Grupo_54878" data-name="Grupo 54878" clip-path="url(#clip-path-15)">
            <path id="Trazado_105778" data-name="Trazado 105778" d="M1297.767,2467.468a1.8,1.8,0,0,1-.915,1.358,5.289,5.289,0,0,1-1.6.556,11.725,11.725,0,0,1-4.751.428,9.7,9.7,0,0,1-3.525-1.628,28.208,28.208,0,0,1-3.539-2.808" transform="translate(-1290.436 -2465.578)" fill="none" stroke="#9d9b9b" stroke-miterlimit="10" stroke-width="1" style="mix-blend-mode: color-burn;isolation: isolate"/>
          </g>
        </g>
        <g id="Grupo_54884" data-name="Grupo 54884" transform="translate(62.766 19.353)">
          <g id="Grupo_54881" data-name="Grupo 54881" transform="translate(0 1.547)">
            <path id="Trazado_105780" data-name="Trazado 105780" d="M1357.606,2430.686l-24.045,19.64a.144.144,0,0,1-.187-.22l23.162-20.672a.824.824,0,0,1,1.1,1.229Z" transform="translate(-1333.326 -2429.224)" fill="#97a4b8"/>
            <g id="Grupo_54880" data-name="Grupo 54880" clip-path="url(#clip-path-16)">
              <path id="Trazado_105781" data-name="Trazado 105781" d="M1362.373,2432.318a12.14,12.14,0,0,1-8.861-10.31" transform="translate(-1336.886 -2427.951)" fill="none" stroke="#9d9b9b" stroke-miterlimit="10" stroke-width="1" opacity="0.3" style="mix-blend-mode: color-burn;isolation: isolate"/>
            </g>
          </g>
          <g id="Grupo_54883" data-name="Grupo 54883" transform="translate(21.362)">
            <path id="Trazado_105783" data-name="Trazado 105783" d="M1363.193,2431.541a2.383,2.383,0,1,0-3.36-.265A2.384,2.384,0,0,0,1363.193,2431.541Z" transform="translate(-1359.262 -2427.345)" fill="#f9dce4"/>
            <g id="Grupo_54882" data-name="Grupo 54882" clip-path="url(#clip-path-17)">
              <path id="Trazado_105784" data-name="Trazado 105784" d="M1365.489,2431.448a9.227,9.227,0,0,1-8.038-.678,13.6,13.6,0,0,1-3.344-2.535" transform="translate(-1358.353 -2427.502)" fill="none" stroke="#9d9b9b" stroke-miterlimit="10" stroke-width="1" style="mix-blend-mode: color-burn;isolation: isolate"/>
            </g>
          </g>
        </g>
        <circle id="Elipse_5008" data-name="Elipse 5008" cx="1.951" cy="1.951" r="1.951" transform="translate(59.912 40.672)" fill="#b03636"/>
        <circle id="Elipse_5009" data-name="Elipse 5009" cx="3.034" cy="3.034" r="3.034" transform="translate(37.066 31.601)" fill="#b03636"/>
        <path id="Trazado_105786" data-name="Trazado 105786" d="M1288.824,2455.479a3.932,3.932,0,1,1,3.931,3.931A3.932,3.932,0,0,1,1288.824,2455.479Z" transform="translate(-1262.712 -2412.261)" fill="#b03636"/>
      </g>
      <g id="Grupo_54888" data-name="Grupo 54888" transform="translate(997.839 178.483)">
        <path id="Trazado_105787" data-name="Trazado 105787" d="M1306.687,2197.609c-5.109,1.213-12.18,2.893-13.706.354-1.605-2.67,3.874-8.426,2.7-9.482-.928-.838-4.1,3.037-8.208,2.373-2.225-.359-4.822-2.065-5.163-4.2-.516-3.219,4.467-4.973,3.968-8.5a4.582,4.582,0,0,0-3.221-3.738c-3.461-.641-4.966,6.157-10.519,7.3a10.68,10.68,0,0,1-9.8-3.682c-3.614-4.477-.562-10.142-3.407-11.944-2.3-1.455-5.148,1.7-10.085,2.848-7.674,1.784-16.855-2.105-21.92-7.981-6.842-7.937-7.143-20.623-2.267-28.343,10.9-17.26,50.792-14.633,60.841.945,3.193,4.95,7.748,17.988,9.825,29.476.587,3.246,1.17,7.441,4.535,10.2,4.323,3.549,8.5.846,14.172,4.156,4.661,2.724,8.9,8.682,7.558,13.038C1320.814,2194.253,1315.76,2195.454,1306.687,2197.609Z" transform="translate(-1138.199 -2120.732)" fill="#1a4e75"/>
        <path id="Trazado_105788" data-name="Trazado 105788" d="M1253.972,2237.906c.161.971-14.066,17.149-16.4,24.932l27.224,8.259s16.853-12.38,22.215-12.379Z" transform="translate(-1140.99 -2141.396)" fill="url(#linear-gradient-5)"/>
        <path id="Trazado_105789" data-name="Trazado 105789" d="M1256.361,2235.082c-.474.013-5.644,8.21-6.022,10.288,0,0,22.471,11.363,26.918,18.341l16.082-6.573S1266.54,2234.808,1256.361,2235.082Z" transform="translate(-1143.241 -2140.898)" fill="url(#linear-gradient-6)"/>
        <path id="Trazado_105790" data-name="Trazado 105790" d="M1234.931,2269.664s4.063-10.031,6.582-11.673,17.375,3.646,26.669,14.134l-4.448,3.683Z" transform="translate(-1140.524 -2144.886)" fill="url(#linear-gradient-7)"/>
        <path id="Trazado_105791" data-name="Trazado 105791" d="M1189.722,2174.126s-6.665-1.947-10.623-.974-2.517,5.916-1.82,7.413,10.383-1.784,10.383-1.784Z" transform="translate(-1130.209 -2129.928)" fill="url(#linear-gradient-8)"/>
        <path id="Trazado_105792" data-name="Trazado 105792" d="M1373.063,2235.055a32.925,32.925,0,0,1,.035-7.323c.306-2.568.761-3.665,1.595-3.987a2.035,2.035,0,0,1,1.516.136c2.249,1,2.847,4.9,2.642,7.39a11.3,11.3,0,0,1-2.642,6.225Z" transform="translate(-1164.852 -2138.882)" fill="url(#linear-gradient-9)"/>
        <path id="Trazado_105793" data-name="Trazado 105793" d="M1190.846,2171.41q-1.788,4.592-3.575,9.185a40.063,40.063,0,0,0,18.88,7.821c8.671,1.047,11.206-1.9,18,.395,7.4,2.494,6.873,6.817,16.951,12.454,7.964,4.454,12.289,3.99,12.68,6.648.512,3.471-6.609,5.971-16.27,17.16-3.641,4.217-4.179,5.656-3.779,6.8,1.271,3.637,10.454-.1,20.029,3.968,12.837,5.448,15.659,20.361,21.918,19.084,1.276-.261,1.584-.967,5.858-5.858,3.935-4.5,7.311-8.068,9.642-10.465a49.653,49.653,0,0,1,11.463,7.322c8.951,7.659,9.851,14.135,18.385,18.07,2.744,1.266,7.076,3.263,11.023,1.582,2.412-1.028,4.765-3.465,8.83-18.7,1.915-7.181,3.16-13.267,3.961-17.661l-6.053-4.519a36.491,36.491,0,0,0-7.747,12.848c-2.165,6.337-1.4,10.2-3.59,11.148-2.715,1.175-6.391-3.681-15.093-11.985-11.881-11.338-14.158-11-21.752-19.57-7.01-7.915-6.766-10.123-11.337-15.494-2.67-3.137-10.892-11.949-49.725-22.176A380.609,380.609,0,0,0,1190.846,2171.41Z" transform="translate(-1132.119 -2129.669)" fill="url(#linear-gradient-10)"/>
        <path id="Trazado_105794" data-name="Trazado 105794" d="M1252.939,2226.831c-1.059-7.39,18.552-13.392,17.265-19.653-.681-3.316-6.536-3.356-16.249-6.991-17.74-6.639-16.012-13.166-28.91-16.627-13.932-3.739-20.693,2.606-30.8-3.59a24.479,24.479,0,0,1-4.877-3.954q-1.05,2.7-2.1,5.392a40.061,40.061,0,0,0,18.88,7.821c8.671,1.047,11.206-1.9,18,.395,7.4,2.494,6.873,6.817,16.951,12.454,7.964,4.454,12.289,3.99,12.68,6.648.512,3.471-6.609,5.971-16.27,17.16-3.641,4.217-4.179,5.656-3.779,6.8,1.271,3.637,10.454-.1,20.029,3.968,12.837,5.448,15.659,20.361,21.918,19.084a3.105,3.105,0,0,0,.328-.086c-.145-5.024-1.295-10.572-4.864-15.219C1264.4,2231.646,1253.708,2232.192,1252.939,2226.831Z" transform="translate(-1132.119 -2130.481)" opacity="0.3" fill="url(#linear-gradient-11)" style="mix-blend-mode: multiply;isolation: isolate"/>
        <path id="Trazado_105795" data-name="Trazado 105795" d="M1351.471,2276.306c-5.173-.2-6.6-6.929-18.139-16.628-4.6-3.866-14.492-12.251-19.308-9.254a5.9,5.9,0,0,0-2.363,3.514c.522-.546,1.01-1.051,1.459-1.513a49.653,49.653,0,0,1,11.463,7.322c8.951,7.659,9.851,14.135,18.385,18.07,2.744,1.266,7.076,3.263,11.023,1.582,1.667-.71,3.305-2.1,5.5-7.908C1356.21,2275.428,1353.528,2276.386,1351.471,2276.306Z" transform="translate(-1154.056 -2143.492)" opacity="0.3" fill="url(#linear-gradient-12)" style="mix-blend-mode: multiply;isolation: isolate"/>
        <path id="Trazado_105796" data-name="Trazado 105796" d="M1319.007,2211.067s-9.84,7.441-16.49,1.489c0,0-2.311,10.922,11.929,18.292,0,0-5.323-4.935,6.347-12.32Z" transform="translate(-1152.419 -2136.663)" fill="url(#linear-gradient-13)"/>
        <path id="Trazado_105797" data-name="Trazado 105797" d="M1334.292,2203.463s-.267,10.691-4.49,15.938a2.311,2.311,0,0,1-2.487.767,10.639,10.639,0,0,1-7.566-8.706s-2.271-3.137-1.945-4.51,2.759-.874,3.542.857,1.846-1.338,1.5-1.916S1325.628,2199.363,1334.292,2203.463Z" transform="translate(-1155.133 -2135.07)" fill="url(#linear-gradient-14)"/>
        <path id="Trazado_105798" data-name="Trazado 105798" d="M1218.9,2270.743c-19.371,7.458-21.845,13.829-22.3,16.25-.084.45-.524,3.056-.909,6.423-.743,6.505-.361,7.811-1.133,10.052-1.333,3.868-4.2,4.991-7.666,7.985-10.012,8.651-6.947,17.311-16.02,23.62-4.276,2.973-7.888,3.089-10.74,3.881-8.914,2.478-19.628,14.146-27.02,55.173l5.479,6.235c9.475-21.253,21.147-33.956,29.869-41.554,17.723-15.441,31.68-17.142,48.734-34.592a107.531,107.531,0,0,0,21.54-32.311Z" transform="translate(-1122.568 -2147.187)" fill="url(#linear-gradient-15)"/>
        <path id="Trazado_105799" data-name="Trazado 105799" d="M1228.958,2280.057c-13.548,1.937-18.263,6.439-20.041,10.278-2.753,5.945,1.53,10.287.378,22.3-.226,2.359-1.3,13.59-7.558,21.541-9.272,11.784-23.085,7.674-34.389,14.171-7.6,4.369-15.447,14.328-17.962,38.468a110.342,110.342,0,0,1,21.944-26.361c17.723-15.441,31.68-17.142,48.734-34.592a107.531,107.531,0,0,0,21.54-32.311Z" transform="translate(-1125.438 -2148.83)" opacity="0.3" fill="url(#linear-gradient-15)" style="mix-blend-mode: multiply;isolation: isolate"/>
        <path id="Trazado_105800" data-name="Trazado 105800" d="M1230.4,2272.194c-5.942,3.056-11.667,10-11.156,17.467.47,6.874,6.1,12.45,11.468,14.991,9.4,4.448,15.449-1.608,34.733-1.7,11.2-.056,21.373,1.927,21.542,4.224.161,2.186-8.932,2.014-14.359,9.258-2.057,2.745-2.673,5.335-4.157,15.872-.8,5.667-1.734,12.823-2.646,21.163l3.553,3.964c10.84-12.209,27.086-31.613,38.825-51.213,1.74-2.9,4.016-6.873,2.844-10.989-2.277-8-15.066-7.729-40.583-15.021C1245.826,2273.165,1239.267,2267.634,1230.4,2272.194Z" transform="translate(-1137.752 -2147.15)" fill="url(#linear-gradient-17)"/>
        <path id="Trazado_105801" data-name="Trazado 105801" d="M1283.8,2296.927l7.747-4.272c-24.385-8.765-51.778-11.726-68.383-12.723a18,18,0,0,0-3.807,8.634C1251.534,2288.016,1283.8,2296.927,1283.8,2296.927Z" transform="translate(-1137.777 -2148.808)" fill="url(#linear-gradient-18)"/>
        <path id="Trazado_105802" data-name="Trazado 105802" d="M1278.223,2303.289l3.495-1.7c-25.25-7.077-51.442-6.216-62.094-5.407a18.8,18.8,0,0,0,7.063,10.369C1247.272,2300.017,1278.223,2303.289,1278.223,2303.289Z" transform="translate(-1137.825 -2151.58)" fill="url(#linear-gradient-19)"/>
        <g id="Grupo_54886" data-name="Grupo 54886" transform="translate(0 242.028)">
          <path id="Trazado_105803" data-name="Trazado 105803" d="M1130.135,2415.1s-2.842,1.755-3.951,1.712-5.075-.767-4.581,3.021,3.642,19.819,5.3,23.706,2.8,5.007,6.934,4.338c1.729-.28-1.107-4.541-.665-6.882s5.4-16.961,5.4-16.961-4.194-4.732-4.574-6.233S1132.757,2413.394,1130.135,2415.1Z" transform="translate(-1120.531 -2414.581)" fill="url(#linear-gradient-20)"/>
          <path id="Trazado_105804" data-name="Trazado 105804" d="M1128.238,2436.994v-12.333a13.03,13.03,0,0,0-1.359-5.793l-.833-1.676c-.027,0-.058.006-.083,0-1.109-.044-6.634-2.234-5.5,3.434.75,3.747,4.2,20.425,5.858,24.312s3.723,4.3,7.858,3.634c.733-.119.08-1.27-.231-2.37l-2.158-1.753A9.609,9.609,0,0,1,1128.238,2436.994Z" transform="translate(-1120.31 -2414.963)" fill="#b2b8c1"/>
        </g>
        <g id="Grupo_54887" data-name="Grupo 54887" transform="translate(116.167 201.922)">
          <path id="Trazado_105805" data-name="Trazado 105805" d="M1270.563,2366.378s-2.665,1.646-3.7,1.6-4.759-.719-4.3,2.833,3.415,18.582,4.967,22.226,2.625,4.695,6.5,4.067c1.621-.262-1.038-4.257-.624-6.453s5.06-15.9,5.06-15.9-3.932-4.436-4.288-5.844S1273.02,2364.776,1270.563,2366.378Z" transform="translate(-1261.557 -2365.889)" fill="url(#linear-gradient-20)"/>
          <path id="Trazado_105806" data-name="Trazado 105806" d="M1268.784,2386.9V2375.34a12.208,12.208,0,0,0-1.274-5.432l-.781-1.572c-.025,0-.054,0-.077,0-1.04-.041-6.221-2.094-5.158,3.22.7,3.512,3.94,19.15,5.492,22.793s3.491,4.035,7.367,3.407c.688-.111.076-1.19-.216-2.222l-2.024-1.643A9.009,9.009,0,0,1,1268.784,2386.9Z" transform="translate(-1261.35 -2366.247)" fill="#fff"/>
        </g>
      </g>
    </g>
  </g>
</svg>
