<svg xmlns="http://www.w3.org/2000/svg" width="1124.698" height="326.247" viewBox="0 0 1124.698 326.247">
  <g id="Grupo_58775" data-name="Grupo 58775" transform="translate(-235 -3947.123)">
    <g id="Grupo_58410" data-name="Grupo 58410">
      <g id="Grupo_58399" data-name="Grupo 58399" transform="translate(-0.337 1163)">
        <circle id="Elipse_5038" data-name="Elipse 5038" cx="24" cy="24" r="24" transform="translate(931 2784.123)" fill="#bf3976"/>
        <path id="Trazado_114935" data-name="Trazado 114935" d="M20.7,12.816h1.863a1.937,1.937,0,0,0,2.215-2.168,1.875,1.875,0,0,0-.527-1.377,2,2,0,0,0-1.488-.533A2.141,2.141,0,0,0,21.4,9.2a1.394,1.394,0,0,0-.58,1.137H16.871a4.043,4.043,0,0,1,.75-2.4A4.953,4.953,0,0,1,19.7,6.283a7.112,7.112,0,0,1,2.924-.592,6.988,6.988,0,0,1,4.477,1.3,4.324,4.324,0,0,1,1.629,3.574,3.6,3.6,0,0,1-.674,2.08,4.8,4.8,0,0,1-1.963,1.588,4.587,4.587,0,0,1,2.133,1.494A3.935,3.935,0,0,1,29,18.207a4.4,4.4,0,0,1-1.758,3.656,7.3,7.3,0,0,1-4.617,1.371,7.567,7.567,0,0,1-3.111-.639,4.875,4.875,0,0,1-2.174-1.77,4.6,4.6,0,0,1-.738-2.572h3.973a1.778,1.778,0,0,0,.633,1.359,2.234,2.234,0,0,0,1.559.574,2.34,2.34,0,0,0,1.664-.58,1.939,1.939,0,0,0,.621-1.482,2.267,2.267,0,0,0-.645-1.828,2.694,2.694,0,0,0-1.781-.539H20.7Z" transform="translate(932 2794.123)" fill="#fff"/>
      </g>
      <g id="Grupo_58400" data-name="Grupo 58400" transform="translate(-5.719 1163)">
        <circle id="Elipse_5037" data-name="Elipse 5037" cx="24" cy="24" r="24" transform="translate(1232 2784.123)" fill="#bf3976"/>
        <path id="Trazado_114936" data-name="Trazado 114936" d="M27.523,16.332h1.734v3.047H27.523V23H23.574V19.379h-6.6l-.234-2.414L23.574,5.973V5.938h3.949Zm-7.02,0h3.07v-5.25l-.246.4Z" transform="translate(1233 2794.123)" fill="#fff"/>
      </g>
      <rect id="Rectángulo_5607" data-name="Rectángulo 5607" width="217.972" height="261.631" transform="translate(1141.227 4011.239)" fill="#d8d8d8" stroke="#afafaf" stroke-miterlimit="10" stroke-width="1" style="isolation: isolate"/>
      <path id="Trazado_114348" data-name="Trazado 114348" d="M1100.2,1587.4l6.058,5.114a121.9,121.9,0,0,0,23.777-11.445l-.543-7.532,5.747,4.1a123.309,123.309,0,0,0,24.108-22.037l-2.694-6.217,6.9.92a122.2,122.2,0,0,0,17.153-31.842l-3.817-5.631,6.085-1.327a121.955,121.955,0,0,0,4.915-34.344c0-.962-.013-3.92-.036-4.877a9.973,9.973,0,0,0-.112-1.232l-9.864,3.767-10.446-5.617c-.39,1.11.4,4.3.428,5.549q.029,1.2.03,2.41a102.077,102.077,0,0,1-3.8,27.637l4.976,6.245-7.307,1a102.221,102.221,0,0,1-14.534,26.7l3.164,5.508-6.156-1.736a103.185,103.185,0,0,1-19.778,18.274l1.679,5.922-5.667-3.242a101.9,101.9,0,0,1-21.836,10.526v6.921a30.74,30.74,0,0,0-5.07-5.329,102.062,102.062,0,0,1-27.989,3.892,13.675,13.675,0,0,0-6.372,1.574l5.7,8.031-3.888,10.051a31.493,31.493,0,0,0,4.56.344,121.946,121.946,0,0,0,34.624-5Z" transform="translate(75.646 2536.722)" fill="#f2faff" stroke="#afafaf" stroke-miterlimit="10" stroke-width="1"/>
      <path id="Trazado_114349" data-name="Trazado 114349" d="M821.356,1474.517H770.664v261.631H988.636V1589.475C888.006,1587.531,837.3,1474.517,821.356,1474.517Z" transform="translate(75.646 2536.722)" fill="#f2faff" stroke="#afafaf" stroke-miterlimit="10" stroke-width="1"/>
      <path id="Trazado_114350" data-name="Trazado 114350" d="M834.54,1526.116s-16.7-5.507-20.137,44.244c-2.647,38.287-17.4,47.457-17.4,47.457s117.416,37.627,117.322,37.343,13.235-76.576-13.236-98.7S834.351,1525.454,834.54,1526.116Z" transform="translate(75.646 2536.722)" fill="#bfbfbf" stroke="#afafaf" stroke-miterlimit="10" stroke-width="1" style="isolation: isolate"/>
      <path id="Trazado_114351" data-name="Trazado 114351" d="M847.113,1542.849l.89,1.779c3.78.892,7.651,1.923,11.65,3.073l6.652-1.449,3.915,4.633,9.793-.851,6.286,6h0l10.461-.742L880.3,1539.54l-39.044-9.076-15.031,4.066c0,.378-4.822,6.466-3.026,6.523a116.052,116.052,0,0,1,19.423,2.393Z" transform="translate(75.646 2536.722)" fill="#f2faff" stroke="#afafaf" stroke-miterlimit="10" stroke-width="1"/>
      <path id="Trazado_114352" data-name="Trazado 114352" d="M942.8,1580.283l3.07.931-2.331,2.159-2.33,2.159-.74-3.089-.74-3.089Z" transform="translate(75.646 2536.722)" fill="#7f7f7f"/>
      <path id="Trazado_114353" data-name="Trazado 114353" d="M847.126,1539.7c1.706-2.622,2.918-4.511,2.918-4.511s.2,2.427.482,5.156a224.8,224.8,0,0,1,34.014,9.83c1.31-1.094,3.7-3.039,3.7-2.7v4.113c7.974,3.128,12.857,5.53,12.857,5.53s-19.285-13.33-37.436-43.771-41.786-39.044-41.786-39.044-.035.057-.094.157c19.81,8.025,2.342,62.868,2.342,62.868A143.657,143.657,0,0,1,847.126,1539.7Z" transform="translate(75.646 2536.722)" fill="#dce4ea" stroke="#afafaf" stroke-miterlimit="10" stroke-width="1"/>
      <path id="Trazado_114354" data-name="Trazado 114354" d="M917.465,1622.066v3.208l-2.742-1.6-2.742-1.6,2.742-1.6,2.742-1.6Z" transform="translate(75.646 2536.722)" fill="#7f7f7f"/>
      <g id="Grupo_58370" data-name="Grupo 58370" transform="translate(75.646 2536.722)">
        <path id="Trazado_114314" data-name="Trazado 114314" d="M768.288,1606" fill="none" stroke="#bf3976" stroke-linecap="round" stroke-miterlimit="10" stroke-width="2"/>
      </g>
      <g id="Grupo_58374" data-name="Grupo 58374" transform="translate(75.646 2536.722)">
        <path id="Trazado_114321" data-name="Trazado 114321" d="M1063.909,1606" fill="none" stroke="#bf3976" stroke-linecap="round" stroke-miterlimit="10" stroke-width="2"/>
      </g>
      <g id="Costura_en_el_borde_abierta" data-name="Costura en el borde abierta" transform="translate(75.646 2536.722)" style="isolation: isolate">
        <path id="Trazado_114937" data-name="Trazado 114937" d="M-48.036-3.9h-1.75V0h-2.2V-10.664h3.962a4.479,4.479,0,0,1,2.915.842,2.907,2.907,0,0,1,1.025,2.38,3.281,3.281,0,0,1-.472,1.82A3.222,3.222,0,0,1-45.985-4.46L-43.678-.1V0h-2.358Zm-1.75-1.78h1.772A1.815,1.815,0,0,0-46.732-6.1a1.505,1.505,0,0,0,.454-1.161,1.611,1.611,0,0,0-.428-1.187,1.781,1.781,0,0,0-1.315-.432h-1.765ZM-38.9.146A3.89,3.89,0,0,1-41.741-.923a3.8,3.8,0,0,1-1.095-2.849v-.205a4.787,4.787,0,0,1,.461-2.135,3.386,3.386,0,0,1,1.307-1.45,3.669,3.669,0,0,1,1.93-.509,3.289,3.289,0,0,1,2.56,1.025,4.167,4.167,0,0,1,.934,2.908v.864H-40.69a1.966,1.966,0,0,0,.619,1.245,1.871,1.871,0,0,0,1.307.469,2.285,2.285,0,0,0,1.912-.886l1.04,1.165A3.178,3.178,0,0,1-37.1-.231,4.229,4.229,0,0,1-38.9.146Zm-.242-6.511a1.323,1.323,0,0,0-1.022.427,2.209,2.209,0,0,0-.5,1.221h2.944v-.169A1.576,1.576,0,0,0-38.1-5.979,1.365,1.365,0,0,0-39.144-6.365Zm7.573,3.779L-30.1-7.925h2.212L-30.56,0h-2.021l-2.673-7.925h2.212ZM-23.4.146A3.89,3.89,0,0,1-26.243-.923a3.8,3.8,0,0,1-1.095-2.849v-.205a4.787,4.787,0,0,1,.461-2.135,3.386,3.386,0,0,1,1.307-1.45,3.669,3.669,0,0,1,1.93-.509,3.289,3.289,0,0,1,2.56,1.025,4.167,4.167,0,0,1,.934,2.908v.864h-5.046a1.966,1.966,0,0,0,.619,1.245,1.871,1.871,0,0,0,1.307.469,2.285,2.285,0,0,0,1.912-.886l1.04,1.165A3.178,3.178,0,0,1-21.6-.231,4.229,4.229,0,0,1-23.4.146Zm-.242-6.511a1.323,1.323,0,0,0-1.022.427,2.209,2.209,0,0,0-.5,1.221h2.944v-.169a1.576,1.576,0,0,0-.381-1.092A1.365,1.365,0,0,0-23.646-6.365Zm.19-4.885h2.307l-2.029,2.271H-24.9Zm8.8,9.06a.682.682,0,0,0-.385-.612,4.368,4.368,0,0,0-1.234-.4Q-19.1-3.794-19.1-5.6a2.178,2.178,0,0,1,.875-1.761,3.531,3.531,0,0,1,2.289-.707,3.8,3.8,0,0,1,2.413.71,2.239,2.239,0,0,1,.9,1.846h-2.117a1.024,1.024,0,0,0-.293-.751,1.24,1.24,0,0,0-.916-.3,1.267,1.267,0,0,0-.828.242.763.763,0,0,0-.293.615.652.652,0,0,0,.333.568,3.428,3.428,0,0,0,1.124.374,9.183,9.183,0,0,1,1.333.355,2.19,2.19,0,0,1,1.677,2.131,2.067,2.067,0,0,1-.93,1.754,4.013,4.013,0,0,1-2.4.67A4.191,4.191,0,0,1-17.7-.209a2.968,2.968,0,0,1-1.212-.974,2.263,2.263,0,0,1-.439-1.337h2.007a1.105,1.105,0,0,0,.417.864,1.656,1.656,0,0,0,1.04.3,1.533,1.533,0,0,0,.919-.231A.718.718,0,0,0-14.652-2.19Zm6.826-1.831a4.776,4.776,0,0,1,.831-2.952,2.7,2.7,0,0,1,2.274-1.1,2.427,2.427,0,0,1,1.912.864V-11.25H-.685V0H-2.6l-.1-.842A2.491,2.491,0,0,1-4.735.146,2.69,2.69,0,0,1-6.98-.956,4.93,4.93,0,0,1-7.826-4.021Zm2.117.151a3.146,3.146,0,0,0,.388,1.714,1.263,1.263,0,0,0,1.128.6,1.416,1.416,0,0,0,1.384-.831V-5.533a1.4,1.4,0,0,0-1.37-.831Q-5.709-6.365-5.709-3.87ZM4.6.146A3.89,3.89,0,0,1,1.765-.923,3.8,3.8,0,0,1,.67-3.772v-.205a4.787,4.787,0,0,1,.461-2.135,3.386,3.386,0,0,1,1.307-1.45,3.669,3.669,0,0,1,1.93-.509,3.289,3.289,0,0,1,2.56,1.025,4.167,4.167,0,0,1,.934,2.908v.864H2.816a1.966,1.966,0,0,0,.619,1.245,1.871,1.871,0,0,0,1.307.469,2.285,2.285,0,0,0,1.912-.886l1.04,1.165A3.178,3.178,0,0,1,6.405-.231,4.229,4.229,0,0,1,4.6.146ZM4.362-6.365a1.323,1.323,0,0,0-1.022.427,2.209,2.209,0,0,0-.5,1.221H5.782v-.169A1.576,1.576,0,0,0,5.4-5.979,1.365,1.365,0,0,0,4.362-6.365ZM15.033,0H12.909V-11.25h2.124Zm6.335,0a2.351,2.351,0,0,1-.212-.71,2.561,2.561,0,0,1-2,.857,2.814,2.814,0,0,1-1.93-.674,2.167,2.167,0,0,1-.765-1.7A2.24,2.24,0,0,1,17.4-4.16a4.608,4.608,0,0,1,2.7-.681h.974V-5.3a1.306,1.306,0,0,0-.282-.879,1.109,1.109,0,0,0-.89-.33,1.261,1.261,0,0,0-.839.256.871.871,0,0,0-.3.7H16.637a2.126,2.126,0,0,1,.425-1.274,2.808,2.808,0,0,1,1.2-.919,4.378,4.378,0,0,1,1.743-.333,3.459,3.459,0,0,1,2.325.736,2.575,2.575,0,0,1,.861,2.069v3.435a3.789,3.789,0,0,0,.315,1.707V0Zm-1.75-1.472a1.823,1.823,0,0,0,.864-.209,1.371,1.371,0,0,0,.586-.56V-3.6h-.791q-1.589,0-1.692,1.1l-.007.125a.847.847,0,0,0,.278.652A1.081,1.081,0,0,0,19.618-1.472Zm11.47-8.4v1.948h1.355v1.553H31.088v3.955a.944.944,0,0,0,.168.63.846.846,0,0,0,.645.19,3.376,3.376,0,0,0,.623-.051v1.6a4.358,4.358,0,0,1-1.282.19A2.021,2.021,0,0,1,28.971-2.1v-4.27H27.814V-7.925h1.157V-9.873ZM37.269.146A3.89,3.89,0,0,1,34.431-.923a3.8,3.8,0,0,1-1.095-2.849v-.205A4.787,4.787,0,0,1,33.8-6.112,3.386,3.386,0,0,1,35.1-7.562a3.669,3.669,0,0,1,1.93-.509,3.289,3.289,0,0,1,2.56,1.025,4.167,4.167,0,0,1,.934,2.908v.864H35.482A1.966,1.966,0,0,0,36.1-2.029a1.871,1.871,0,0,0,1.307.469,2.285,2.285,0,0,0,1.912-.886l1.04,1.165A3.178,3.178,0,0,1,39.071-.231,4.229,4.229,0,0,1,37.269.146Zm-.242-6.511a1.323,1.323,0,0,0-1.022.427,2.209,2.209,0,0,0-.5,1.221h2.944v-.169a1.576,1.576,0,0,0-.381-1.092A1.365,1.365,0,0,0,37.028-6.365ZM43.964,0H41.84V-11.25h2.124ZM50.3,0a2.351,2.351,0,0,1-.212-.71,2.561,2.561,0,0,1-2,.857,2.814,2.814,0,0,1-1.93-.674,2.167,2.167,0,0,1-.765-1.7,2.24,2.24,0,0,1,.934-1.934,4.608,4.608,0,0,1,2.7-.681H50V-5.3a1.306,1.306,0,0,0-.282-.879,1.109,1.109,0,0,0-.89-.33,1.261,1.261,0,0,0-.839.256.871.871,0,0,0-.3.7H45.568a2.126,2.126,0,0,1,.425-1.274,2.808,2.808,0,0,1,1.2-.919,4.378,4.378,0,0,1,1.743-.333,3.459,3.459,0,0,1,2.325.736,2.575,2.575,0,0,1,.861,2.069v3.435a3.789,3.789,0,0,0,.315,1.707V0Zm-1.75-1.472a1.823,1.823,0,0,0,.864-.209A1.371,1.371,0,0,0,50-2.241V-3.6h-.791q-1.589,0-1.692,1.1l-.007.125a.847.847,0,0,0,.278.652A1.081,1.081,0,0,0,48.549-1.472Z" transform="translate(1174.964 1722.957)"/>
      </g>
      <path id="Trazado_114365" data-name="Trazado 114365" d="M1177.861,1474.517c.02.879.033,1.76.033,2.645a112.313,112.313,0,0,1-112.313,112.313" transform="translate(75.646 2536.722)" fill="none" stroke="#898989" stroke-linecap="round" stroke-miterlimit="10" stroke-width="2" stroke-dasharray="4 5"/>
      <g id="Grupo_58406" data-name="Grupo 58406" transform="translate(75.646 2536.722)">
        <path id="Trazado_114374" data-name="Trazado 114374" d="M789.785,1531.278s6.3.64,8.833.129c1.975-.4,4.616-2.763,1.2-4.163-5.291-2.17-1.952-5.141,1.659-4.386,3.511.734,19.183,4.853,26.812,5.367" fill="none" stroke="#bf3976" stroke-linecap="round" stroke-miterlimit="10" stroke-width="2"/>
        <path id="Trazado_114375" data-name="Trazado 114375" d="M810.083,1519.742s11.779.466,2.837,5.788c-6.873,4.091-3.954,8.729,2.712,5.536,1.609-.77,3.758-2.094,12.293-2.868" fill="none" stroke="#bf3976" stroke-linecap="round" stroke-miterlimit="10" stroke-width="2"/>
      </g>
      <path id="Trazado_114379" data-name="Trazado 114379" d="M878.689,1536.326s-31.481-7.752-51.878-7.752" transform="translate(75.646 2536.722)" fill="none" stroke="#bf3976" stroke-linecap="round" stroke-miterlimit="10" stroke-width="2" stroke-dasharray="4 5"/>
    </g>
    <g id="Grupo_58409" data-name="Grupo 58409">
      <g id="Grupo_58397" data-name="Grupo 58397" transform="translate(9.729 1163)">
        <circle id="Elipse_5035" data-name="Elipse 5035" cx="24" cy="24" r="24" transform="translate(312 2784.123)" fill="#bf3976"/>
        <path id="Trazado_114933" data-name="Trazado 114933" d="M25.848,23H21.887V10.391L18,11.527v-3l7.488-2.59h.363Z" transform="translate(313 2794.123)" fill="#fff"/>
      </g>
      <g id="Grupo_58398" data-name="Grupo 58398" transform="translate(9.85 1163)">
        <circle id="Elipse_5036" data-name="Elipse 5036" cx="24" cy="24" r="24" transform="translate(613 2784.123)" fill="#bf3976"/>
        <path id="Trazado_114934" data-name="Trazado 114934" d="M29,23H17.094V20.422l5.484-5.766q2.027-2.309,2.027-3.668a2.551,2.551,0,0,0-.48-1.676,1.715,1.715,0,0,0-1.395-.574,1.737,1.737,0,0,0-1.465.768,3.155,3.155,0,0,0-.562,1.916H16.742a5.6,5.6,0,0,1,.785-2.9,5.506,5.506,0,0,1,2.18-2.08,6.475,6.475,0,0,1,3.117-.75,6.369,6.369,0,0,1,4.26,1.277,4.56,4.56,0,0,1,1.494,3.668A5.326,5.326,0,0,1,28.2,12.6a8.608,8.608,0,0,1-1.166,2,29.372,29.372,0,0,1-2.549,2.807l-2.2,2.543H29Z" transform="translate(614 2794.123)" fill="#fff"/>
      </g>
      <path id="Trazado_114355" data-name="Trazado 114355" d="M266.931,1477.161c0-.884.013-1.765.034-2.644H161.273v261.631H379.245V1589.475A112.314,112.314,0,0,1,266.931,1477.161Z" transform="translate(75.646 2536.722)" fill="#f2faff" stroke="#afafaf" stroke-miterlimit="10" stroke-width="1"/>
      <path id="Trazado_114356" data-name="Trazado 114356" d="M567.751,1477.161c0-.884.013-1.765.034-2.644H462.093v261.631H680.065V1589.475A112.314,112.314,0,0,1,567.751,1477.161Z" transform="translate(75.646 2536.722)" fill="#f2faff" stroke="#afafaf" stroke-miterlimit="10" stroke-width="1"/>
      <g id="Grupo_58379" data-name="Grupo 58379" transform="translate(75.646 2536.722)">
        <path id="Trazado_114328" data-name="Trazado 114328" d="M159.354,1606.692" fill="none" stroke="#bf3976" stroke-linecap="round" stroke-miterlimit="10" stroke-width="2"/>
      </g>
      <g id="Costura_en_el_borde_abierta-2" data-name="Costura en el borde abierta" transform="translate(75.646 2536.722)" style="isolation: isolate">
        <path id="Trazado_114938" data-name="Trazado 114938" d="M-59.535,0V-10.664h3.281a4.983,4.983,0,0,1,2.516.634,4.418,4.418,0,0,1,1.732,1.8,5.557,5.557,0,0,1,.623,2.655v.491a5.573,5.573,0,0,1-.612,2.644A4.38,4.38,0,0,1-53.719-.645,5.021,5.021,0,0,1-56.232,0Zm2.2-8.884v7.119h1.062a2.386,2.386,0,0,0,1.97-.842,3.806,3.806,0,0,0,.7-2.41v-.564a3.867,3.867,0,0,0-.674-2.465,2.378,2.378,0,0,0-1.97-.839ZM-46.278.146A3.89,3.89,0,0,1-49.116-.923a3.8,3.8,0,0,1-1.095-2.849v-.205a4.787,4.787,0,0,1,.461-2.135,3.386,3.386,0,0,1,1.307-1.45,3.669,3.669,0,0,1,1.93-.509,3.289,3.289,0,0,1,2.56,1.025,4.167,4.167,0,0,1,.934,2.908v.864h-5.046a1.966,1.966,0,0,0,.619,1.245,1.871,1.871,0,0,0,1.307.469,2.285,2.285,0,0,0,1.912-.886l1.04,1.165A3.178,3.178,0,0,1-44.476-.231,4.229,4.229,0,0,1-46.278.146Zm-.242-6.511a1.323,1.323,0,0,0-1.022.427,2.209,2.209,0,0,0-.5,1.221H-45.1v-.169a1.576,1.576,0,0,0-.381-1.092A1.365,1.365,0,0,0-46.52-6.365Zm9.155.425A5.751,5.751,0,0,0-38.126-6a1.55,1.55,0,0,0-1.575.813V0h-2.117V-7.925h2l.059.945a1.961,1.961,0,0,1,1.765-1.091,2.218,2.218,0,0,1,.659.1ZM-32.838.146A3.89,3.89,0,0,1-35.676-.923a3.8,3.8,0,0,1-1.095-2.849v-.205a4.787,4.787,0,0,1,.461-2.135A3.386,3.386,0,0,1-35-7.562a3.669,3.669,0,0,1,1.93-.509,3.289,3.289,0,0,1,2.56,1.025,4.167,4.167,0,0,1,.934,2.908v.864h-5.046a1.966,1.966,0,0,0,.619,1.245A1.871,1.871,0,0,0-32.7-1.56a2.285,2.285,0,0,0,1.912-.886l1.04,1.165A3.178,3.178,0,0,1-31.036-.231,4.229,4.229,0,0,1-32.838.146Zm-.242-6.511a1.323,1.323,0,0,0-1.022.427,2.209,2.209,0,0,0-.5,1.221h2.944v-.169a1.576,1.576,0,0,0-.381-1.092A1.365,1.365,0,0,0-33.08-6.365Zm8,4.8a1.388,1.388,0,0,0,.952-.322,1.129,1.129,0,0,0,.381-.857h1.985A2.715,2.715,0,0,1-22.2-1.263a2.9,2.9,0,0,1-1.183,1.04,3.7,3.7,0,0,1-1.659.37,3.44,3.44,0,0,1-2.681-1.08,4.275,4.275,0,0,1-.981-2.985v-.139a4.226,4.226,0,0,1,.974-2.922A3.4,3.4,0,0,1-25.06-8.071a3.333,3.333,0,0,1,2.384.846,3,3,0,0,1,.912,2.252h-1.985a1.455,1.455,0,0,0-.381-1.005,1.27,1.27,0,0,0-.967-.387,1.275,1.275,0,0,0-1.117.539,3.125,3.125,0,0,0-.377,1.749v.22A3.164,3.164,0,0,0-26.217-2.1,1.291,1.291,0,0,0-25.082-1.56Zm6.592-5.5a2.642,2.642,0,0,1,2.117-1.011q2.578,0,2.615,3V0h-2.117V-5.029a1.478,1.478,0,0,0-.293-1.009,1.254,1.254,0,0,0-.974-.327,1.44,1.44,0,0,0-1.348.719V0h-2.117V-11.25h2.117Zm6,3.025a4.7,4.7,0,0,1,.454-2.1A3.324,3.324,0,0,1-10.73-7.566a3.814,3.814,0,0,1,1.981-.505A3.609,3.609,0,0,1-6.13-7.09,3.939,3.939,0,0,1-5-4.424l.015.542A4.142,4.142,0,0,1-6-.956,3.539,3.539,0,0,1-8.734.146a3.556,3.556,0,0,1-2.736-1.1A4.215,4.215,0,0,1-12.491-3.94Zm2.117.15A2.962,2.962,0,0,0-9.95-2.158a1.4,1.4,0,0,0,1.216.6,1.4,1.4,0,0,0,1.2-.591A3.241,3.241,0,0,0-7.1-4.039a2.933,2.933,0,0,0-.432-1.716,1.4,1.4,0,0,0-1.216-.609,1.382,1.382,0,0,0-1.2.605A3.3,3.3,0,0,0-10.375-3.885Zm10.1-.136A4.776,4.776,0,0,1,.557-6.973a2.7,2.7,0,0,1,2.274-1.1,2.427,2.427,0,0,1,1.912.864V-11.25H6.866V0H4.955l-.1-.842A2.491,2.491,0,0,1,2.816.146,2.69,2.69,0,0,1,.571-.956,4.93,4.93,0,0,1-.275-4.021Zm2.117.151A3.146,3.146,0,0,0,2.23-2.156a1.263,1.263,0,0,0,1.128.6,1.416,1.416,0,0,0,1.384-.831V-5.533a1.4,1.4,0,0,0-1.37-.831Q1.842-6.365,1.842-3.87ZM12.155.146A3.89,3.89,0,0,1,9.316-.923,3.8,3.8,0,0,1,8.221-3.772v-.205a4.787,4.787,0,0,1,.461-2.135A3.386,3.386,0,0,1,9.99-7.562a3.669,3.669,0,0,1,1.93-.509,3.289,3.289,0,0,1,2.56,1.025,4.167,4.167,0,0,1,.934,2.908v.864H10.367a1.966,1.966,0,0,0,.619,1.245,1.871,1.871,0,0,0,1.307.469,2.285,2.285,0,0,0,1.912-.886l1.04,1.165A3.178,3.178,0,0,1,13.956-.231,4.229,4.229,0,0,1,12.155.146Zm-.242-6.511a1.323,1.323,0,0,0-1.022.427,2.209,2.209,0,0,0-.5,1.221h2.944v-.169a1.576,1.576,0,0,0-.381-1.092A1.365,1.365,0,0,0,11.913-6.365ZM22.584,0H20.46V-11.25h2.124ZM28.92,0a2.351,2.351,0,0,1-.212-.71,2.561,2.561,0,0,1-2,.857,2.814,2.814,0,0,1-1.93-.674,2.167,2.167,0,0,1-.765-1.7,2.24,2.24,0,0,1,.934-1.934,4.608,4.608,0,0,1,2.7-.681h.974V-5.3a1.306,1.306,0,0,0-.282-.879,1.109,1.109,0,0,0-.89-.33,1.261,1.261,0,0,0-.839.256.871.871,0,0,0-.3.7H24.188a2.126,2.126,0,0,1,.425-1.274,2.808,2.808,0,0,1,1.2-.919,4.378,4.378,0,0,1,1.743-.333,3.459,3.459,0,0,1,2.325.736,2.575,2.575,0,0,1,.861,2.069v3.435a3.789,3.789,0,0,0,.315,1.707V0Zm-1.75-1.472a1.823,1.823,0,0,0,.864-.209,1.371,1.371,0,0,0,.586-.56V-3.6h-.791q-1.589,0-1.692,1.1l-.007.125a.847.847,0,0,0,.278.652A1.081,1.081,0,0,0,27.169-1.472Zm11.47-8.4v1.948h1.355v1.553H38.639v3.955a.944.944,0,0,0,.168.63.846.846,0,0,0,.645.19,3.376,3.376,0,0,0,.623-.051v1.6a4.358,4.358,0,0,1-1.282.19A2.021,2.021,0,0,1,36.522-2.1v-4.27H35.365V-7.925h1.157V-9.873ZM44.821.146A3.89,3.89,0,0,1,41.982-.923a3.8,3.8,0,0,1-1.095-2.849v-.205a4.787,4.787,0,0,1,.461-2.135,3.386,3.386,0,0,1,1.307-1.45,3.669,3.669,0,0,1,1.93-.509,3.289,3.289,0,0,1,2.56,1.025,4.167,4.167,0,0,1,.934,2.908v.864H43.033a1.966,1.966,0,0,0,.619,1.245,1.871,1.871,0,0,0,1.307.469,2.285,2.285,0,0,0,1.912-.886l1.04,1.165A3.178,3.178,0,0,1,46.622-.231,4.229,4.229,0,0,1,44.821.146Zm-.242-6.511a1.323,1.323,0,0,0-1.022.427,2.209,2.209,0,0,0-.5,1.221H46v-.169a1.576,1.576,0,0,0-.381-1.092A1.365,1.365,0,0,0,44.579-6.365ZM51.515,0H49.391V-11.25h2.124ZM57.85,0a2.351,2.351,0,0,1-.212-.71,2.561,2.561,0,0,1-2,.857,2.814,2.814,0,0,1-1.93-.674,2.167,2.167,0,0,1-.765-1.7,2.24,2.24,0,0,1,.934-1.934,4.608,4.608,0,0,1,2.7-.681h.974V-5.3a1.306,1.306,0,0,0-.282-.879,1.109,1.109,0,0,0-.89-.33,1.261,1.261,0,0,0-.839.256.871.871,0,0,0-.3.7H53.119a2.126,2.126,0,0,1,.425-1.274,2.808,2.808,0,0,1,1.2-.919,4.378,4.378,0,0,1,1.743-.333,3.459,3.459,0,0,1,2.325.736,2.575,2.575,0,0,1,.861,2.069v3.435a3.789,3.789,0,0,0,.315,1.707V0ZM56.1-1.472a1.823,1.823,0,0,0,.864-.209,1.371,1.371,0,0,0,.586-.56V-3.6h-.791q-1.589,0-1.692,1.1l-.007.125a.847.847,0,0,0,.278.652A1.081,1.081,0,0,0,56.1-1.472Z" transform="translate(266.051 1722.957)"/>
      </g>
      <g id="Grupo_58386" data-name="Grupo 58386" transform="translate(75.646 2536.722)">
        <path id="Trazado_114339" data-name="Trazado 114339" d="M460.475,1606.692" fill="none" stroke="#bf3976" stroke-linecap="round" stroke-miterlimit="10" stroke-width="2"/>
      </g>
      <path id="Trazado_114357" data-name="Trazado 114357" d="M507.891,1477.161" transform="translate(75.646 2536.722)" fill="none" stroke="#afafaf" stroke-miterlimit="10" stroke-width="1.145"/>
      <path id="Trazado_114358" data-name="Trazado 114358" d="M250.633,1475.517c-.018.88-.034,1.76-.034,2.644a128.646,128.646,0,0,0,128.646,128.646" transform="translate(75.646 2536.722)" fill="none" stroke="#bf3976" stroke-linecap="round" stroke-miterlimit="10" stroke-width="2" stroke-dasharray="4 5"/>
      <path id="Trazado_114359" data-name="Trazado 114359" d="M296.9,1553.645l2.268,2.269-3.073.8-3.073.8.8-3.073.8-3.073Z" transform="translate(75.646 2536.722)" fill="#7f7f7f"/>
      <g id="Grupo_58404" data-name="Grupo 58404" transform="translate(75.646 2536.722)">
        <path id="Trazado_114360" data-name="Trazado 114360" d="M277.025,1465.517c-.02.879-.033,1.76-.033,2.644A112.313,112.313,0,0,0,389.3,1580.475V1465.517Z" fill="#f2faff" stroke="#afafaf" stroke-miterlimit="10" stroke-width="1"/>
        <path id="Trazado_114361" data-name="Trazado 114361" d="M293.207,1466.517c-.018.753-.029,1.507-.029,2.263a96.127,96.127,0,0,0,96.127,96.127" fill="none" stroke="#bf3976" stroke-linecap="round" stroke-miterlimit="10" stroke-width="2" stroke-dasharray="4 5"/>
        <path id="Trazado_114362" data-name="Trazado 114362" d="M307.631,1543.967l-2.268-2.268,3.073-.8,3.073-.8-.8,3.073-.8,3.073Z" fill="#7f7f7f"/>
        <path id="Trazado_114363" data-name="Trazado 114363" d="M358.045,1575.626l-3.1-.816,2.249-2.244,2.249-2.244.854,3.06.854,3.06Z" fill="#7f7f7f"/>
        <path id="Trazado_114364" data-name="Trazado 114364" d="M280.3,1492.875l-1.075-3.023,3.121.593,3.121.593-2.046,2.43-2.046,2.43Z" fill="#7f7f7f"/>
      </g>
      <path id="Trazado_114366" data-name="Trazado 114366" d="M347.954,1585.372l3.07.931-2.33,2.159-2.33,2.159-.74-3.089-.74-3.089Z" transform="translate(75.646 2536.722)" fill="#7f7f7f"/>
      <path id="Trazado_114367" data-name="Trazado 114367" d="M269.239,1501l.811,3.1-3.058-.859-3.058-.859,2.248-2.245,2.248-2.245Z" transform="translate(75.646 2536.722)" fill="#7f7f7f"/>
      <path id="Trazado_114368" data-name="Trazado 114368" d="M598.911,1553.645l2.268,2.269-3.073.8-3.073.8.8-3.073.8-3.073Z" transform="translate(75.646 2536.722)" fill="#7f7f7f"/>
      <g id="Grupo_58405" data-name="Grupo 58405" transform="translate(75.646 2536.722)">
        <path id="Trazado_114369" data-name="Trazado 114369" d="M474.731,1605.624c.869-.138,1.738-.283,2.608-.441a112.314,112.314,0,0,0,90.36-130.629l-113.1,20.608Z" fill="#d8d8d8" stroke="#afafaf" stroke-miterlimit="10" stroke-width="1" style="isolation: isolate"/>
        <path id="Trazado_114370" data-name="Trazado 114370" d="M546.424,1561.45l-1.825,2.638-1.342-2.879-1.342-2.879,3.167.241,3.168.241Z" fill="#7f7f7f"/>
        <path id="Trazado_114371" data-name="Trazado 114371" d="M568.532,1506.178l-.246,3.2-2.611-1.81-2.611-1.81,2.857-1.389,2.857-1.389Z" fill="#7f7f7f"/>
        <path id="Trazado_114372" data-name="Trazado 114372" d="M501.059,1597.5l-2.781,1.6.024-3.177.024-3.177,2.757,1.577,2.757,1.577Z" fill="#7f7f7f"/>
      </g>
      <path id="Trazado_114373" data-name="Trazado 114373" d="M649.967,1585.372l3.07.931-2.33,2.159-2.331,2.159-.74-3.089-.74-3.089Z" transform="translate(75.646 2536.722)" fill="#7f7f7f"/>
      <path id="Trazado_114376" data-name="Trazado 114376" d="M558.051,1477.161s4.5,7.4-3.529,44.46" transform="translate(75.646 2536.722)" fill="none" stroke="#bf3976" stroke-linecap="round" stroke-miterlimit="10" stroke-width="2" stroke-dasharray="4 5"/>
      <g id="Grupo_58407" data-name="Grupo 58407" transform="translate(75.646 2536.722)">
        <path id="Trazado_114377" data-name="Trazado 114377" d="M565.114,1494.495l23.408-5.391-.389-1.687-23.5,5.412Z" fill="#7f7f7f"/>
        <path id="Trazado_114378" data-name="Trazado 114378" d="M551.086,1495.948l-14.618,3.366,0,.019-1.272.717-1.334.751,1.528.093,1.458.088,0,.019,14.749-3.4Z" fill="#7f7f7f"/>
      </g>
      <circle id="Elipse_5039" data-name="Elipse 5039" cx="2.72" cy="2.72" r="2.72" transform="translate(659.814 4022.566)" fill="#fff" stroke="#7f7f7f" stroke-miterlimit="10" stroke-width="1"/>
      <g id="Grupo_58408" data-name="Grupo 58408" transform="translate(75.646 2536.722)">
        <path id="Trazado_114380" data-name="Trazado 114380" d="M552.781,1435.278s-.155,6.331.549,8.816c.549,1.939,3.109,4.39,4.244.878,1.757-5.441,4.975-2.341,4.5,1.317-.462,3.557-3.365,19.5-3.292,27.145" fill="none" stroke="#bf3976" stroke-linecap="round" stroke-miterlimit="10" stroke-width="2"/>
        <path id="Trazado_114381" data-name="Trazado 114381" d="M565.841,1454.63s.439,11.78-5.553,3.273c-4.607-6.538-9.007-3.273-5.312,3.13.892,1.544,2.376,3.585,3.8,12.036" fill="none" stroke="#bf3976" stroke-linecap="round" stroke-miterlimit="10" stroke-width="2"/>
      </g>
    </g>
  </g>
</svg>
