<svg xmlns="http://www.w3.org/2000/svg" width="901.08" height="181.475" viewBox="0 0 901.08 181.475">
  <g id="Grupo_58776" data-name="Grupo 58776" transform="translate(-348.977 -4848.499)">
    <g id="Grupo_58416" data-name="Grupo 58416" transform="translate(72.484 3256.698)">
      <path id="Rectángulo_5603" data-name="Rectángulo 5603" d="M0,0H216.991V172.375H0Z" transform="translate(307.505 1596.141)" fill="#f2faff" stroke="#afafaf" stroke-width="1"/>
      <rect id="Rectángulo_5604" data-name="Rectángulo 5604" width="216.991" height="172.375" transform="translate(311.156 1600.4)" fill="#d8d8d8" stroke="#afafaf" stroke-miterlimit="10" stroke-width="1"/>
      <g id="Grupo_58411" data-name="Grupo 58411">
        <g id="Grupo_58365" data-name="Grupo 58365">
          <path id="Trazado_114303" data-name="Trazado 114303" d="M277.517,1630.988s5.169.127,7.2-.448c1.583-.448,3.584-2.538.717-3.464-4.443-1.435-1.911-4.063,1.075-3.674,2.9.377,15.92,2.748,22.163,2.688" fill="none" stroke="#bf3976" stroke-linecap="round" stroke-miterlimit="10" stroke-width="2"/>
          <path id="Trazado_114304" data-name="Trazado 114304" d="M293.317,1620.325s9.618-.359,2.672,4.535c-5.339,3.761-2.672,7.354,2.555,4.337,1.261-.728,2.928-1.94,9.827-3.106" fill="none" stroke="#bf3976" stroke-linecap="round" stroke-miterlimit="10" stroke-width="2"/>
        </g>
        <g id="Grupo_58367" data-name="Grupo 58367">
          <path id="Trazado_114307" data-name="Trazado 114307" d="M559.853,1621.486s-5.169-.126-7.2.448c-1.583.448-3.584,2.539-.717,3.465,4.443,1.434,1.912,4.062-1.075,3.673-2.9-.377-15.92-2.747-22.162-2.688" fill="none" stroke="#bf3976" stroke-linecap="round" stroke-miterlimit="10" stroke-width="2"/>
          <path id="Trazado_114308" data-name="Trazado 114308" d="M544.052,1632.148s-9.617.359-2.671-4.534c5.338-3.761,2.671-7.354-2.555-4.337-1.261.728-2.927,1.94-9.827,3.106" fill="none" stroke="#bf3976" stroke-linecap="round" stroke-miterlimit="10" stroke-width="2"/>
        </g>
        <line id="Línea_370" data-name="Línea 370" x2="214.814" transform="translate(311.156 1626.318)" fill="none" stroke="#bf3976" stroke-linecap="round" stroke-miterlimit="10" stroke-width="2" stroke-dasharray="4 5"/>
      </g>
      <g id="Costura_plana_revés_de_la_tela" data-name="Costura plana revés de la tela" style="isolation: isolate">
        <path id="Trazado_114939" data-name="Trazado 114939" d="M-48.036-3.9h-1.75V0h-2.2V-10.664h3.962a4.479,4.479,0,0,1,2.915.842,2.907,2.907,0,0,1,1.025,2.38,3.281,3.281,0,0,1-.472,1.82A3.222,3.222,0,0,1-45.985-4.46L-43.678-.1V0h-2.358Zm-1.75-1.78h1.772A1.815,1.815,0,0,0-46.732-6.1a1.505,1.505,0,0,0,.454-1.161,1.611,1.611,0,0,0-.428-1.187,1.781,1.781,0,0,0-1.315-.432h-1.765ZM-38.9.146A3.89,3.89,0,0,1-41.741-.923a3.8,3.8,0,0,1-1.095-2.849v-.205a4.787,4.787,0,0,1,.461-2.135,3.386,3.386,0,0,1,1.307-1.45,3.669,3.669,0,0,1,1.93-.509,3.289,3.289,0,0,1,2.56,1.025,4.167,4.167,0,0,1,.934,2.908v.864H-40.69a1.966,1.966,0,0,0,.619,1.245,1.871,1.871,0,0,0,1.307.469,2.285,2.285,0,0,0,1.912-.886l1.04,1.165A3.178,3.178,0,0,1-37.1-.231,4.229,4.229,0,0,1-38.9.146Zm-.242-6.511a1.323,1.323,0,0,0-1.022.427,2.209,2.209,0,0,0-.5,1.221h2.944v-.169A1.576,1.576,0,0,0-38.1-5.979,1.365,1.365,0,0,0-39.144-6.365Zm7.573,3.779L-30.1-7.925h2.212L-30.56,0h-2.021l-2.673-7.925h2.212ZM-23.4.146A3.89,3.89,0,0,1-26.243-.923a3.8,3.8,0,0,1-1.095-2.849v-.205a4.787,4.787,0,0,1,.461-2.135,3.386,3.386,0,0,1,1.307-1.45,3.669,3.669,0,0,1,1.93-.509,3.289,3.289,0,0,1,2.56,1.025,4.167,4.167,0,0,1,.934,2.908v.864h-5.046a1.966,1.966,0,0,0,.619,1.245,1.871,1.871,0,0,0,1.307.469,2.285,2.285,0,0,0,1.912-.886l1.04,1.165A3.178,3.178,0,0,1-21.6-.231,4.229,4.229,0,0,1-23.4.146Zm-.242-6.511a1.323,1.323,0,0,0-1.022.427,2.209,2.209,0,0,0-.5,1.221h2.944v-.169a1.576,1.576,0,0,0-.381-1.092A1.365,1.365,0,0,0-23.646-6.365Zm.19-4.885h2.307l-2.029,2.271H-24.9Zm8.8,9.06a.682.682,0,0,0-.385-.612,4.368,4.368,0,0,0-1.234-.4Q-19.1-3.794-19.1-5.6a2.178,2.178,0,0,1,.875-1.761,3.531,3.531,0,0,1,2.289-.707,3.8,3.8,0,0,1,2.413.71,2.239,2.239,0,0,1,.9,1.846h-2.117a1.024,1.024,0,0,0-.293-.751,1.24,1.24,0,0,0-.916-.3,1.267,1.267,0,0,0-.828.242.763.763,0,0,0-.293.615.652.652,0,0,0,.333.568,3.428,3.428,0,0,0,1.124.374,9.183,9.183,0,0,1,1.333.355,2.19,2.19,0,0,1,1.677,2.131,2.067,2.067,0,0,1-.93,1.754,4.013,4.013,0,0,1-2.4.67A4.191,4.191,0,0,1-17.7-.209a2.968,2.968,0,0,1-1.212-.974,2.263,2.263,0,0,1-.439-1.337h2.007a1.105,1.105,0,0,0,.417.864,1.656,1.656,0,0,0,1.04.3,1.533,1.533,0,0,0,.919-.231A.718.718,0,0,0-14.652-2.19Zm6.826-1.831a4.776,4.776,0,0,1,.831-2.952,2.7,2.7,0,0,1,2.274-1.1,2.427,2.427,0,0,1,1.912.864V-11.25H-.685V0H-2.6l-.1-.842A2.491,2.491,0,0,1-4.735.146,2.69,2.69,0,0,1-6.98-.956,4.93,4.93,0,0,1-7.826-4.021Zm2.117.151a3.146,3.146,0,0,0,.388,1.714,1.263,1.263,0,0,0,1.128.6,1.416,1.416,0,0,0,1.384-.831V-5.533a1.4,1.4,0,0,0-1.37-.831Q-5.709-6.365-5.709-3.87ZM4.6.146A3.89,3.89,0,0,1,1.765-.923,3.8,3.8,0,0,1,.67-3.772v-.205a4.787,4.787,0,0,1,.461-2.135,3.386,3.386,0,0,1,1.307-1.45,3.669,3.669,0,0,1,1.93-.509,3.289,3.289,0,0,1,2.56,1.025,4.167,4.167,0,0,1,.934,2.908v.864H2.816a1.966,1.966,0,0,0,.619,1.245,1.871,1.871,0,0,0,1.307.469,2.285,2.285,0,0,0,1.912-.886l1.04,1.165A3.178,3.178,0,0,1,6.405-.231,4.229,4.229,0,0,1,4.6.146ZM4.362-6.365a1.323,1.323,0,0,0-1.022.427,2.209,2.209,0,0,0-.5,1.221H5.782v-.169A1.576,1.576,0,0,0,5.4-5.979,1.365,1.365,0,0,0,4.362-6.365ZM15.033,0H12.909V-11.25h2.124Zm6.335,0a2.351,2.351,0,0,1-.212-.71,2.561,2.561,0,0,1-2,.857,2.814,2.814,0,0,1-1.93-.674,2.167,2.167,0,0,1-.765-1.7A2.24,2.24,0,0,1,17.4-4.16a4.608,4.608,0,0,1,2.7-.681h.974V-5.3a1.306,1.306,0,0,0-.282-.879,1.109,1.109,0,0,0-.89-.33,1.261,1.261,0,0,0-.839.256.871.871,0,0,0-.3.7H16.637a2.126,2.126,0,0,1,.425-1.274,2.808,2.808,0,0,1,1.2-.919,4.378,4.378,0,0,1,1.743-.333,3.459,3.459,0,0,1,2.325.736,2.575,2.575,0,0,1,.861,2.069v3.435a3.789,3.789,0,0,0,.315,1.707V0Zm-1.75-1.472a1.823,1.823,0,0,0,.864-.209,1.371,1.371,0,0,0,.586-.56V-3.6h-.791q-1.589,0-1.692,1.1l-.007.125a.847.847,0,0,0,.278.652A1.081,1.081,0,0,0,19.618-1.472Zm11.47-8.4v1.948h1.355v1.553H31.088v3.955a.944.944,0,0,0,.168.63.846.846,0,0,0,.645.19,3.376,3.376,0,0,0,.623-.051v1.6a4.358,4.358,0,0,1-1.282.19A2.021,2.021,0,0,1,28.971-2.1v-4.27H27.814V-7.925h1.157V-9.873ZM37.269.146A3.89,3.89,0,0,1,34.431-.923a3.8,3.8,0,0,1-1.095-2.849v-.205A4.787,4.787,0,0,1,33.8-6.112,3.386,3.386,0,0,1,35.1-7.562a3.669,3.669,0,0,1,1.93-.509,3.289,3.289,0,0,1,2.56,1.025,4.167,4.167,0,0,1,.934,2.908v.864H35.482A1.966,1.966,0,0,0,36.1-2.029a1.871,1.871,0,0,0,1.307.469,2.285,2.285,0,0,0,1.912-.886l1.04,1.165A3.178,3.178,0,0,1,39.071-.231,4.229,4.229,0,0,1,37.269.146Zm-.242-6.511a1.323,1.323,0,0,0-1.022.427,2.209,2.209,0,0,0-.5,1.221h2.944v-.169a1.576,1.576,0,0,0-.381-1.092A1.365,1.365,0,0,0,37.028-6.365ZM43.964,0H41.84V-11.25h2.124ZM50.3,0a2.351,2.351,0,0,1-.212-.71,2.561,2.561,0,0,1-2,.857,2.814,2.814,0,0,1-1.93-.674,2.167,2.167,0,0,1-.765-1.7,2.24,2.24,0,0,1,.934-1.934,4.608,4.608,0,0,1,2.7-.681H50V-5.3a1.306,1.306,0,0,0-.282-.879,1.109,1.109,0,0,0-.89-.33,1.261,1.261,0,0,0-.839.256.871.871,0,0,0-.3.7H45.568a2.126,2.126,0,0,1,.425-1.274,2.808,2.808,0,0,1,1.2-.919,4.378,4.378,0,0,1,1.743-.333,3.459,3.459,0,0,1,2.325.736,2.575,2.575,0,0,1,.861,2.069v3.435a3.789,3.789,0,0,0,.315,1.707V0Zm-1.75-1.472a1.823,1.823,0,0,0,.864-.209A1.371,1.371,0,0,0,50-2.241V-3.6h-.791q-1.589,0-1.692,1.1l-.007.125a.847.847,0,0,0,.278.652A1.081,1.081,0,0,0,48.549-1.472Z" transform="translate(420.937 1760.486)"/>
      </g>
      <g id="Grupo_58413" data-name="Grupo 58413">
        <path id="Trazado_114940" data-name="Trazado 114940" d="M-22.244,0V-10.664h3.281a4.983,4.983,0,0,1,2.516.634,4.418,4.418,0,0,1,1.732,1.8,5.557,5.557,0,0,1,.623,2.655v.491A5.573,5.573,0,0,1-14.7-2.439,4.38,4.38,0,0,1-16.428-.645,5.021,5.021,0,0,1-18.94,0Zm2.2-8.884v7.119h1.062a2.386,2.386,0,0,0,1.97-.842,3.806,3.806,0,0,0,.7-2.41v-.564a3.867,3.867,0,0,0-.674-2.465,2.378,2.378,0,0,0-1.97-.839Zm7.083,4.849a4.7,4.7,0,0,1,.454-2.1A3.324,3.324,0,0,1-11.2-7.566a3.814,3.814,0,0,1,1.981-.505A3.609,3.609,0,0,1-6.6-7.09,3.939,3.939,0,0,1-5.471-4.424l.015.542A4.142,4.142,0,0,1-6.475-.956,3.539,3.539,0,0,1-9.207.146a3.556,3.556,0,0,1-2.736-1.1A4.215,4.215,0,0,1-12.964-3.94Zm2.117.15a2.962,2.962,0,0,0,.425,1.727,1.4,1.4,0,0,0,1.216.6,1.4,1.4,0,0,0,1.2-.591,3.241,3.241,0,0,0,.432-1.889,2.933,2.933,0,0,0-.432-1.716,1.4,1.4,0,0,0-1.216-.609,1.382,1.382,0,0,0-1.2.605A3.3,3.3,0,0,0-10.847-3.885Zm13.835,0a4.8,4.8,0,0,1-.813,2.97A2.693,2.693,0,0,1-.1.146,2.474,2.474,0,0,1-2.153-.842l-.1.842h-1.9V-11.25h2.117v4.036A2.411,2.411,0,0,1-.11-8.071,2.715,2.715,0,0,1,2.164-7.006a4.806,4.806,0,0,1,.824,3ZM.872-4.051A3.17,3.17,0,0,0,.491-5.81,1.287,1.287,0,0,0-.645-6.365a1.4,1.4,0,0,0-1.392.83V-2.4A1.415,1.415,0,0,0-.63-1.56,1.307,1.307,0,0,0,.718-2.574,5.245,5.245,0,0,0,.872-4.051ZM6.526,0H4.4V-11.25H6.526Zm5.391.146A3.89,3.89,0,0,1,9.078-.923,3.8,3.8,0,0,1,7.983-3.772v-.205a4.787,4.787,0,0,1,.461-2.135,3.386,3.386,0,0,1,1.307-1.45,3.669,3.669,0,0,1,1.93-.509,3.289,3.289,0,0,1,2.56,1.025,4.167,4.167,0,0,1,.934,2.908v.864H10.129a1.966,1.966,0,0,0,.619,1.245,1.871,1.871,0,0,0,1.307.469,2.285,2.285,0,0,0,1.912-.886l1.04,1.165A3.178,3.178,0,0,1,13.718-.231,4.229,4.229,0,0,1,11.917.146Zm-.242-6.511a1.323,1.323,0,0,0-1.022.427,2.209,2.209,0,0,0-.5,1.221H13.1v-.169a1.576,1.576,0,0,0-.381-1.092A1.365,1.365,0,0,0,11.675-6.365Zm7.134,4.658h3.875V0H16.106V-1.289l3.728-4.929H16.216V-7.925h6.35v1.247Z" transform="translate(740.651 1760.486)"/>
        <path id="Rectángulo_5603-2" data-name="Rectángulo 5603" d="M0,0H216.991V100.349H0Z" transform="translate(635.325 1632.154)" fill="#f2faff" stroke="#afafaf" stroke-width="0.763"/>
        <line id="Línea_370-2" data-name="Línea 370" x2="214.814" transform="translate(637.413 1682.329)" fill="none" stroke="#bf3976" stroke-linecap="round" stroke-miterlimit="10" stroke-width="1.5" stroke-dasharray="4 5"/>
        <line id="Línea_370-3" data-name="Línea 370" x2="214.814" transform="translate(637.413 1657.242)" fill="none" stroke="#bf3976" stroke-linecap="round" stroke-miterlimit="10" stroke-width="1.5" stroke-dasharray="4 5"/>
        <line id="Línea_370-4" data-name="Línea 370" x2="214.814" transform="translate(637.413 1707.416)" fill="none" stroke="#bf3976" stroke-linecap="round" stroke-miterlimit="10" stroke-width="1.5" stroke-dasharray="4 5"/>
        <path id="Trazado_114382" data-name="Trazado 114382" d="M647.881,1606.4c-12.556-10.263-46.957-.9-30.657,47.4" fill="none" stroke="#d10000" stroke-linecap="round" stroke-miterlimit="10" stroke-width="2"/>
        <path id="Trazado_114383" data-name="Trazado 114383" d="M647.881,1753.672c-12.556,10.263-46.957.9-30.657-47.4" fill="none" stroke="#d10000" stroke-linecap="round" stroke-miterlimit="10" stroke-width="2"/>
        <line id="Línea_382" data-name="Línea 382" x2="121.677" y2="100.349" transform="translate(668.446 1632.154)" fill="none" stroke="#d10000" stroke-linecap="round" stroke-miterlimit="10" stroke-width="2"/>
        <g id="Grupo_58412" data-name="Grupo 58412">
          <g id="Trazado_114384" data-name="Trazado 114384" fill="#d10000" stroke-miterlimit="10">
            <path d="M 719.9406127929688 1668.2900390625 L 719.6517944335938 1668.05078125 L 718.1898193359375 1666.83984375 L 718.0132446289062 1666.693603515625 L 718.0629272460938 1666.469848632812 L 718.7781982421875 1663.24560546875 L 718.1576538085938 1662.73193359375 L 716.391845703125 1664.864135742188 L 716.1526489257812 1665.153076171875 L 715.8638305664062 1664.913818359375 L 714.5018310546875 1663.785766601562 L 714.2130737304688 1663.546630859375 L 714.4522094726562 1663.2578125 L 719.9281616210938 1656.644897460938 L 720.1673583984375 1656.35595703125 L 720.4561767578125 1656.59521484375 L 722.9132080078125 1658.630126953125 C 723.7584838867188 1659.330444335938 724.2644653320312 1660.082763671875 724.4171142578125 1660.866333007812 C 724.5737915039062 1661.6787109375 724.3499755859375 1662.45703125 723.7520141601562 1663.180053710938 C 723.332763671875 1663.685546875 722.8603515625 1664.0234375 722.3475341796875 1664.184692382812 C 722.096923828125 1664.262939453125 721.8311157226562 1664.302490234375 721.556884765625 1664.302490234375 C 721.389892578125 1664.302490234375 721.2174072265625 1664.287841796875 721.041015625 1664.258666992188 L 720.3111572265625 1667.774169921875 L 720.2921752929688 1667.865478515625 L 720.2327880859375 1667.937133789062 L 720.1798095703125 1668.001098632812 L 719.9406127929688 1668.2900390625 Z M 719.5499877929688 1661.05126953125 L 720.3601684570312 1661.72216796875 C 720.6107177734375 1661.929443359375 720.8502807617188 1662.034545898438 721.072021484375 1662.034545898438 C 721.0852661132812 1662.034545898438 721.0984497070312 1662.0341796875 721.1116333007812 1662.033447265625 C 721.3370361328125 1662.020629882812 721.5366821289062 1661.906005859375 721.7210083007812 1661.68310546875 C 721.9150390625 1661.448364257812 721.9996337890625 1661.224731445312 721.9794921875 1660.999267578125 C 721.9598388671875 1660.7783203125 721.8054809570312 1660.546630859375 721.520751953125 1660.310668945312 L 720.7156372070312 1659.643920898438 L 719.5499877929688 1661.05126953125 Z" stroke="none"/>
            <path d="M 719.8909912109375 1667.761962890625 L 719.9439697265625 1667.697998046875 L 720.7509765625 1663.81103515625 C 721.294921875 1663.961059570312 721.7898559570312 1663.965698242188 722.2349853515625 1663.827026367188 C 722.6799926757812 1663.68701171875 723.0889892578125 1663.391967773438 723.4630126953125 1662.941040039062 C 723.989013671875 1662.305053710938 724.1840209960938 1661.637939453125 724.0490112304688 1660.93798828125 C 723.9130249023438 1660.239990234375 723.4550170898438 1659.566040039062 722.6740112304688 1658.9189453125 L 720.2169799804688 1656.884033203125 L 714.7410278320312 1663.496948242188 L 716.10302734375 1664.625 L 718.1079711914062 1662.203979492188 L 719.1939697265625 1663.10302734375 L 718.4290161132812 1666.551025390625 L 719.8909912109375 1667.761962890625 M 720.666015625 1659.115966796875 L 721.760009765625 1660.02197265625 C 722.1270141601562 1660.326049804688 722.323974609375 1660.640014648438 722.35302734375 1660.965942382812 C 722.3820190429688 1661.291015625 722.2680053710938 1661.609985351562 722.010009765625 1661.921997070312 C 721.7570190429688 1662.22802734375 721.4639892578125 1662.389038085938 721.1320190429688 1662.407958984375 C 720.7998657226562 1662.425048828125 720.4630126953125 1662.2939453125 720.1209716796875 1662.010986328125 L 719.02197265625 1661.100952148438 L 720.666015625 1659.115966796875 M 719.990234375 1668.817993164062 L 717.5975341796875 1666.836181640625 L 718.3624267578125 1663.388305664062 L 718.2073364257812 1663.259887695312 L 716.2022705078125 1665.681030273438 L 713.68505859375 1663.59619140625 L 720.11767578125 1655.828002929688 L 723.1524047851562 1658.34130859375 C 724.0662231445312 1659.098510742188 724.6155395507812 1659.923828125 724.78515625 1660.794555664062 C 724.9642333984375 1661.723022460938 724.7137451171875 1662.605590820312 724.0409545898438 1663.419067382812 C 723.5745239257812 1663.9814453125 723.0428466796875 1664.359130859375 722.4600830078125 1664.54248046875 C 722.1061401367188 1664.652954101562 721.7312622070312 1664.696166992188 721.3385620117188 1664.670288085938 L 720.6404418945312 1668.032836914062 L 719.990234375 1668.817993164062 Z M 720.0780639648438 1661.001708984375 L 720.5993041992188 1661.433349609375 C 720.7288208007812 1661.540405273438 720.92138671875 1661.6708984375 721.0911254882812 1661.659057617188 C 721.14111328125 1661.65625 721.2623291015625 1661.649291992188 721.4319458007812 1661.444091796875 C 721.6221923828125 1661.214111328125 721.6099853515625 1661.077514648438 721.60595703125 1661.032592773438 C 721.595947265625 1660.919799804688 721.4776611328125 1660.762084960938 721.281494140625 1660.599487304688 L 720.7652587890625 1660.171997070312 L 720.0780639648438 1661.001708984375 Z" stroke="none" fill="#f2eaee"/>
          </g>
          <g id="Trazado_114385" data-name="Trazado 114385" fill="#d10000" stroke-miterlimit="10">
            <path d="M 724.7924194335938 1671.465454101562 C 724.5316772460938 1671.465454101562 724.2626342773438 1671.429565429688 723.9927978515625 1671.358642578125 C 723.4783325195312 1671.223754882812 722.9888916015625 1670.966552734375 722.5381469726562 1670.594116210938 C 721.7429809570312 1669.935668945312 721.2905883789062 1669.138549804688 721.193115234375 1668.224853515625 C 721.0955200195312 1667.30712890625 721.3876342773438 1666.4296875 722.0612182617188 1665.61669921875 L 722.1652221679688 1665.490112304688 C 722.609619140625 1664.954345703125 723.1199951171875 1664.55419921875 723.6834716796875 1664.29931640625 C 724.1133422851562 1664.105834960938 724.5541381835938 1664.0078125 724.9940795898438 1664.0078125 C 725.1449584960938 1664.0078125 725.2982788085938 1664.019287109375 725.4497680664062 1664.042114257812 C 726.0399780273438 1664.13232421875 726.5916137695312 1664.387329101562 727.0902099609375 1664.800170898438 C 727.843505859375 1665.423706054688 728.2463989257812 1666.171264648438 728.28759765625 1667.021850585938 C 728.325927734375 1667.858154296875 727.9896240234375 1668.712036132812 727.2880859375 1669.560913085938 L 726.842529296875 1670.097534179688 L 726.6033325195312 1670.3857421875 L 726.3148193359375 1670.146850585938 L 725.752685546875 1669.681396484375 L 725.7547607421875 1669.735961914062 L 725.8017578125 1670.992919921875 L 725.8129272460938 1671.291625976562 L 725.5242919921875 1671.369140625 C 725.286376953125 1671.432983398438 725.0401611328125 1671.465454101562 724.7924194335938 1671.465454101562 Z M 723.564208984375 1667.869140625 C 723.5277099609375 1668.012573242188 723.5202026367188 1668.156372070312 723.5411987304688 1668.302856445312 C 723.580078125 1668.580444335938 723.7230224609375 1668.817749023438 723.978271484375 1669.029296875 C 724.2977294921875 1669.293334960938 724.6212158203125 1669.421752929688 724.9669189453125 1669.421752929688 C 725.07421875 1669.421752929688 725.185791015625 1669.409057617188 725.2984619140625 1669.383911132812 L 725.3734130859375 1669.367309570312 L 723.564208984375 1667.869140625 Z M 724.783203125 1666.396362304688 L 725.9369506835938 1667.35107421875 C 726.0158081054688 1667.207153320312 726.0513916015625 1667.070190429688 726.0428466796875 1666.94189453125 C 726.0308227539062 1666.761840820312 725.928955078125 1666.59521484375 725.7313842773438 1666.432250976562 C 725.58154296875 1666.307739257812 725.43017578125 1666.247680664062 725.2677001953125 1666.247680664062 C 725.235595703125 1666.247680664062 725.2023315429688 1666.25 725.1687622070312 1666.254638671875 C 725.045654296875 1666.271362304688 724.9168090820312 1666.318725585938 724.783203125 1666.396362304688 Z" stroke="none"/>
            <path d="M 724.7924194335938 1671.090454101562 C 725.0082397460938 1671.090454101562 725.2197265625 1671.062622070312 725.427001953125 1671.006958007812 L 725.3800048828125 1669.75 C 724.791748046875 1669.881103515625 724.2459106445312 1669.737060546875 723.739013671875 1669.317993164062 C 723.4119873046875 1669.046997070312 723.2219848632812 1668.72705078125 723.1699829101562 1668.35595703125 C 723.1170043945312 1667.985961914062 723.2009887695312 1667.623046875 723.4249877929688 1667.266967773438 L 726.5540161132812 1669.858032226562 L 726.9990234375 1669.322021484375 C 727.6420288085938 1668.5439453125 727.947021484375 1667.781982421875 727.9130249023438 1667.0400390625 C 727.8770141601562 1666.296020507812 727.5239868164062 1665.64599609375 726.8510131835938 1665.088989257812 C 726.4030151367188 1664.718017578125 725.9180297851562 1664.493041992188 725.3939819335938 1664.412963867188 C 724.8690185546875 1664.33349609375 724.3510131835938 1664.409912109375 723.8380126953125 1664.640991210938 C 723.3250122070312 1664.873046875 722.864013671875 1665.234985351562 722.4550170898438 1665.72802734375 L 722.3499755859375 1665.85595703125 C 721.7410278320312 1666.590942382812 721.47900390625 1667.366943359375 721.5659790039062 1668.18505859375 C 721.6530151367188 1669.0009765625 722.0560302734375 1669.7080078125 722.7769775390625 1670.305053710938 C 723.1859741210938 1670.642944335938 723.6229858398438 1670.8740234375 724.0880126953125 1670.995971679688 C 724.3278198242188 1671.058959960938 724.5625610351562 1671.090454101562 724.7924194335938 1671.090454101562 M 725.2677001953125 1665.872680664062 C 725.5185546875 1665.872680664062 725.752685546875 1665.96240234375 725.969970703125 1666.142944335938 C 726.2490234375 1666.373046875 726.3980102539062 1666.631958007812 726.4169921875 1666.9169921875 C 726.4359741210938 1667.202026367188 726.3280029296875 1667.493041992188 726.0919799804688 1667.7900390625 L 726.0059814453125 1667.89501953125 L 724.1790161132812 1666.383056640625 C 724.4970092773438 1666.093017578125 724.8090209960938 1665.925048828125 725.1179809570312 1665.883056640625 C 725.1685180664062 1665.876098632812 725.2184448242188 1665.872680664062 725.2677001953125 1665.872680664062 M 724.7924194335938 1671.840454101562 C 724.4995727539062 1671.840454101562 724.198486328125 1671.800415039062 723.8975830078125 1671.721435546875 C 723.3301391601562 1671.572631835938 722.7923583984375 1671.290649414062 722.29931640625 1670.88330078125 C 721.4258422851562 1670.159912109375 720.9284057617188 1669.279052734375 720.8201904296875 1668.2646484375 C 720.7115478515625 1667.242553710938 721.0319213867188 1666.271240234375 721.7724609375 1665.37744140625 L 721.8753662109375 1665.252075195312 C 722.3576049804688 1664.670776367188 722.9131469726562 1664.236206054688 723.5289306640625 1663.957641601562 C 724.1727905273438 1663.66796875 724.8410034179688 1663.571655273438 725.5055541992188 1663.671264648438 C 726.1646728515625 1663.77197265625 726.7777099609375 1664.054565429688 727.329345703125 1664.511352539062 C 728.1671752929688 1665.204833984375 728.6156616210938 1666.04345703125 728.6621704101562 1667.003784179688 C 728.7048950195312 1667.936889648438 728.33984375 1668.876953125 727.5771484375 1669.7998046875 L 726.652587890625 1670.913452148438 L 726.1587524414062 1670.504516601562 L 726.1987915039062 1671.576171875 L 725.62158203125 1671.731323242188 C 725.3519287109375 1671.8037109375 725.072998046875 1671.840454101562 724.7924194335938 1671.840454101562 Z" stroke="none" fill="#f2eaee"/>
          </g>
          <g id="Trazado_114386" data-name="Trazado 114386" fill="#d10000" stroke-miterlimit="10">
            <path d="M 729.4042358398438 1675.373779296875 C 729.1867065429688 1675.373779296875 728.9635620117188 1675.346801757812 728.740966796875 1675.293701171875 C 728.252197265625 1675.177612304688 727.7909545898438 1674.942993164062 727.3704833984375 1674.596313476562 C 726.5862426757812 1673.946166992188 726.1682739257812 1673.166137695312 726.12744140625 1672.277221679688 C 726.0872192382812 1671.402954101562 726.4265747070312 1670.524658203125 727.1360473632812 1669.6669921875 L 727.2080688476562 1669.579956054688 C 727.892578125 1668.753540039062 728.6790161132812 1668.267822265625 729.545654296875 1668.13623046875 C 729.6937866210938 1668.113891601562 729.8427124023438 1668.1025390625 729.9887084960938 1668.1025390625 C 730.7109985351562 1668.1025390625 731.4075317382812 1668.375610351562 732.0588989257812 1668.913940429688 C 732.7461547851562 1669.483764648438 733.14208984375 1670.153686523438 733.2361450195312 1670.905517578125 C 733.3287963867188 1671.667236328125 733.102294921875 1672.389526367188 732.5630493164062 1673.053466796875 L 732.3243408203125 1673.347412109375 L 732.03271484375 1673.105834960938 L 730.802734375 1672.086791992188 L 730.520751953125 1671.853149414062 L 730.7476196289062 1671.565673828125 C 730.8950805664062 1671.378784179688 730.9605712890625 1671.195068359375 730.9478759765625 1671.00390625 C 730.9356689453125 1670.8212890625 730.8513793945312 1670.67138671875 730.6826782226562 1670.532592773438 C 730.5267944335938 1670.403198242188 730.377197265625 1670.3408203125 730.22412109375 1670.3408203125 C 730.16845703125 1670.3408203125 730.1102294921875 1670.34912109375 730.0509033203125 1670.365478515625 C 729.870361328125 1670.414916992188 729.56103515625 1670.588134765625 729.1074829101562 1671.134521484375 L 728.9964599609375 1671.269409179688 C 728.53662109375 1671.824462890625 728.422607421875 1672.160034179688 728.4077758789062 1672.344116210938 C 728.39599609375 1672.486083984375 728.413818359375 1672.701293945312 728.7022705078125 1672.940185546875 C 728.8677978515625 1673.077758789062 729.0270385742188 1673.14453125 729.1893310546875 1673.14453125 C 729.1954345703125 1673.14453125 729.2015380859375 1673.144409179688 729.2076416015625 1673.144165039062 C 729.3639526367188 1673.139404296875 729.4927368164062 1673.0732421875 729.61279296875 1672.93603515625 L 729.85302734375 1672.661376953125 L 730.1341552734375 1672.894165039062 L 731.3651123046875 1673.913208007812 L 731.6565551757812 1674.154418945312 L 731.4126586914062 1674.443725585938 C 731.0880737304688 1674.828735351562 730.6825561523438 1675.099609375 730.207275390625 1675.248779296875 C 729.9476318359375 1675.33154296875 729.6769409179688 1675.373779296875 729.4042358398438 1675.373779296875 Z" stroke="none"/>
            <path d="M 729.4042358398438 1674.998779296875 C 729.6388549804688 1674.998779296875 729.8692016601562 1674.962890625 730.094970703125 1674.890991210938 C 730.5029907226562 1674.762939453125 730.8469848632812 1674.532958984375 731.1259765625 1674.202026367188 L 729.89501953125 1673.182983398438 C 729.7059936523438 1673.399047851562 729.47998046875 1673.510986328125 729.218994140625 1673.51904296875 C 729.2091064453125 1673.519287109375 729.19921875 1673.51953125 729.1893310546875 1673.51953125 C 728.9379272460938 1673.51953125 728.6958618164062 1673.422485351562 728.4630126953125 1673.22900390625 C 728.1480102539062 1672.968017578125 728.0050048828125 1672.663940429688 728.0339965820312 1672.31396484375 C 728.06201171875 1671.965942382812 728.2869873046875 1671.537963867188 728.7069702148438 1671.031005859375 L 728.8189697265625 1670.89501953125 C 729.2340087890625 1670.39501953125 729.6110229492188 1670.097045898438 729.9509887695312 1670.004028320312 C 730.2910766601562 1669.91015625 730.614990234375 1669.989135742188 730.9210205078125 1670.243041992188 C 731.1699829101562 1670.447998046875 731.302978515625 1670.693969726562 731.322021484375 1670.97900390625 C 731.3410034179688 1671.264038085938 731.2479858398438 1671.536987304688 731.0419921875 1671.797973632812 L 732.27197265625 1672.817016601562 C 732.7479858398438 1672.23095703125 732.9439697265625 1671.609008789062 732.864013671875 1670.952026367188 C 732.781982421875 1670.296020507812 732.4340209960938 1669.712036132812 731.8200073242188 1669.203002929688 C 731.116943359375 1668.621826171875 730.3765869140625 1668.390014648438 729.6019897460938 1668.506958007812 C 728.8250122070312 1668.625 728.1240234375 1669.06201171875 727.4970092773438 1669.818969726562 L 727.4249877929688 1669.906005859375 C 726.7739868164062 1670.692993164062 726.4660034179688 1671.47705078125 726.5020141601562 1672.260009765625 C 726.5380249023438 1673.04296875 726.906982421875 1673.724975585938 727.6090087890625 1674.307006835938 C 727.9849853515625 1674.616943359375 728.3900146484375 1674.824951171875 728.8280029296875 1674.928955078125 C 729.022705078125 1674.975463867188 729.21484375 1674.998779296875 729.4042358398438 1674.998779296875 M 729.4042358398438 1675.748779296875 C 729.1574096679688 1675.748779296875 728.905029296875 1675.718383789062 728.6539916992188 1675.658447265625 C 728.109375 1675.529174804688 727.5970458984375 1675.269165039062 727.1319580078125 1674.8857421875 C 726.26220703125 1674.164672851562 725.7987670898438 1673.293334960938 725.7528076171875 1672.29443359375 C 725.7081909179688 1671.324096679688 726.0763549804688 1670.359741210938 726.8471069335938 1669.427978515625 L 726.919189453125 1669.3408203125 C 727.664306640625 1668.441284179688 728.5289306640625 1667.911376953125 729.4893188476562 1667.765502929688 C 729.6563110351562 1667.740234375 729.8240356445312 1667.7275390625 729.9887084960938 1667.7275390625 C 730.800537109375 1667.7275390625 731.5774536132812 1668.029418945312 732.2978515625 1668.624877929688 C 733.0614013671875 1669.257934570312 733.501953125 1670.00927734375 733.6082153320312 1670.859008789062 C 733.7138061523438 1671.726806640625 733.4600219726562 1672.5439453125 732.8541259765625 1673.289916992188 L 732.3766479492188 1673.877685546875 L 729.99951171875 1671.908203125 L 730.4532470703125 1671.333374023438 C 730.5830078125 1671.1689453125 730.5762329101562 1671.067138671875 730.5736694335938 1671.02880859375 C 730.5712280273438 1670.991821289062 730.5665893554688 1670.922729492188 730.4443359375 1670.822143554688 C 730.3162841796875 1670.7158203125 730.2468872070312 1670.7158203125 730.22412109375 1670.7158203125 C 730.2022094726562 1670.7158203125 730.1775512695312 1670.719482421875 730.1508178710938 1670.726928710938 C 730.0833129882812 1670.745361328125 729.8351440429688 1670.845092773438 729.3960571289062 1671.3740234375 L 729.285888671875 1671.5078125 C 728.8391723632812 1672.047119140625 728.7869873046875 1672.307250976562 728.7815551757812 1672.374145507812 C 728.7772827148438 1672.425903320312 728.7703857421875 1672.509643554688 728.9415283203125 1672.651489257812 C 729.0835571289062 1672.76953125 729.1631469726562 1672.76953125 729.1893310546875 1672.76953125 L 729.1963500976562 1672.769409179688 C 729.2238159179688 1672.7685546875 729.2621459960938 1672.767333984375 729.33056640625 1672.689208984375 L 729.8110961914062 1672.139892578125 L 732.1871337890625 1674.106811523438 L 731.6994018554688 1674.685424804688 C 731.328125 1675.125854492188 730.8638916015625 1675.435791015625 730.319580078125 1675.606567382812 C 730.0245971679688 1675.700561523438 729.715576171875 1675.748779296875 729.4042358398438 1675.748779296875 Z" stroke="none" fill="#f2eaee"/>
          </g>
          <g id="Trazado_114387" data-name="Trazado 114387" fill="#d10000" stroke-miterlimit="10">
            <path d="M 733.06396484375 1678.984741210938 L 732.8079223632812 1678.878173828125 C 732.4512329101562 1678.729736328125 732.1189575195312 1678.528564453125 731.8203125 1678.2802734375 C 730.7478637695312 1677.39306640625 730.6383056640625 1676.298461914062 731.512451171875 1675.19873046875 L 731.5148315429688 1675.195678710938 L 731.5172119140625 1675.19287109375 L 733.4710693359375 1672.833618164062 L 733.042724609375 1672.478637695312 L 732.7540893554688 1672.239501953125 L 732.9931030273438 1671.950805664062 L 733.7901000976562 1670.987915039062 L 734.0293579101562 1670.698852539062 L 734.3182373046875 1670.938354492188 L 734.7473754882812 1671.293823242188 L 735.5081176757812 1670.374877929688 L 735.7472534179688 1670.086059570312 L 736.0360717773438 1670.3251953125 L 737.3480834960938 1671.411010742188 L 737.6370239257812 1671.650146484375 L 737.3978881835938 1671.939086914062 L 736.6369018554688 1672.8583984375 L 737.188232421875 1673.315307617188 L 737.476806640625 1673.554443359375 L 737.2378540039062 1673.843139648438 L 736.4408569335938 1674.80615234375 L 736.2017822265625 1675.094970703125 L 735.9129028320312 1674.85595703125 L 735.3606567382812 1674.398803710938 L 733.56884765625 1676.562255859375 C 733.4620361328125 1676.691772460938 733.4414672851562 1676.762329101562 733.4376220703125 1676.781982421875 C 733.446533203125 1676.800537109375 733.4821166992188 1676.861083984375 733.60302734375 1676.961059570312 C 733.7322387695312 1677.067993164062 733.8505249023438 1677.15087890625 733.9547119140625 1677.207275390625 L 734.3558349609375 1677.4248046875 L 734.0648193359375 1677.776123046875 L 733.2408447265625 1678.771118164062 L 733.06396484375 1678.984741210938 Z" stroke="none"/>
            <path d="M 735.7969970703125 1670.614013671875 L 734.7969970703125 1671.822021484375 L 734.0789794921875 1671.22705078125 L 733.281982421875 1672.18994140625 L 733.9990234375 1672.784057617188 L 731.8060302734375 1675.432006835938 C 731.0549926757812 1676.376953125 731.1389770507812 1677.22998046875 732.0599975585938 1677.991943359375 C 732.3319702148438 1678.218017578125 732.6300048828125 1678.39794921875 732.9520263671875 1678.531982421875 L 733.7760009765625 1677.536987304688 C 733.64697265625 1677.467041015625 733.5089721679688 1677.369995117188 733.364013671875 1677.25 C 733.1669921875 1677.087036132812 733.0659790039062 1676.93701171875 733.06201171875 1676.801025390625 C 733.0570068359375 1676.663940429688 733.1300048828125 1676.505004882812 733.280029296875 1676.322998046875 L 735.3109741210938 1673.870971679688 L 736.1519775390625 1674.567016601562 L 736.948974609375 1673.60400390625 L 736.1090087890625 1672.907958984375 L 737.1090087890625 1671.699951171875 L 735.7969970703125 1670.614013671875 M 735.697509765625 1669.55810546875 L 738.1650390625 1671.600463867188 L 737.1647338867188 1672.808715820312 L 738.004638671875 1673.504760742188 L 736.2515869140625 1675.623046875 L 735.4103393554688 1674.9267578125 L 733.915771484375 1676.731201171875 C 734.014892578125 1676.807983398438 734.0872802734375 1676.852661132812 734.1334228515625 1676.877685546875 L 734.9356689453125 1677.3125 L 733.1759033203125 1679.4375 L 732.663818359375 1679.224365234375 C 732.2725219726562 1679.0615234375 731.9080810546875 1678.840942382812 731.58056640625 1678.568725585938 C 730.3443603515625 1677.5458984375 730.2120361328125 1676.232177734375 731.2188720703125 1674.96533203125 L 731.2283935546875 1674.95361328125 L 732.943115234375 1672.883178710938 L 732.2262573242188 1672.289184570312 L 733.9796752929688 1670.170776367188 L 734.69775390625 1670.765747070312 L 735.697509765625 1669.55810546875 Z" stroke="none" fill="#f2eaee"/>
          </g>
          <g id="Trazado_114388" data-name="Trazado 114388" fill="#d10000" stroke-miterlimit="10">
            <path d="M 737.4176025390625 1681.981079101562 C 736.668701171875 1681.981079101562 735.9514770507812 1681.701782226562 735.2859497070312 1681.151000976562 C 734.4970092773438 1680.497802734375 734.0706176757812 1679.705932617188 734.0186157226562 1678.797485351562 C 733.9671630859375 1677.898803710938 734.2991333007812 1677.010986328125 735.0052490234375 1676.15869140625 L 735.0530395507812 1676.100952148438 C 735.4923095703125 1675.570434570312 735.99609375 1675.175415039062 736.550537109375 1674.926879882812 C 736.96435546875 1674.740844726562 737.3933715820312 1674.646484375 737.8253784179688 1674.646484375 C 737.9842529296875 1674.646484375 738.1461181640625 1674.659301757812 738.3064575195312 1674.684692382812 C 738.89697265625 1674.77783203125 739.4584350585938 1675.042236328125 739.9752197265625 1675.47021484375 C 740.7120971679688 1676.080444335938 741.1338500976562 1676.820678710938 741.2286987304688 1677.67041015625 C 741.3219604492188 1678.516357421875 741.07421875 1679.355346679688 740.4924926757812 1680.164916992188 L 740.4879150390625 1680.171264648438 L 740.4830322265625 1680.177490234375 L 740.2140502929688 1680.520385742188 L 740.2109375 1680.5244140625 L 740.2077026367188 1680.528198242188 C 739.523193359375 1681.35400390625 738.724853515625 1681.833374023438 737.8348388671875 1681.952758789062 C 737.6957397460938 1681.971557617188 737.5552368164062 1681.981079101562 737.4176025390625 1681.981079101562 Z M 738.1207275390625 1676.905883789062 C 738.0513305664062 1676.905883789062 737.9778442382812 1676.916381835938 737.9022827148438 1676.936889648438 C 737.600830078125 1677.019775390625 737.242431640625 1677.303833007812 736.8670654296875 1677.757934570312 C 736.5330200195312 1678.161010742188 736.35205078125 1678.523681640625 736.3289794921875 1678.836547851562 C 736.3090209960938 1679.1064453125 736.407958984375 1679.32177734375 736.6402587890625 1679.514282226562 C 736.8058471679688 1679.651245117188 736.9725952148438 1679.718017578125 737.14990234375 1679.718017578125 C 737.14990234375 1679.718017578125 737.1499633789062 1679.718017578125 737.1499633789062 1679.718017578125 C 737.2156982421875 1679.718017578125 737.2850952148438 1679.708740234375 737.356201171875 1679.690673828125 C 737.5641479492188 1679.638793945312 737.9116821289062 1679.4541015625 738.3980102539062 1678.865966796875 C 738.7254028320312 1678.470336914062 738.9030151367188 1678.109008789062 738.9259643554688 1677.791870117188 C 738.947509765625 1677.513793945312 738.8504638671875 1677.296264648438 738.6205444335938 1677.105590820312 C 738.4584350585938 1676.971313476562 738.294921875 1676.905883789062 738.1207275390625 1676.905883789062 Z" stroke="none"/>
            <path d="M 737.8253784179688 1675.021484375 C 737.4454345703125 1675.021484375 737.0714721679688 1675.103881835938 736.7039794921875 1675.26904296875 C 736.2000122070312 1675.494995117188 735.7459716796875 1675.85205078125 735.3419799804688 1676.339965820312 L 735.2940063476562 1676.39794921875 C 734.64697265625 1677.178955078125 734.3469848632812 1677.972045898438 734.3930053710938 1678.776000976562 C 734.4390258789062 1679.579956054688 734.8159790039062 1680.275024414062 735.5250244140625 1680.862060546875 C 736.2329711914062 1681.447998046875 736.98681640625 1681.689208984375 737.7849731445312 1681.5810546875 C 738.5830078125 1681.473999023438 739.2940063476562 1681.04296875 739.9190063476562 1680.288940429688 L 740.18798828125 1679.946044921875 C 740.7169799804688 1679.2099609375 740.9390258789062 1678.464965820312 740.8560180664062 1677.712036132812 C 740.77197265625 1676.958984375 740.3989868164062 1676.307983398438 739.7360229492188 1675.759033203125 C 739.27001953125 1675.373046875 738.7730102539062 1675.137939453125 738.2479858398438 1675.055053710938 C 738.1063232421875 1675.03271484375 737.9654541015625 1675.021484375 737.8253784179688 1675.021484375 M 737.1498413085938 1680.093017578125 C 736.8839111328125 1680.093017578125 736.6343994140625 1679.996215820312 736.4010009765625 1679.802978515625 C 736.073974609375 1679.531982421875 735.926025390625 1679.201049804688 735.9550170898438 1678.808959960938 C 735.9840087890625 1678.416015625 736.1909790039062 1677.985961914062 736.5780029296875 1677.51904296875 C 737.0120239257812 1676.994018554688 737.4219970703125 1676.680053710938 737.8040161132812 1676.574951171875 C 738.1870727539062 1676.470947265625 738.5390625 1676.551147460938 738.8599853515625 1676.817016601562 C 739.1829833984375 1677.0849609375 739.3309936523438 1677.4189453125 739.2999877929688 1677.818969726562 C 739.27099609375 1678.218994140625 739.0659790039062 1678.64697265625 738.68701171875 1679.10498046875 C 738.2429809570312 1679.641967773438 737.8300170898438 1679.958984375 737.448974609375 1680.053955078125 C 737.3470458984375 1680.079956054688 737.2473754882812 1680.093017578125 737.1498413085938 1680.093017578125 M 737.8253784179688 1674.271484375 C 738.0037841796875 1674.271484375 738.185302734375 1674.285888671875 738.3649291992188 1674.314208984375 C 739.0228271484375 1674.418090820312 739.6450805664062 1674.709838867188 740.2144165039062 1675.181396484375 C 741.0287475585938 1675.855712890625 741.4954223632812 1676.67919921875 741.6013793945312 1677.62890625 C 741.7051391601562 1678.570190429688 741.4345092773438 1679.496704101562 740.7969970703125 1680.3837890625 L 740.778076171875 1680.408935546875 L 740.4964599609375 1680.767578125 C 739.7498779296875 1681.668212890625 738.8711547851562 1682.192016601562 737.8847045898438 1682.324340820312 C 737.7293090820312 1682.345458984375 737.5718994140625 1682.356079101562 737.4176025390625 1682.356079101562 C 736.5790405273438 1682.356079101562 735.7814331054688 1682.0478515625 735.0468139648438 1681.439819335938 C 734.17431640625 1680.717407226562 733.7024536132812 1679.835693359375 733.6442260742188 1678.81884765625 C 733.5872192382812 1677.822631835938 733.9479370117188 1676.847045898438 734.7164306640625 1675.91943359375 L 734.7640991210938 1675.86181640625 C 735.2404174804688 1675.28662109375 735.789794921875 1674.85693359375 736.3971557617188 1674.584716796875 C 736.8592529296875 1674.376953125 737.3399658203125 1674.271484375 737.8253784179688 1674.271484375 Z M 737.1498413085938 1679.343017578125 C 737.1843872070312 1679.343017578125 737.2225952148438 1679.337646484375 737.263427734375 1679.327270507812 C 737.3673095703125 1679.301391601562 737.64892578125 1679.183471679688 738.1090087890625 1678.627075195312 C 738.3818359375 1678.29736328125 738.5349731445312 1677.999145507812 738.5519409179688 1677.764770507812 C 738.5623168945312 1677.630615234375 738.5372314453125 1677.523803710938 738.3811645507812 1677.394287109375 C 738.2599487304688 1677.293823242188 738.1782836914062 1677.280883789062 738.1207275390625 1677.280883789062 C 738.0845336914062 1677.280883789062 738.0441284179688 1677.286865234375 738.0005493164062 1677.298706054688 C 737.8728637695312 1677.333862304688 737.5897216796875 1677.472290039062 737.1560668945312 1677.996948242188 C 736.8029174804688 1678.422973632812 736.71484375 1678.70361328125 736.7030029296875 1678.864135742188 C 736.6937255859375 1678.9892578125 736.7200317382812 1679.09326171875 736.8795166015625 1679.225463867188 C 737.0053100585938 1679.32958984375 737.090087890625 1679.343017578125 737.1498413085938 1679.343017578125 Z" stroke="none" fill="#f2eaee"/>
          </g>
          <g id="Trazado_114389" data-name="Trazado 114389" fill="#d10000" stroke-miterlimit="10">
            <path d="M 745.55859375 1685.6240234375 L 745.269775390625 1685.384765625 L 742.7128295898438 1683.266845703125 L 742.4238891601562 1683.027465820312 L 742.663330078125 1682.73876953125 L 743.540283203125 1681.680786132812 L 743.7794189453125 1681.392211914062 L 744.068115234375 1681.631225585938 L 746.6251220703125 1683.748168945312 L 746.9140014648438 1683.9873046875 L 746.6748046875 1684.276123046875 L 745.7977905273438 1685.335083007812 L 745.55859375 1685.6240234375 Z" stroke="none"/>
            <path d="M 745.5089721679688 1685.095947265625 L 746.385986328125 1684.036987304688 L 743.8289794921875 1681.920043945312 L 742.9520263671875 1682.97802734375 L 745.5089721679688 1685.095947265625 M 745.6082153320312 1686.151977539062 L 741.8958129882812 1683.077026367188 L 743.7299194335938 1680.864379882812 L 747.4420776367188 1683.937622070312 L 745.6082153320312 1686.151977539062 Z" stroke="none" fill="#f2eaee"/>
          </g>
          <g id="Trazado_114390" data-name="Trazado 114390" fill="#d10000" stroke-miterlimit="10">
            <path d="M 752.4896240234375 1695.243896484375 L 752.2008056640625 1695.004760742188 L 750.8388061523438 1693.876831054688 L 750.550048828125 1693.6376953125 L 750.7891235351562 1693.348876953125 L 752.8960571289062 1690.8037109375 L 750.817626953125 1689.08203125 L 748.7098388671875 1691.627075195312 L 748.4706420898438 1691.915893554688 L 748.1818237304688 1691.6767578125 L 746.81982421875 1690.548828125 L 746.531005859375 1690.309692382812 L 746.7702026367188 1690.020874023438 L 752.2461547851562 1683.407836914062 L 752.4854125976562 1683.118774414062 L 752.7742919921875 1683.358276367188 L 754.1362915039062 1684.4873046875 L 754.4248657226562 1684.7265625 L 754.185791015625 1685.015258789062 L 752.2060546875 1687.4052734375 L 754.285400390625 1689.127075195312 L 756.2651977539062 1686.736694335938 L 756.50439453125 1686.447998046875 L 756.793212890625 1686.687133789062 L 758.1552124023438 1687.815185546875 L 758.4440307617188 1688.054443359375 L 758.204833984375 1688.343139648438 L 752.7288208007812 1694.955078125 L 752.4896240234375 1695.243896484375 Z" stroke="none"/>
            <path d="M 752.4400024414062 1694.715942382812 L 757.916015625 1688.10400390625 L 756.5540161132812 1686.975952148438 L 754.3350219726562 1689.655029296875 L 751.677978515625 1687.454956054688 L 753.89697265625 1684.776000976562 L 752.5349731445312 1683.64697265625 L 747.0590209960938 1690.260009765625 L 748.4210205078125 1691.387939453125 L 750.7680053710938 1688.553955078125 L 753.4240112304688 1690.754028320312 L 751.0780029296875 1693.588012695312 L 752.4400024414062 1694.715942382812 M 752.5392456054688 1695.77197265625 L 750.0220947265625 1693.687377929688 L 752.3681640625 1690.853271484375 L 750.8671875 1689.609985351562 L 748.520263671875 1692.443969726562 L 746.0030517578125 1690.359252929688 L 752.4359130859375 1682.590698242188 L 754.9528198242188 1684.677001953125 L 752.7340698242188 1687.355712890625 L 754.2357788085938 1688.59912109375 L 756.454833984375 1685.919921875 L 758.9720458984375 1688.004760742188 L 752.5392456054688 1695.77197265625 Z" stroke="none" fill="#f2eaee"/>
          </g>
          <g id="Trazado_114391" data-name="Trazado 114391" fill="#d10000" stroke-miterlimit="10">
            <path d="M 754.978759765625 1697.304931640625 L 754.68994140625 1697.06591796875 L 753.3729248046875 1695.975952148438 L 753.0839233398438 1695.736694335938 L 753.3231811523438 1695.44775390625 L 757.3931884765625 1690.53369140625 L 757.6323852539062 1690.244873046875 L 757.9212036132812 1690.484130859375 L 759.2371826171875 1691.57421875 L 759.5259399414062 1691.8134765625 L 759.2868041992188 1692.102172851562 L 755.2178344726562 1697.01611328125 L 754.978759765625 1697.304931640625 Z M 759.4628295898438 1691.35595703125 C 759.1552734375 1691.35595703125 758.861572265625 1691.241821289062 758.58984375 1691.016845703125 C 758.292724609375 1690.770874023438 758.1214599609375 1690.475952148438 758.0807495117188 1690.14013671875 C 758.0396728515625 1689.801391601562 758.1388549804688 1689.475708007812 758.3677368164062 1689.198364257812 C 758.5955200195312 1688.924438476562 758.8928833007812 1688.766723632812 759.228515625 1688.741088867188 C 759.2587890625 1688.73876953125 759.2891845703125 1688.737670898438 759.3191528320312 1688.737670898438 C 759.6231689453125 1688.737670898438 759.9169311523438 1688.853271484375 760.1921997070312 1689.081176757812 C 760.4928588867188 1689.330932617188 760.6650390625 1689.62646484375 760.7044067382812 1689.960083007812 C 760.7434692382812 1690.304077148438 760.6470336914062 1690.618041992188 760.41796875 1690.89501953125 C 760.1878662109375 1691.172241210938 759.8861083984375 1691.330444335938 759.5449829101562 1691.353149414062 C 759.517578125 1691.35498046875 759.4901123046875 1691.35595703125 759.4628295898438 1691.35595703125 Z" stroke="none"/>
            <path d="M 759.3191528320312 1689.112670898438 C 759.2984619140625 1689.112670898438 759.2777709960938 1689.113403320312 759.2570190429688 1689.114990234375 C 759.02001953125 1689.133056640625 758.8200073242188 1689.240966796875 758.656982421875 1689.43701171875 C 758.4920043945312 1689.636962890625 758.4240112304688 1689.85595703125 758.4530029296875 1690.094970703125 C 758.4819946289062 1690.333984375 758.6079711914062 1690.545043945312 758.8289794921875 1690.72802734375 C 759.0499267578125 1690.911010742188 759.2807006835938 1690.993774414062 759.52001953125 1690.97900390625 C 759.760009765625 1690.963012695312 759.9630126953125 1690.85595703125 760.1290283203125 1690.656005859375 C 760.2919921875 1690.458984375 760.3590087890625 1690.241943359375 760.3319702148438 1690.004028320312 C 760.3040161132812 1689.766967773438 760.177001953125 1689.556030273438 759.9530029296875 1689.369995117188 C 759.7457885742188 1689.198364257812 759.5352783203125 1689.112670898438 759.3191528320312 1689.112670898438 M 757.6820068359375 1690.77294921875 L 753.6119995117188 1695.68701171875 L 754.9290161132812 1696.776977539062 L 758.9979858398438 1691.863037109375 L 757.6820068359375 1690.77294921875 M 759.3191528320312 1688.362670898438 C 759.712890625 1688.362670898438 760.0870971679688 1688.507202148438 760.431396484375 1688.792358398438 C 760.9014282226562 1689.182739257812 761.041748046875 1689.618896484375 761.0768432617188 1689.916137695312 C 761.1273193359375 1690.360595703125 760.999267578125 1690.780639648438 760.7069091796875 1691.134033203125 C 760.4923706054688 1691.392456054688 760.2284545898438 1691.571044921875 759.9307861328125 1691.661865234375 L 760.0538940429688 1691.763793945312 L 755.0285034179688 1697.832885742188 L 752.5557861328125 1695.786499023438 L 757.5828247070312 1689.716918945312 L 757.7056884765625 1689.818725585938 C 757.7394409179688 1689.509887695312 757.8654174804688 1689.217895507812 758.0784912109375 1688.959716796875 C 758.3735961914062 1688.604736328125 758.7608032226562 1688.400634765625 759.2000122070312 1688.3671875 C 759.2401123046875 1688.364135742188 759.2799682617188 1688.362670898438 759.3191528320312 1688.362670898438 Z" stroke="none" fill="#f2eaee"/>
          </g>
          <g id="Trazado_114392" data-name="Trazado 114392" fill="#d10000" stroke-miterlimit="10">
            <path d="M 757.4446411132812 1699.348022460938 L 757.1558227539062 1699.108764648438 L 755.8388061523438 1698.017822265625 L 755.550048828125 1697.778564453125 L 755.7891845703125 1697.489868164062 L 761.566162109375 1690.513916015625 L 761.8053588867188 1690.224975585938 L 762.0941772460938 1690.464233398438 L 763.4111938476562 1691.55517578125 L 763.699951171875 1691.79443359375 L 763.4608154296875 1692.083129882812 L 757.683837890625 1699.05908203125 L 757.4446411132812 1699.348022460938 Z" stroke="none"/>
            <path d="M 757.39501953125 1698.819946289062 L 763.1719970703125 1691.843994140625 L 761.85498046875 1690.753051757812 L 756.0780029296875 1697.72900390625 L 757.39501953125 1698.819946289062 M 757.4942626953125 1699.8759765625 L 755.0220336914062 1697.828247070312 L 761.7557373046875 1689.697021484375 L 764.2279663085938 1691.744750976562 L 757.4942626953125 1699.8759765625 Z" stroke="none" fill="#f2eaee"/>
          </g>
          <g id="Trazado_114393" data-name="Trazado 114393" fill="#d10000" stroke-miterlimit="10">
            <path d="M 762.4199829101562 1702.684814453125 C 761.6697998046875 1702.684814453125 760.9520874023438 1702.405639648438 760.286865234375 1701.854858398438 C 759.497802734375 1701.20068359375 759.071533203125 1700.408935546875 759.0195922851562 1699.50146484375 C 758.96826171875 1698.602905273438 759.3001708984375 1697.715087890625 760.0062255859375 1696.86279296875 L 760.052001953125 1696.806396484375 C 760.4933471679688 1696.274536132812 760.9969482421875 1695.880004882812 761.5513305664062 1695.630981445312 C 761.9668579101562 1695.444580078125 762.396728515625 1695.35009765625 762.8292236328125 1695.35009765625 C 762.9868774414062 1695.35009765625 763.1475219726562 1695.362670898438 763.3068237304688 1695.387573242188 C 763.8991088867188 1695.482299804688 764.4603271484375 1695.746948242188 764.9761962890625 1696.174194335938 C 765.7136840820312 1696.784790039062 766.1351318359375 1697.525268554688 766.228759765625 1698.374877929688 C 766.322998046875 1699.219604492188 766.0756225585938 1700.058837890625 765.4935302734375 1700.868896484375 L 765.4890747070312 1700.875 L 765.4844360351562 1700.881103515625 L 765.2153930664062 1701.22509765625 L 765.212158203125 1701.229125976562 L 765.2089233398438 1701.233032226562 C 764.5263061523438 1702.057983398438 763.7282104492188 1702.536987304688 762.8369140625 1702.65673828125 C 762.6974487304688 1702.675415039062 762.5571899414062 1702.684814453125 762.4199829101562 1702.684814453125 Z M 763.1218872070312 1697.609985351562 C 763.0524291992188 1697.609985351562 762.9788818359375 1697.620361328125 762.9032592773438 1697.640991210938 C 762.603515625 1697.723266601562 762.2454223632812 1698.007446289062 761.8688354492188 1698.462158203125 C 761.5342407226562 1698.865844726562 761.3529663085938 1699.228515625 761.3299560546875 1699.54052734375 C 761.3099975585938 1699.810546875 761.4090576171875 1700.025756835938 761.6417236328125 1700.2177734375 C 761.807861328125 1700.355712890625 761.974853515625 1700.42236328125 762.153076171875 1700.42236328125 C 762.2188110351562 1700.42236328125 762.2882080078125 1700.413330078125 762.3594360351562 1700.395385742188 C 762.5653076171875 1700.3427734375 762.9140014648438 1700.156616210938 763.3989868164062 1699.569946289062 C 763.7261962890625 1699.174560546875 763.9041748046875 1698.812866210938 763.9280395507812 1698.494873046875 C 763.9488525390625 1698.217529296875 763.8516235351562 1697.999877929688 763.6220092773438 1697.809936523438 C 763.4595336914062 1697.67529296875 763.2960205078125 1697.609985351562 763.1218872070312 1697.609985351562 Z" stroke="none"/>
            <path d="M 762.8292236328125 1695.72509765625 C 762.4486083984375 1695.72509765625 762.0740966796875 1695.807495117188 761.7050170898438 1695.973022460938 C 761.2020263671875 1696.198974609375 760.7470092773438 1696.556030273438 760.343017578125 1697.04296875 L 760.2949829101562 1697.10205078125 C 759.6480102539062 1697.883056640625 759.3480224609375 1698.676025390625 759.3939819335938 1699.47998046875 C 759.4400024414062 1700.284057617188 759.8179931640625 1700.97900390625 760.5260009765625 1701.566040039062 C 761.2350463867188 1702.152954101562 761.988037109375 1702.39208984375 762.7869873046875 1702.285034179688 C 763.583984375 1702.177978515625 764.2960205078125 1701.748046875 764.9199829101562 1700.994018554688 L 765.1890258789062 1700.650024414062 C 765.718017578125 1699.913940429688 765.9400024414062 1699.1689453125 765.8560180664062 1698.416015625 C 765.7730102539062 1697.662963867188 765.4000244140625 1697.011962890625 764.7369995117188 1696.463012695312 C 764.27099609375 1696.077026367188 763.7739868164062 1695.842041015625 763.2490234375 1695.758056640625 C 763.1082153320312 1695.736083984375 762.9683227539062 1695.72509765625 762.8292236328125 1695.72509765625 M 762.153076171875 1700.79736328125 C 761.8861083984375 1700.79736328125 761.63623046875 1700.700561523438 761.4030151367188 1700.506958007812 C 761.0759887695312 1700.237060546875 760.927001953125 1699.905029296875 760.9559936523438 1699.512939453125 C 760.9849853515625 1699.119995117188 761.1920166015625 1698.691040039062 761.5800170898438 1698.223022460938 C 762.0139770507812 1697.698974609375 762.4229736328125 1697.384033203125 762.8049926757812 1697.279052734375 C 763.1878662109375 1697.175048828125 763.5399780273438 1697.255126953125 763.8610229492188 1697.52099609375 C 764.1849975585938 1697.788940429688 764.3319702148438 1698.123046875 764.302001953125 1698.52294921875 C 764.27197265625 1698.922973632812 764.0670166015625 1699.350952148438 763.68798828125 1699.808959960938 C 763.2440185546875 1700.345947265625 762.8309936523438 1700.661987304688 762.4509887695312 1700.759033203125 C 762.3494262695312 1700.78466796875 762.2501220703125 1700.79736328125 762.153076171875 1700.79736328125 M 762.8292236328125 1694.97509765625 C 763.0061645507812 1694.97509765625 763.186279296875 1694.9892578125 763.3645629882812 1695.016967773438 C 764.0254516601562 1695.122802734375 764.647216796875 1695.414794921875 765.2153930664062 1695.885375976562 C 766.0303955078125 1696.560180664062 766.496826171875 1697.384033203125 766.6015014648438 1698.333862304688 C 766.706298828125 1699.273193359375 766.4359741210938 1700.200073242188 765.7980346679688 1701.087768554688 L 765.77978515625 1701.112060546875 L 765.497802734375 1701.47216796875 C 764.7531127929688 1702.3720703125 763.8746337890625 1702.895629882812 762.8868408203125 1703.0283203125 C 762.7307739257812 1703.049194335938 762.5737915039062 1703.059814453125 762.4199829101562 1703.059814453125 C 761.5801391601562 1703.059814453125 760.7820434570312 1702.751586914062 760.0477294921875 1702.143798828125 C 759.175048828125 1701.420166015625 758.703369140625 1700.53857421875 758.6452026367188 1699.522827148438 C 758.5883178710938 1698.527587890625 758.9483642578125 1697.553100585938 759.7152099609375 1696.626220703125 L 759.7658081054688 1696.564086914062 C 760.2415771484375 1695.990600585938 760.7906494140625 1695.5615234375 761.397705078125 1695.288940429688 C 761.8619384765625 1695.08056640625 762.3434448242188 1694.97509765625 762.8292236328125 1694.97509765625 Z M 762.153076171875 1700.04736328125 C 762.18798828125 1700.04736328125 762.2265625 1700.042114257812 762.267822265625 1700.03173828125 C 762.3663330078125 1700.006591796875 762.6505737304688 1699.88671875 763.1099853515625 1699.3310546875 C 763.3829345703125 1699.001220703125 763.5364379882812 1698.702514648438 763.5540771484375 1698.466796875 C 763.56396484375 1698.335205078125 763.538818359375 1698.227783203125 763.383056640625 1698.098999023438 C 763.2611083984375 1697.997924804688 763.1793823242188 1697.984985351562 763.121826171875 1697.984985351562 C 763.0856323242188 1697.984985351562 763.045166015625 1697.990966796875 763.0015258789062 1698.002807617188 C 762.8745727539062 1698.037719726562 762.5928955078125 1698.17578125 762.1576538085938 1698.701416015625 C 761.8040161132812 1699.1279296875 761.7157592773438 1699.408081054688 761.7039794921875 1699.568115234375 C 761.6947021484375 1699.693115234375 761.7210083007812 1699.796997070312 761.8804321289062 1699.928466796875 C 762.0075073242188 1700.034057617188 762.0927734375 1700.04736328125 762.153076171875 1700.04736328125 Z" stroke="none" fill="#f2eaee"/>
          </g>
        </g>
      </g>
      <g id="Grupo_58415" data-name="Grupo 58415">
        <path id="Trazado_114394" data-name="Trazado 114394" d="M951.957,1614.752c75.342-2.4-16.566-22.574-25.491-22.45,0,0-14.517,4.569-2.265,38.7S951.957,1614.752,951.957,1614.752Z" fill="#d8d8d8" stroke="#afafaf" stroke-miterlimit="10" stroke-width="1"/>
        <path id="Trazado_114395" data-name="Trazado 114395" d="M920.625,1600.143c-.531,1.448,3.713-3.844,3.576,11.262v157.111h216.991V1600.143Z" fill="#f2faff" stroke="#afafaf" stroke-miterlimit="10" stroke-width="0.988"/>
        <g id="Costura_plana_revés_de_la_tela-2" data-name="Costura plana revés de la tela" style="isolation: isolate">
          <text id="Revés_de_la_tela" data-name="Revés de la tela" transform="translate(1037.633 1760.486)" font-size="15" font-family="Roboto-Bold, Roboto" font-weight="700" style="isolation: isolate"><tspan x="-52.936" y="0">Revés de la tela</tspan></text>
        </g>
        <path id="Trazado_114396" data-name="Trazado 114396" d="M932.064,1599.323c-3.326-.018-4.487,1.49-4.212,10.427v163.025h216.991V1600.4Z" fill="#d8d8d8" stroke="#afafaf" stroke-miterlimit="10" stroke-width="1"/>
        <path id="Trazado_114397" data-name="Trazado 114397" d="M927.428,1592.3c9.7,5.133,6.179,39.107.536,38.7h217.574s9.914-19.12.6-38.7Z" fill="#f2faff" stroke="#afafaf" stroke-miterlimit="10" stroke-width="0.763"/>
        <path id="Trazado_114398" data-name="Trazado 114398" d="M921.318,1600.143l-1.542.343-.476,6.921.683,7.181,1.744,9.106,2.36,6.629.252-13.786-.315-6.923-.241-5.119-.747-2.735Z" fill="#afafaf"/>
        <g id="Grupo_58414" data-name="Grupo 58414">
          <g id="Grupo_58365-2" data-name="Grupo 58365">
            <path id="Trazado_114303-2" data-name="Trazado 114303" d="M894.213,1630.988s5.169.127,7.2-.448c1.583-.448,3.584-2.538.717-3.464-4.443-1.435-1.911-4.063,1.075-3.674,2.9.377,15.92,2.748,22.163,2.688" fill="none" stroke="#bf3976" stroke-linecap="round" stroke-miterlimit="10" stroke-width="2"/>
            <path id="Trazado_114304-2" data-name="Trazado 114304" d="M910.013,1620.325s9.618-.359,2.672,4.535c-5.339,3.761-2.672,7.354,2.555,4.337,1.261-.728,2.928-1.94,9.827-3.106" fill="none" stroke="#bf3976" stroke-linecap="round" stroke-miterlimit="10" stroke-width="2"/>
          </g>
          <g id="Grupo_58367-2" data-name="Grupo 58367">
            <path id="Trazado_114307-2" data-name="Trazado 114307" d="M1176.549,1621.486s-5.169-.126-7.2.448c-1.583.448-3.584,2.539-.717,3.465,4.443,1.434,1.912,4.062-1.075,3.673-2.9-.377-15.92-2.747-22.162-2.688" fill="none" stroke="#bf3976" stroke-linecap="round" stroke-miterlimit="10" stroke-width="2"/>
            <path id="Trazado_114308-2" data-name="Trazado 114308" d="M1160.748,1632.148s-9.617.359-2.671-4.534c5.338-3.761,2.671-7.354-2.555-4.337-1.261.728-2.927,1.94-9.827,3.106" fill="none" stroke="#bf3976" stroke-linecap="round" stroke-miterlimit="10" stroke-width="2"/>
          </g>
          <line id="Línea_370-5" data-name="Línea 370" x2="214.814" transform="translate(927.852 1626.318)" fill="none" stroke="#bf3976" stroke-linecap="round" stroke-miterlimit="10" stroke-width="2" stroke-dasharray="4 5"/>
        </g>
      </g>
    </g>
  </g>
</svg>
