<svg id="Grupo_58341" data-name="Grupo 58341" xmlns="http://www.w3.org/2000/svg" width="62.717" height="70" viewBox="0 0 62.717 70">
  <path id="Trazado_114213" data-name="Trazado 114213" d="M592.808,61.943a1.055,1.055,0,0,0,1.055-1.055V50.313a1.057,1.057,0,0,1,1.055-1.055h8.115a1.055,1.055,0,0,0,0-2.111h-8.115a3.17,3.17,0,0,0-3.166,3.166V60.887a1.055,1.055,0,0,0,1.056,1.056Z" transform="translate(-570.471 -47.147)" fill="#bf3976"/>
  <path id="Trazado_114214" data-name="Trazado 114214" d="M724.935,47.147h-22.9a1.055,1.055,0,1,0,0,2.111H721.02v.211a1.055,1.055,0,0,0,2.111,0v-.211h1.8a1.057,1.057,0,0,1,1.055,1.055V78.479a1.062,1.062,0,0,1-.412.837l-3.909,3.005a23.739,23.739,0,0,0-9.272,18.821v3.239a1.055,1.055,0,1,0,2.111,0v-3.239a21.763,21.763,0,0,1,8.447-17.148l3.909-3.005a3.186,3.186,0,0,0,1.237-2.51V50.313a3.17,3.17,0,0,0-3.166-3.166Z" transform="translate(-665.384 -47.147)" fill="#bf3976"/>
  <path id="Trazado_114215" data-name="Trazado 114215" d="M484.912,163.254a1.039,1.039,0,0,0-1.055,1.021v6.254a1.04,1.04,0,0,1-1.055,1.021h-18.44v-.905a1.056,1.056,0,0,0-2.111,0v.905h-2.01a1.04,1.04,0,0,1-1.055-1.021V148.582h17.222a2.121,2.121,0,0,0,2.152-2.083V129.2a14.374,14.374,0,0,1,2.554-8.174l3.723-5.414a1.733,1.733,0,0,0,.09-1.832,1.851,1.851,0,0,0-1.626-.942H466.532a2.121,2.121,0,0,0-2.152,2.083,6.6,6.6,0,0,1-6.7,6.486h-5.909a6.6,6.6,0,0,1-6.7-6.486,2.121,2.121,0,0,0-2.152-2.083h-5.736a2.121,2.121,0,0,0-2.152,2.083V146.5a2.121,2.121,0,0,0,2.152,2.083h19.9v21.948a3.12,3.12,0,0,0,3.166,3.064H482.8a3.12,3.12,0,0,0,3.166-3.064v-6.254a1.038,1.038,0,0,0-1.055-1.021ZM437.137,146.5V114.917a.041.041,0,0,1,.042-.04h5.736a.041.041,0,0,1,.042.04,8.684,8.684,0,0,0,8.813,8.529h5.909a8.684,8.684,0,0,0,8.813-8.529.041.041,0,0,1,.042-.04h10.03l-.217.389a1,1,0,0,0,.38,1.4,1.077,1.077,0,0,0,.531.139,1.062,1.062,0,0,0,.912-.507l.856-1.419H482.8l-3.447,5.013a16.364,16.364,0,0,0-2.907,9.306v17.3a.041.041,0,0,1-.041.04H437.179a.041.041,0,0,1-.042-.04Z" transform="translate(-435.026 -103.593)" fill="#bf3976"/>
  <path id="Trazado_114216" data-name="Trazado 114216" d="M844.472,100.7a1.055,1.055,0,0,0,1.055-1.055V95.349a1.055,1.055,0,0,0-2.111,0v4.293A1.055,1.055,0,0,0,844.472,100.7Z" transform="translate(-787.781 -87.661)" fill="#bf3976"/>
  <path id="Trazado_114217" data-name="Trazado 114217" d="M843.417,168.3a1.055,1.055,0,0,0,2.111,0v-4.293a1.055,1.055,0,0,0-2.111,0Z" transform="translate(-787.781 -147.166)" fill="#bf3976"/>
  <path id="Trazado_114218" data-name="Trazado 114218" d="M843.417,236.961a1.055,1.055,0,1,0,2.111,0v-4.293a1.055,1.055,0,1,0-2.111,0Z" transform="translate(-787.781 -206.464)" fill="#bf3976"/>
  <path id="Trazado_114219" data-name="Trazado 114219" d="M630.654,389.79a1.055,1.055,0,1,0-2.111,0v4.416a1.055,1.055,0,0,0,2.111,0Z" transform="translate(-602.112 -342.168)" fill="#bf3976"/>
  <path id="Trazado_114220" data-name="Trazado 114220" d="M629.6,459.363a1.055,1.055,0,0,0-1.055,1.055v4.416a1.055,1.055,0,1,0,2.111,0v-4.416A1.055,1.055,0,0,0,629.6,459.363Z" transform="translate(-602.112 -403.4)" fill="#bf3976"/>
  <path id="Trazado_114221" data-name="Trazado 114221" d="M468.227,322.4h-4.5a1.055,1.055,0,1,0,0,2.111h4.5a1.055,1.055,0,1,0,0-2.111Z" transform="translate(-458.779 -284.804)" fill="#bf3976"/>
  <path id="Trazado_114222" data-name="Trazado 114222" d="M540.25,322.4h-4.5a1.055,1.055,0,1,0,0,2.111h4.5a1.055,1.055,0,0,0,0-2.111Z" transform="translate(-521.11 -284.804)" fill="#bf3976"/>
  <path id="Trazado_114223" data-name="Trazado 114223" d="M701.008,161.986a1.055,1.055,0,0,0-1.4.524,22.628,22.628,0,0,0-1.494,4.472,1.056,1.056,0,1,0,2.061.456,20.528,20.528,0,0,1,1.354-4.054,1.056,1.056,0,0,0-.524-1.4Z" transform="translate(-662.186 -146.248)" fill="#bf3976"/>
  <path id="Trazado_114224" data-name="Trazado 114224" d="M695.516,231.948A1.055,1.055,0,0,0,694.461,233v4.5a1.055,1.055,0,1,0,2.111,0V233A1.055,1.055,0,0,0,695.516,231.948Z" transform="translate(-659.026 -206.756)" fill="#bf3976"/>
  <path id="Trazado_114225" data-name="Trazado 114225" d="M612.274,322.4h-4.5a1.055,1.055,0,0,0,0,2.111h4.5a1.055,1.055,0,1,0,0-2.111Z" transform="translate(-583.32 -284.804)" fill="#bf3976"/>
  <path id="Trazado_114226" data-name="Trazado 114226" d="M682.007,303.971a1.055,1.055,0,0,0-1.055,1.055v1.538H679.8a1.055,1.055,0,0,0,0,2.111H681.3a1.761,1.761,0,0,0,1.759-1.759v-1.889a1.055,1.055,0,0,0-1.056-1.055Z" transform="translate(-645.489 -268.929)" fill="#bf3976"/>
</svg>
