<svg xmlns="http://www.w3.org/2000/svg" width="59.92" height="70" viewBox="0 0 59.92 70">
  <g id="Grupo_58347" data-name="Grupo 58347" transform="translate(-36.862)">
    <path id="Trazado_114277" data-name="Trazado 114277" d="M95.413,0H38.233a1.37,1.37,0,0,0-1.37,1.37V22.015a1.37,1.37,0,0,0,1.37,1.37h32.7V37.648a1.37,1.37,0,0,0,2.74,0V22.015a1.37,1.37,0,0,0-1.37-1.37H39.6V2.74H94.044V67.26H73.671V49.886a1.37,1.37,0,0,0-2.74,0V68.63A1.37,1.37,0,0,0,72.3,70H95.413a1.37,1.37,0,0,0,1.37-1.37V1.37A1.37,1.37,0,0,0,95.413,0Z" transform="translate(-0.001)" fill="#bf3976"/>
    <path id="Trazado_114278" data-name="Trazado 114278" d="M415.161,434.824a1.337,1.337,0,0,0-1.337,1.337V437.5a1.337,1.337,0,1,0,2.673,0v-1.337A1.337,1.337,0,0,0,415.161,434.824Z" transform="translate(-325.221 -375.119)" fill="#bf3976"/>
    <path id="Trazado_114279" data-name="Trazado 114279" d="M416.5,315.926a1.337,1.337,0,0,0-2.673,0v1.337a1.337,1.337,0,0,0,2.673,0Z" transform="translate(-325.22 -271.514)" fill="#bf3976"/>
    <path id="Trazado_114280" data-name="Trazado 114280" d="M416.5,255.808a1.337,1.337,0,0,0-2.673,0v1.337a1.337,1.337,0,1,0,2.673,0Z" transform="translate(-325.22 -219.627)" fill="#bf3976"/>
    <path id="Trazado_114281" data-name="Trazado 114281" d="M330.3,42.75a1.337,1.337,0,1,0,0-2.673h-1.337a1.337,1.337,0,0,0,0,2.673Z" transform="translate(-250.944 -34.731)" fill="#bf3976"/>
    <path id="Trazado_114282" data-name="Trazado 114282" d="M416.5,376.043a1.337,1.337,0,0,0-2.673,0v1.337a1.337,1.337,0,0,0,2.673,0Z" transform="translate(-325.22 -323.399)" fill="#bf3976"/>
    <path id="Trazado_114283" data-name="Trazado 114283" d="M268.85,40.078a1.337,1.337,0,0,0,0,2.673h1.337a1.337,1.337,0,1,0,0-2.673Z" transform="translate(-199.06 -34.732)" fill="#bf3976"/>
    <path id="Trazado_114284" data-name="Trazado 114284" d="M416.5,195.691a1.337,1.337,0,0,0-2.673,0v1.337a1.337,1.337,0,1,0,2.673,0Z" transform="translate(-325.22 -167.742)" fill="#bf3976"/>
    <path id="Trazado_114285" data-name="Trazado 114285" d="M148.615,40.078a1.337,1.337,0,0,0,0,2.673h1.337a1.337,1.337,0,0,0,0-2.673Z" transform="translate(-95.293 -34.732)" fill="#bf3976"/>
    <path id="Trazado_114286" data-name="Trazado 114286" d="M88.5,40.078a1.337,1.337,0,0,0,0,2.673h1.337a1.337,1.337,0,0,0,0-2.673Z" transform="translate(-43.589 -34.732)" fill="#bf3976"/>
    <path id="Trazado_114287" data-name="Trazado 114287" d="M208.732,40.078a1.337,1.337,0,0,0,0,2.673h1.337a1.337,1.337,0,1,0,0-2.673Z" transform="translate(-147.176 -34.732)" fill="#bf3976"/>
    <path id="Trazado_114288" data-name="Trazado 114288" d="M416.5,135.573a1.337,1.337,0,1,0-2.673,0v1.337a1.337,1.337,0,0,0,2.673,0Z" transform="translate(-325.22 -115.856)" fill="#bf3976"/>
    <path id="Trazado_114289" data-name="Trazado 114289" d="M416.5,75.456a1.337,1.337,0,0,0-2.673,0v1.337a1.337,1.337,0,0,0,2.673,0Z" transform="translate(-325.22 -64.232)" fill="#bf3976"/>
    <path id="Trazado_114290" data-name="Trazado 114290" d="M390.42,40.078h-1.337a1.337,1.337,0,1,0,0,2.673h1.337a1.337,1.337,0,0,0,0-2.673Z" transform="translate(-302.622 -34.732)" fill="#bf3976"/>
    <path id="Trazado_114291" data-name="Trazado 114291" d="M206.989,366.708a1.337,1.337,0,0,0,1.337-1.337v-1.337a1.337,1.337,0,0,0-2.673,0v1.337A1.337,1.337,0,0,0,206.989,366.708Z" transform="translate(-145.686 -313.035)" fill="#bf3976"/>
    <path id="Trazado_114292" data-name="Trazado 114292" d="M206.989,426.825a1.337,1.337,0,0,0,1.337-1.337v-1.337a1.337,1.337,0,1,0-2.673,0v1.337A1.337,1.337,0,0,0,206.989,426.825Z" transform="translate(-145.686 -364.712)" fill="#bf3976"/>
    <path id="Trazado_114293" data-name="Trazado 114293" d="M206.989,246.473a1.337,1.337,0,0,0,1.337-1.337V243.8a1.337,1.337,0,1,0-2.673,0v1.337A1.337,1.337,0,0,0,206.989,246.473Z" transform="translate(-145.686 -209.264)" fill="#bf3976"/>
    <path id="Trazado_114294" data-name="Trazado 114294" d="M206.989,306.59a1.337,1.337,0,0,0,1.337-1.337v-1.337a1.337,1.337,0,1,0-2.673,0v1.337A1.337,1.337,0,0,0,206.989,306.59Z" transform="translate(-145.686 -261.149)" fill="#bf3976"/>
    <path id="Trazado_114295" data-name="Trazado 114295" d="M96.595,235.3h1.337a1.337,1.337,0,1,0,0-2.673H96.595a1.337,1.337,0,1,0,0,2.673Z" transform="translate(-50.606 -200.787)" fill="#bf3976"/>
    <path id="Trazado_114296" data-name="Trazado 114296" d="M156.713,235.3h1.337a1.337,1.337,0,0,0,0-2.673h-1.337a1.337,1.337,0,1,0,0,2.673Z" transform="translate(-102.282 -200.787)" fill="#bf3976"/>
    <path id="Trazado_114297" data-name="Trazado 114297" d="M66.095,191.524H38.2a1.337,1.337,0,0,0-1.337,1.337v22.407A1.337,1.337,0,0,0,38.2,216.6a16.353,16.353,0,0,1,16.334,16.334,1.337,1.337,0,0,0,1.337,1.337H66.095a1.337,1.337,0,0,0,1.337-1.337V192.861a1.337,1.337,0,0,0-1.337-1.337ZM64.758,231.6h-7.6a19.036,19.036,0,0,0-17.625-17.625V194.2H64.758Z" transform="translate(0 -164.275)" fill="#bf3976"/>
    <circle id="Elipse_5032" data-name="Elipse 5032" cx="1.334" cy="1.334" r="1.334" transform="translate(70.928 42.385)" fill="#bf3976"/>
  </g>
</svg>
