<svg id="Grupo_58346" data-name="Grupo 58346" xmlns="http://www.w3.org/2000/svg" width="66.106" height="70" viewBox="0 0 66.106 70">
  <path id="Trazado_114248" data-name="Trazado 114248" d="M328.019,102.66a.987.987,0,0,0,.439-.1l2.516-1.258a.985.985,0,0,0-.881-1.762h0l-2.516,1.258a.985.985,0,0,0,.441,1.866Z" transform="translate(-312.975 -93.462)" fill="#bf3976"/>
  <path id="Trazado_114249" data-name="Trazado 114249" d="M330.583,360.008a.985.985,0,0,0-.985.985v2.814a.985.985,0,1,0,1.97,0v-2.814a.984.984,0,0,0-.984-.985Z" transform="translate(-315.174 -318.667)" fill="#bf3976"/>
  <path id="Trazado_114250" data-name="Trazado 114250" d="M354.75,380.992a.985.985,0,0,0,.984.986h2.816a.985.985,0,0,0,0-1.97h-2.814a.985.985,0,0,0-.986.983Z" transform="translate(-336.913 -335.883)" fill="#bf3976"/>
  <path id="Trazado_114251" data-name="Trazado 114251" d="M383.451,90.97h2.814a.985.985,0,1,0,0-1.97h-2.814a.985.985,0,1,0,0,1.97Z" transform="translate(-360.848 -84.498)" fill="#bf3976"/>
  <path id="Trazado_114252" data-name="Trazado 114252" d="M330.583,300.008a.985.985,0,0,0-.985.985v2.814a.985.985,0,1,0,1.97,0v-2.814a.984.984,0,0,0-.984-.985Z" transform="translate(-315.174 -266.853)" fill="#bf3976"/>
  <path id="Trazado_114253" data-name="Trazado 114253" d="M293.984,171.084a.983.983,0,0,0-1.256-.6h0l-2.65.948a.985.985,0,0,0,.663,1.854l2.649-.948a.984.984,0,0,0,.6-1.258Z" transform="translate(-280.231 -154.941)" fill="#bf3976"/>
  <path id="Trazado_114254" data-name="Trazado 114254" d="M415.747,381.978h2.814a.985.985,0,1,0,0-1.97h-2.814a.985.985,0,1,0,0,1.97Z" transform="translate(-388.739 -335.883)" fill="#bf3976"/>
  <path id="Trazado_114255" data-name="Trazado 114255" d="M277.752,126.807a.986.986,0,0,0-1.321-.441l-2.516,1.258a.985.985,0,0,0,.881,1.762l2.517-1.258A.985.985,0,0,0,277.752,126.807Z" transform="translate(-266.425 -116.519)" fill="#bf3976"/>
  <path id="Trazado_114256" data-name="Trazado 114256" d="M256.987,164.468a.985.985,0,0,0-.985.985v2.814a.985.985,0,1,0,1.97,0v-2.814A.985.985,0,0,0,256.987,164.468Z" transform="translate(-251.5 -149.805)" fill="#bf3976"/>
  <path id="Trazado_114257" data-name="Trazado 114257" d="M330.583,180.008a.985.985,0,0,0-.985.985v2.814a.985.985,0,1,0,1.97,0v-2.814a.984.984,0,0,0-.984-.985Z" transform="translate(-315.174 -163.225)" fill="#bf3976"/>
  <path id="Trazado_114258" data-name="Trazado 114258" d="M330.583,240.008a.985.985,0,0,0-.985.985h0v2.814a.985.985,0,1,0,1.97,0v-2.814a.984.984,0,0,0-.984-.985Z" transform="translate(-315.174 -215.039)" fill="#bf3976"/>
  <path id="Trazado_114259" data-name="Trazado 114259" d="M442.556,92.708a.985.985,0,1,0,1.97,0V89.984a.984.984,0,0,0-.985-.984h-.089a.987.987,0,0,0-.9,1.4Z" transform="translate(-412.626 -84.498)" fill="#bf3976"/>
  <path id="Trazado_114260" data-name="Trazado 114260" d="M444.083,328.356a.985.985,0,0,0-.985.985v2.814a.985.985,0,1,0,1.97,0v-2.814a.984.984,0,0,0-.984-.985Z" transform="translate(-413.169 -291.333)" fill="#bf3976"/>
  <path id="Trazado_114261" data-name="Trazado 114261" d="M444.083,148.356a.985.985,0,0,0-.985.985v2.814a.985.985,0,1,0,1.97,0v-2.814a.984.984,0,0,0-.984-.985Z" transform="translate(-413.169 -135.892)" fill="#bf3976"/>
  <path id="Trazado_114262" data-name="Trazado 114262" d="M444.083,208.356a.985.985,0,0,0-.985.985v2.814a.985.985,0,1,0,1.97,0v-2.814a.984.984,0,0,0-.984-.985Z" transform="translate(-413.169 -187.705)" fill="#bf3976"/>
  <path id="Trazado_114263" data-name="Trazado 114263" d="M444.083,268.356a.985.985,0,0,0-.985.985v2.814a.985.985,0,1,0,1.97,0v-2.814a.984.984,0,0,0-.984-.985Z" transform="translate(-413.169 -239.519)" fill="#bf3976"/>
  <path id="Trazado_114264" data-name="Trazado 114264" d="M476.534,512.688h-.142v-.7a.985.985,0,1,0-1.97,0v1.688a.985.985,0,0,0,.985.985h1.125a.985.985,0,1,0,0-1.97Z" transform="translate(-440.232 -449.159)" fill="#bf3976"/>
  <path id="Trazado_114265" data-name="Trazado 114265" d="M631.755,273.583l2.516,1.258a.985.985,0,0,0,.894-1.755l-.014-.007-2.516-1.258a.985.985,0,0,0-.88,1.762Z" transform="translate(-575.845 -242.404)" fill="#bf3976"/>
  <path id="Trazado_114266" data-name="Trazado 114266" d="M660.811,316.106a1.022,1.022,0,0,0-.059.134.984.984,0,0,0,.6,1.257h0l.116.042a.985.985,0,0,0,1.315-.928v-2.691a.985.985,0,1,0-1.969,0Z" transform="translate(-601.176 -278.015)" fill="#bf3976"/>
  <path id="Trazado_114267" data-name="Trazado 114267" d="M588.907,328.476a.985.985,0,0,0-.985.985v2.814a.985.985,0,1,0,1.97,0v-2.814a.984.984,0,0,0-.984-.985Z" transform="translate(-538.21 -291.437)" fill="#bf3976"/>
  <path id="Trazado_114268" data-name="Trazado 114268" d="M475.407,455.783a.984.984,0,0,0,.985-.984h0v-2.814a.985.985,0,0,0-1.97,0V454.8A.985.985,0,0,0,475.407,455.783Z" transform="translate(-440.214 -397.244)" fill="#bf3976"/>
  <path id="Trazado_114269" data-name="Trazado 114269" d="M604.253,312.209a.984.984,0,0,0,.6,1.258h0l2.649.947a.986.986,0,1,0,.663-1.857l-2.649-.947a.983.983,0,0,0-1.257.594Z" transform="translate(-552.625 -276.793)" fill="#bf3976"/>
  <path id="Trazado_114270" data-name="Trazado 114270" d="M578.035,246.729l2.517,1.259a.985.985,0,1,0,.881-1.762l-2.516-1.259a.985.985,0,0,0-.881,1.762Z" transform="translate(-529.261 -219.213)" fill="#bf3976"/>
  <path id="Trazado_114271" data-name="Trazado 114271" d="M588.907,388.476a.985.985,0,0,0-.985.985v2.814a.985.985,0,1,0,1.97,0v-2.814a.984.984,0,0,0-.984-.985Z" transform="translate(-538.21 -343.25)" fill="#bf3976"/>
  <path id="Trazado_114272" data-name="Trazado 114272" d="M526.232,523h-2.814a.985.985,0,0,0,0,1.97h2.814a.985.985,0,0,0,0-1.97Z" transform="translate(-481.722 -459.471)" fill="#bf3976"/>
  <path id="Trazado_114273" data-name="Trazado 114273" d="M521.987,233.946h2.749a.985.985,0,1,0,0-1.97h-2.749a.985.985,0,0,0,0,1.97Z" transform="translate(-480.484 -208.073)" fill="#bf3976"/>
  <path id="Trazado_114274" data-name="Trazado 114274" d="M588.907,448.476a.985.985,0,0,0-.985.985v2.814a.985.985,0,1,0,1.97,0v-2.814a.984.984,0,0,0-.984-.985Z" transform="translate(-538.21 -395.064)" fill="#bf3976"/>
  <path id="Trazado_114275" data-name="Trazado 114275" d="M584.136,508.476a.985.985,0,0,0-.985.985v1.08a.985.985,0,0,0,.213,1.948h.772a.984.984,0,0,0,.985-.984h0v-2.042a.984.984,0,0,0-.982-.986Z" transform="translate(-533.434 -446.991)" fill="#bf3976"/>
  <path id="Trazado_114276" data-name="Trazado 114276" d="M289.579,85.825l-18.355-9.176a.964.964,0,0,0-.428-.1h-10.55V57.954a.956.956,0,0,0-.957-.954H243.314a.954.954,0,0,0-.428.1l-18.355,9.175a.958.958,0,0,0-.529.856V82.226a.956.956,0,0,0,1.28.9l8.783-3.139v26.506a.957.957,0,0,0,.957.957h18.843v18.594a.957.957,0,0,0,.957.957h24.268a.956.956,0,0,0,.957-.956h0V99.535l8.783,3.14a.957.957,0,0,0,1.279-.9V86.679a.957.957,0,0,0-.528-.855Zm-54.007-7.979a.951.951,0,0,0-.875-.119l-8.781,3.14V67.724l17.624-8.81h14.791v46.622H235.978V78.63a.956.956,0,0,0-.406-.785Zm52.622,22.57-8.783-3.139a.956.956,0,0,0-1.279.9v26.906H255.778V107.45h3.51a.956.956,0,0,0,.957-.956h0V78.462H270.57l17.624,8.811Z" transform="translate(-224.002 -57)" fill="#bf3976"/>
</svg>
