<svg xmlns="http://www.w3.org/2000/svg" width="640.726" height="317.623" viewBox="0 0 640.726 317.623">
  <g id="Grupo_58396" data-name="Grupo 58396" transform="translate(-479.976 -1847.123)">
    <g id="Grupo_58365" data-name="Grupo 58365" transform="translate(481 1919.52)">
      <path id="Trazado_114303" data-name="Trazado 114303" d="M360.847,1458.725s5.169.127,7.2-.448c1.583-.448,3.584-2.538.717-3.464-4.443-1.435-1.911-4.063,1.075-3.674,2.9.377,15.92,2.748,22.163,2.688" transform="translate(-360.847 -1448.056)" fill="none" stroke="#bf3976" stroke-linecap="round" stroke-miterlimit="10" stroke-width="2"/>
      <path id="Trazado_114304" data-name="Trazado 114304" d="M380.144,1447.378s9.618-.359,2.672,4.534c-5.339,3.761-2.672,7.354,2.555,4.337,1.261-.728,2.928-1.94,9.827-3.106" transform="translate(-364.344 -1447.372)" fill="none" stroke="#bf3976" stroke-linecap="round" stroke-miterlimit="10" stroke-width="2"/>
    </g>
    <g id="Grupo_58395" data-name="Grupo 58395">
      <g id="Grupo_58393" data-name="Grupo 58393" transform="translate(38.443)">
        <circle id="Elipse_5033" data-name="Elipse 5033" cx="24" cy="24" r="24" transform="translate(561 1847.123)" fill="#bf3976"/>
        <path id="Trazado_114922" data-name="Trazado 114922" d="M25.848,23H21.887V10.391L18,11.527v-3l7.488-2.59h.363Z" transform="translate(562 1857.123)" fill="#fff"/>
      </g>
      <g id="Grupo_58394" data-name="Grupo 58394" transform="translate(-47.153)">
        <circle id="Elipse_5034" data-name="Elipse 5034" cx="24" cy="24" r="24" transform="translate(1001 1847.123)" fill="#bf3976"/>
        <path id="Trazado_114923" data-name="Trazado 114923" d="M29,23H17.094V20.422l5.484-5.766q2.027-2.309,2.027-3.668a2.551,2.551,0,0,0-.48-1.676,1.715,1.715,0,0,0-1.395-.574,1.737,1.737,0,0,0-1.465.768,3.155,3.155,0,0,0-.562,1.916H16.742a5.6,5.6,0,0,1,.785-2.9,5.506,5.506,0,0,1,2.18-2.08,6.475,6.475,0,0,1,3.117-.75,6.369,6.369,0,0,1,4.26,1.277,4.56,4.56,0,0,1,1.494,3.668A5.326,5.326,0,0,1,28.2,12.6a8.608,8.608,0,0,1-1.166,2,29.372,29.372,0,0,1-2.549,2.807l-2.2,2.543H29Z" transform="translate(1002 1857.123)" fill="#fff"/>
      </g>
      <rect id="Rectángulo_5603" data-name="Rectángulo 5603" width="216.991" height="129.375" transform="translate(510.988 1904.342)" fill="#f2faff" stroke="#afafaf" stroke-miterlimit="10" stroke-width="1"/>
      <rect id="Rectángulo_5604" data-name="Rectángulo 5604" width="216.991" height="129.375" transform="translate(514.639 1908.601)" fill="#d8d8d8" stroke="#afafaf" stroke-miterlimit="10" stroke-width="1" style="isolation: isolate"/>
      <g id="Grupo_58366" data-name="Grupo 58366" transform="translate(836.604 2029.33)">
        <path id="Trazado_114305" data-name="Trazado 114305" d="M795.436,1592.886s5.169.127,7.2-.448c1.583-.447,3.584-2.538.717-3.464-4.443-1.434-1.911-4.063,1.075-3.674,2.9.377,15.92,2.748,22.163,2.688" transform="translate(-795.436 -1582.217)" fill="none" stroke="#bf3976" stroke-linecap="round" stroke-miterlimit="10" stroke-width="2"/>
        <path id="Trazado_114306" data-name="Trazado 114306" d="M814.734,1581.539s9.618-.358,2.672,4.535c-5.339,3.761-2.672,7.353,2.555,4.336,1.261-.727,2.927-1.94,9.827-3.106" transform="translate(-798.933 -1581.533)" fill="none" stroke="#bf3976" stroke-linecap="round" stroke-miterlimit="10" stroke-width="2"/>
      </g>
      <g id="Grupo_58367" data-name="Grupo 58367" transform="translate(732.183 1920.674)">
        <path id="Trazado_114307" data-name="Trazado 114307" d="M698.974,1448.8s-5.169-.126-7.2.448c-1.583.448-3.584,2.539-.717,3.465,4.443,1.434,1.912,4.062-1.075,3.673-2.9-.377-15.92-2.747-22.162-2.688" transform="translate(-667.821 -1448.787)" fill="none" stroke="#bf3976" stroke-linecap="round" stroke-miterlimit="10" stroke-width="2"/>
        <path id="Trazado_114308" data-name="Trazado 114308" d="M683.24,1459.614s-9.617.359-2.671-4.534c5.338-3.761,2.671-7.354-2.555-4.337-1.261.728-2.927,1.94-9.827,3.106" transform="translate(-667.888 -1448.939)" fill="none" stroke="#bf3976" stroke-linecap="round" stroke-miterlimit="10" stroke-width="2"/>
      </g>
      <g id="Grupo_58368" data-name="Grupo 58368" transform="translate(1088.525 2030.155)">
        <path id="Trazado_114309" data-name="Trazado 114309" d="M1134.465,1582.552s-5.169-.126-7.2.448c-1.583.448-3.584,2.539-.717,3.465,4.442,1.435,1.911,4.062-1.075,3.674-2.9-.378-15.92-2.748-22.163-2.688" transform="translate(-1103.312 -1582.541)" fill="none" stroke="#bf3976" stroke-linecap="round" stroke-miterlimit="10" stroke-width="2"/>
        <path id="Trazado_114310" data-name="Trazado 114310" d="M1118.732,1593.369s-9.618.359-2.672-4.535c5.338-3.761,2.672-7.353-2.555-4.337-1.261.728-2.928,1.94-9.828,3.106" transform="translate(-1103.379 -1582.693)" fill="none" stroke="#bf3976" stroke-linecap="round" stroke-miterlimit="10" stroke-width="2"/>
      </g>
      <line id="Línea_370" data-name="Línea 370" x2="214.814" transform="translate(514.639 1925.519)" fill="none" stroke="#bf3976" stroke-linecap="round" stroke-miterlimit="10" stroke-width="2" stroke-dasharray="4 5"/>
      <rect id="Rectángulo_5605" data-name="Rectángulo 5605" width="216.991" height="261" transform="translate(869.922 1903.246)" fill="#d8d8d8" stroke="#afafaf" stroke-miterlimit="10" stroke-width="1" style="isolation: isolate"/>
      <path id="Trazado_114921" data-name="Trazado 114921" d="M16.607,10.448a3.774,3.774,0,0,1-1.271,2.71,4.463,4.463,0,0,1-3.021.989,4.013,4.013,0,0,1-3.226-1.381,5.661,5.661,0,0,1-1.176-3.79V8.324a6.393,6.393,0,0,1,.542-2.71A4.062,4.062,0,0,1,10,3.816a4.339,4.339,0,0,1,2.34-.626,4.348,4.348,0,0,1,2.974.989,4.055,4.055,0,0,1,1.3,2.776h-2.2a2.227,2.227,0,0,0-.575-1.5,2.129,2.129,0,0,0-1.505-.465,1.867,1.867,0,0,0-1.644.787,4.413,4.413,0,0,0-.56,2.443v.806a4.723,4.723,0,0,0,.524,2.527,1.832,1.832,0,0,0,1.652.8,2.169,2.169,0,0,0,1.52-.465,2.1,2.1,0,0,0,.575-1.439Zm.974-.483a4.7,4.7,0,0,1,.454-2.1,3.324,3.324,0,0,1,1.307-1.428,3.814,3.814,0,0,1,1.981-.505,3.609,3.609,0,0,1,2.618.981,3.939,3.939,0,0,1,1.132,2.666l.015.542a4.142,4.142,0,0,1-1.018,2.926,3.539,3.539,0,0,1-2.732,1.1,3.556,3.556,0,0,1-2.736-1.1,4.215,4.215,0,0,1-1.022-2.988Zm2.117.15a2.962,2.962,0,0,0,.425,1.727,1.526,1.526,0,0,0,2.417.007,3.241,3.241,0,0,0,.432-1.889,2.933,2.933,0,0,0-.432-1.716,1.4,1.4,0,0,0-1.216-.609,1.382,1.382,0,0,0-1.2.605A3.3,3.3,0,0,0,19.7,10.115Zm10.986,1.7A.682.682,0,0,0,30.3,11.2a4.368,4.368,0,0,0-1.234-.4q-2.827-.593-2.827-2.4a2.178,2.178,0,0,1,.875-1.761A3.531,3.531,0,0,1,29.4,5.929a3.8,3.8,0,0,1,2.413.71,2.239,2.239,0,0,1,.9,1.846H30.6a1.024,1.024,0,0,0-.293-.751,1.24,1.24,0,0,0-.916-.3,1.267,1.267,0,0,0-.828.242.763.763,0,0,0-.293.615.652.652,0,0,0,.333.568,3.428,3.428,0,0,0,1.124.374,9.183,9.183,0,0,1,1.333.355,2.19,2.19,0,0,1,1.677,2.131,2.067,2.067,0,0,1-.93,1.754,4.013,4.013,0,0,1-2.4.67,4.191,4.191,0,0,1-1.769-.355,2.968,2.968,0,0,1-1.212-.974,2.263,2.263,0,0,1-.439-1.337H28a1.105,1.105,0,0,0,.417.864,1.656,1.656,0,0,0,1.04.3,1.533,1.533,0,0,0,.919-.231A.718.718,0,0,0,30.684,11.81Zm5.955-7.683V6.075h1.355V7.628H36.638v3.955a.944.944,0,0,0,.168.63.846.846,0,0,0,.645.19,3.376,3.376,0,0,0,.623-.051v1.6a4.358,4.358,0,0,1-1.282.19A2.021,2.021,0,0,1,34.522,11.9V7.628H33.365V6.075h1.157V4.127Zm7.28,9.067a2.654,2.654,0,0,1-2.168.952,2.5,2.5,0,0,1-1.945-.732,3.127,3.127,0,0,1-.685-2.146V6.075h2.117V11.2q0,1.239,1.128,1.239a1.528,1.528,0,0,0,1.479-.748V6.075h2.124V14H43.977Zm8.1-5.134A5.751,5.751,0,0,0,51.258,8a1.55,1.55,0,0,0-1.575.813V14H47.566V6.075h2l.059.945a1.961,1.961,0,0,1,1.765-1.091,2.218,2.218,0,0,1,.659.1ZM57.41,14a2.351,2.351,0,0,1-.212-.71,2.561,2.561,0,0,1-2,.857,2.814,2.814,0,0,1-1.93-.674,2.167,2.167,0,0,1-.765-1.7,2.24,2.24,0,0,1,.934-1.934,4.608,4.608,0,0,1,2.7-.681h.974V8.7a1.306,1.306,0,0,0-.282-.879,1.109,1.109,0,0,0-.89-.33,1.261,1.261,0,0,0-.839.256.871.871,0,0,0-.3.7H52.678A2.126,2.126,0,0,1,53.1,7.181a2.808,2.808,0,0,1,1.2-.919,4.378,4.378,0,0,1,1.743-.333,3.459,3.459,0,0,1,2.325.736,2.575,2.575,0,0,1,.861,2.069v3.435a3.789,3.789,0,0,0,.315,1.707V14Zm-1.75-1.472a1.823,1.823,0,0,0,.864-.209,1.371,1.371,0,0,0,.586-.56V10.4h-.791q-1.589,0-1.692,1.1l-.007.125a.847.847,0,0,0,.278.652A1.081,1.081,0,0,0,55.659,12.528Zm16.069-2.417a4.753,4.753,0,0,1-.831,2.933,2.665,2.665,0,0,1-2.245,1.1,2.469,2.469,0,0,1-1.941-.835v3.735H64.595V6.075h1.963l.073.776a2.488,2.488,0,0,1,2.007-.923,2.683,2.683,0,0,1,2.278,1.084A4.882,4.882,0,0,1,71.729,10Zm-2.117-.161a3.136,3.136,0,0,0-.392-1.712,1.275,1.275,0,0,0-1.139-.6,1.385,1.385,0,0,0-1.37.764v3.255a1.409,1.409,0,0,0,1.384.786Q69.612,12.44,69.612,9.949ZM75.274,14H73.15V2.75h2.124Zm6.335,0a2.351,2.351,0,0,1-.212-.71,2.561,2.561,0,0,1-2,.857,2.814,2.814,0,0,1-1.93-.674,2.167,2.167,0,0,1-.765-1.7,2.24,2.24,0,0,1,.934-1.934,4.608,4.608,0,0,1,2.7-.681h.974V8.7a1.306,1.306,0,0,0-.282-.879,1.109,1.109,0,0,0-.89-.33,1.261,1.261,0,0,0-.839.256.871.871,0,0,0-.3.7H76.878A2.126,2.126,0,0,1,77.3,7.181a2.808,2.808,0,0,1,1.2-.919,4.378,4.378,0,0,1,1.743-.333,3.459,3.459,0,0,1,2.325.736,2.575,2.575,0,0,1,.861,2.069v3.435a3.789,3.789,0,0,0,.315,1.707V14Zm-1.75-1.472a1.823,1.823,0,0,0,.864-.209,1.371,1.371,0,0,0,.586-.56V10.4h-.791q-1.589,0-1.692,1.1l-.007.125a.847.847,0,0,0,.278.652A1.081,1.081,0,0,0,79.859,12.528Zm7.148-6.453.066.916a2.767,2.767,0,0,1,2.278-1.062,2.3,2.3,0,0,1,1.875.74,3.451,3.451,0,0,1,.63,2.212V14H89.739V8.92a1.379,1.379,0,0,0-.293-.98,1.31,1.31,0,0,0-.974-.3,1.456,1.456,0,0,0-1.34.763V14H85.015V6.075ZM98.052,14a2.351,2.351,0,0,1-.212-.71,2.561,2.561,0,0,1-2,.857,2.814,2.814,0,0,1-1.93-.674,2.167,2.167,0,0,1-.765-1.7,2.24,2.24,0,0,1,.934-1.934,4.608,4.608,0,0,1,2.7-.681h.974V8.7a1.306,1.306,0,0,0-.282-.879,1.109,1.109,0,0,0-.89-.33,1.261,1.261,0,0,0-.839.256.871.871,0,0,0-.3.7H93.321a2.126,2.126,0,0,1,.425-1.274,2.808,2.808,0,0,1,1.2-.919,4.378,4.378,0,0,1,1.743-.333,3.459,3.459,0,0,1,2.325.736,2.575,2.575,0,0,1,.861,2.069v3.435a3.789,3.789,0,0,0,.315,1.707V14ZM96.3,12.528a1.823,1.823,0,0,0,.864-.209,1.371,1.371,0,0,0,.586-.56V10.4h-.791q-1.589,0-1.692,1.1l-.007.125a.847.847,0,0,0,.278.652A1.081,1.081,0,0,0,96.3,12.528Zm5.75,4.146-1.106-.579.264-.476a3.806,3.806,0,0,0,.505-1.78V12.2H103.5l-.007,1.465a3.805,3.805,0,0,1-.41,1.641A4.206,4.206,0,0,1,102.051,16.673Zm11.3-8.613A5.751,5.751,0,0,0,112.591,8a1.55,1.55,0,0,0-1.575.813V14H108.9V6.075h2l.059.945a1.961,1.961,0,0,1,1.765-1.091,2.218,2.218,0,0,1,.659.1Zm4.526,6.086a3.89,3.89,0,0,1-2.838-1.069,3.8,3.8,0,0,1-1.095-2.849v-.205a4.787,4.787,0,0,1,.461-2.135,3.386,3.386,0,0,1,1.307-1.45,3.669,3.669,0,0,1,1.93-.509,3.289,3.289,0,0,1,2.56,1.025,4.167,4.167,0,0,1,.934,2.908v.864h-5.046a1.966,1.966,0,0,0,.619,1.245,1.871,1.871,0,0,0,1.307.469,2.285,2.285,0,0,0,1.912-.886l1.04,1.165a3.178,3.178,0,0,1-1.289,1.051A4.229,4.229,0,0,1,117.879,14.146Zm-.242-6.511a1.323,1.323,0,0,0-1.022.427,2.209,2.209,0,0,0-.5,1.221h2.944V9.114a1.576,1.576,0,0,0-.381-1.092A1.365,1.365,0,0,0,117.637,7.635Zm7.573,3.779,1.472-5.339h2.212L126.221,14H124.2l-2.673-7.925h2.212Zm8.167,2.732a3.89,3.89,0,0,1-2.838-1.069,3.8,3.8,0,0,1-1.095-2.849v-.205a4.787,4.787,0,0,1,.461-2.135,3.386,3.386,0,0,1,1.307-1.45,3.669,3.669,0,0,1,1.93-.509,3.289,3.289,0,0,1,2.56,1.025,4.167,4.167,0,0,1,.934,2.908v.864H131.59a1.966,1.966,0,0,0,.619,1.245,1.871,1.871,0,0,0,1.307.469,2.285,2.285,0,0,0,1.912-.886l1.04,1.165a3.178,3.178,0,0,1-1.289,1.051A4.229,4.229,0,0,1,133.377,14.146Zm-.242-6.511a1.323,1.323,0,0,0-1.022.427,2.209,2.209,0,0,0-.5,1.221h2.944V9.114a1.576,1.576,0,0,0-.381-1.092A1.365,1.365,0,0,0,133.135,7.635Zm.19-4.885h2.307L133.6,5.021h-1.721Zm8.8,9.06a.682.682,0,0,0-.385-.612,4.368,4.368,0,0,0-1.234-.4q-2.827-.593-2.827-2.4a2.178,2.178,0,0,1,.875-1.761,3.531,3.531,0,0,1,2.289-.707,3.8,3.8,0,0,1,2.413.71,2.239,2.239,0,0,1,.9,1.846h-2.117a1.024,1.024,0,0,0-.293-.751,1.24,1.24,0,0,0-.916-.3,1.267,1.267,0,0,0-.828.242.763.763,0,0,0-.293.615.652.652,0,0,0,.333.568,3.428,3.428,0,0,0,1.124.374,9.183,9.183,0,0,1,1.333.355,2.19,2.19,0,0,1,1.677,2.131,2.067,2.067,0,0,1-.93,1.754,4.013,4.013,0,0,1-2.4.67,4.191,4.191,0,0,1-1.769-.355,2.968,2.968,0,0,1-1.212-.974,2.263,2.263,0,0,1-.439-1.337h2.007a1.105,1.105,0,0,0,.417.864,1.656,1.656,0,0,0,1.04.3,1.533,1.533,0,0,0,.919-.231A.718.718,0,0,0,142.129,11.81Zm6.826-1.831a4.776,4.776,0,0,1,.831-2.952,2.7,2.7,0,0,1,2.274-1.1,2.427,2.427,0,0,1,1.912.864V2.75H156.1V14h-1.912l-.1-.842a2.491,2.491,0,0,1-2.036.989,2.69,2.69,0,0,1-2.245-1.1A4.93,4.93,0,0,1,148.955,9.979Zm2.117.151a3.146,3.146,0,0,0,.388,1.714,1.263,1.263,0,0,0,1.128.6,1.416,1.416,0,0,0,1.384-.831V8.467a1.4,1.4,0,0,0-1.37-.831Q151.072,7.635,151.072,10.13Zm10.313,4.017a3.89,3.89,0,0,1-2.838-1.069,3.8,3.8,0,0,1-1.095-2.849v-.205a4.787,4.787,0,0,1,.461-2.135,3.386,3.386,0,0,1,1.307-1.45,3.669,3.669,0,0,1,1.93-.509,3.289,3.289,0,0,1,2.56,1.025,4.167,4.167,0,0,1,.934,2.908v.864H159.6a1.966,1.966,0,0,0,.619,1.245,1.871,1.871,0,0,0,1.307.469,2.285,2.285,0,0,0,1.912-.886l1.04,1.165a3.178,3.178,0,0,1-1.289,1.051A4.229,4.229,0,0,1,161.385,14.146Zm-.242-6.511a1.323,1.323,0,0,0-1.022.427,2.209,2.209,0,0,0-.5,1.221h2.944V9.114a1.576,1.576,0,0,0-.381-1.092A1.365,1.365,0,0,0,161.143,7.635ZM171.814,14H169.69V2.75h2.124Zm6.335,0a2.351,2.351,0,0,1-.212-.71,2.561,2.561,0,0,1-2,.857,2.814,2.814,0,0,1-1.93-.674,2.167,2.167,0,0,1-.765-1.7,2.24,2.24,0,0,1,.934-1.934,4.608,4.608,0,0,1,2.7-.681h.974V8.7a1.306,1.306,0,0,0-.282-.879,1.109,1.109,0,0,0-.89-.33,1.261,1.261,0,0,0-.839.256.871.871,0,0,0-.3.7h-2.117a2.126,2.126,0,0,1,.425-1.274,2.808,2.808,0,0,1,1.2-.919,4.378,4.378,0,0,1,1.743-.333,3.459,3.459,0,0,1,2.325.736,2.575,2.575,0,0,1,.861,2.069v3.435a3.789,3.789,0,0,0,.315,1.707V14Zm-1.75-1.472a1.823,1.823,0,0,0,.864-.209,1.371,1.371,0,0,0,.586-.56V10.4h-.791q-1.589,0-1.692,1.1l-.007.125a.847.847,0,0,0,.278.652A1.081,1.081,0,0,0,176.4,12.528Zm11.47-8.4V6.075h1.355V7.628h-1.355v3.955a.944.944,0,0,0,.168.63.846.846,0,0,0,.645.19,3.376,3.376,0,0,0,.623-.051v1.6a4.358,4.358,0,0,1-1.282.19,2.021,2.021,0,0,1-2.271-2.249V7.628h-1.157V6.075h1.157V4.127Zm6.182,10.02a3.89,3.89,0,0,1-2.838-1.069,3.8,3.8,0,0,1-1.095-2.849v-.205a4.787,4.787,0,0,1,.461-2.135,3.386,3.386,0,0,1,1.307-1.45,3.669,3.669,0,0,1,1.93-.509,3.289,3.289,0,0,1,2.56,1.025,4.167,4.167,0,0,1,.934,2.908v.864h-5.046a1.966,1.966,0,0,0,.619,1.245,1.871,1.871,0,0,0,1.307.469,2.285,2.285,0,0,0,1.912-.886l1.04,1.165a3.178,3.178,0,0,1-1.289,1.051A4.229,4.229,0,0,1,194.051,14.146Zm-.242-6.511a1.323,1.323,0,0,0-1.022.427,2.209,2.209,0,0,0-.5,1.221h2.944V9.114a1.576,1.576,0,0,0-.381-1.092A1.365,1.365,0,0,0,193.809,7.635ZM200.745,14h-2.124V2.75h2.124Zm6.335,0a2.351,2.351,0,0,1-.212-.71,2.561,2.561,0,0,1-2,.857,2.814,2.814,0,0,1-1.93-.674,2.167,2.167,0,0,1-.765-1.7,2.24,2.24,0,0,1,.934-1.934,4.608,4.608,0,0,1,2.7-.681h.974V8.7a1.306,1.306,0,0,0-.282-.879,1.109,1.109,0,0,0-.89-.33,1.261,1.261,0,0,0-.839.256.871.871,0,0,0-.3.7h-2.117a2.126,2.126,0,0,1,.425-1.274,2.808,2.808,0,0,1,1.2-.919,4.378,4.378,0,0,1,1.743-.333,3.459,3.459,0,0,1,2.325.736,2.575,2.575,0,0,1,.861,2.069v3.435a3.789,3.789,0,0,0,.315,1.707V14Zm-1.75-1.472a1.823,1.823,0,0,0,.864-.209,1.371,1.371,0,0,0,.586-.56V10.4h-.791q-1.589,0-1.692,1.1l-.007.125a.847.847,0,0,0,.278.652A1.081,1.081,0,0,0,205.33,12.528Z" transform="translate(514.943 2011.687)"/>
      <path id="Trazado_114920" data-name="Trazado 114920" d="M43.493,10.448a3.774,3.774,0,0,1-1.271,2.71,4.463,4.463,0,0,1-3.021.989,4.013,4.013,0,0,1-3.226-1.381A5.661,5.661,0,0,1,34.8,8.976V8.324a6.393,6.393,0,0,1,.542-2.71,4.062,4.062,0,0,1,1.549-1.8,4.841,4.841,0,0,1,5.314.363,4.055,4.055,0,0,1,1.3,2.776h-2.2a2.227,2.227,0,0,0-.575-1.5,2.129,2.129,0,0,0-1.505-.465,1.867,1.867,0,0,0-1.644.787,4.413,4.413,0,0,0-.56,2.443v.806a4.723,4.723,0,0,0,.524,2.527,1.832,1.832,0,0,0,1.652.8,2.169,2.169,0,0,0,1.52-.465,2.1,2.1,0,0,0,.575-1.439Zm.974-.483a4.7,4.7,0,0,1,.454-2.1,3.324,3.324,0,0,1,1.307-1.428,3.814,3.814,0,0,1,1.981-.505,3.609,3.609,0,0,1,2.618.981A3.939,3.939,0,0,1,51.96,9.576l.015.542a4.142,4.142,0,0,1-1.018,2.926,3.946,3.946,0,0,1-5.468,0,4.215,4.215,0,0,1-1.022-2.988Zm2.117.15a2.962,2.962,0,0,0,.425,1.727,1.526,1.526,0,0,0,2.417.007,3.241,3.241,0,0,0,.432-1.889,2.933,2.933,0,0,0-.432-1.716,1.4,1.4,0,0,0-1.216-.609,1.382,1.382,0,0,0-1.2.605A3.3,3.3,0,0,0,46.584,10.115Zm10.986,1.7a.682.682,0,0,0-.385-.612,4.368,4.368,0,0,0-1.234-.4q-2.827-.593-2.827-2.4A2.178,2.178,0,0,1,54,6.635a3.531,3.531,0,0,1,2.289-.707,3.8,3.8,0,0,1,2.413.71,2.239,2.239,0,0,1,.9,1.846H57.49a1.024,1.024,0,0,0-.293-.751,1.24,1.24,0,0,0-.916-.3,1.267,1.267,0,0,0-.828.242.763.763,0,0,0-.293.615.652.652,0,0,0,.333.568,3.428,3.428,0,0,0,1.124.374,9.183,9.183,0,0,1,1.333.355,2.19,2.19,0,0,1,1.677,2.131,2.067,2.067,0,0,1-.93,1.754,4.013,4.013,0,0,1-2.4.67,4.191,4.191,0,0,1-1.769-.355,2.968,2.968,0,0,1-1.212-.974,2.263,2.263,0,0,1-.439-1.337h2.007a1.105,1.105,0,0,0,.417.864,1.656,1.656,0,0,0,1.04.3,1.533,1.533,0,0,0,.919-.231A.718.718,0,0,0,57.571,11.81Zm5.955-7.683V6.075H64.88V7.628H63.525v3.955a.944.944,0,0,0,.168.63.846.846,0,0,0,.645.19,3.376,3.376,0,0,0,.623-.051v1.6a4.358,4.358,0,0,1-1.282.19A2.021,2.021,0,0,1,61.408,11.9V7.628H60.251V6.075h1.157V4.127Zm7.28,9.067a2.654,2.654,0,0,1-2.168.952,2.5,2.5,0,0,1-1.945-.732,3.127,3.127,0,0,1-.685-2.146V6.075h2.117V11.2q0,1.239,1.128,1.239a1.528,1.528,0,0,0,1.479-.748V6.075h2.124V14H70.864Zm8.1-5.134A5.751,5.751,0,0,0,78.144,8a1.55,1.55,0,0,0-1.575.813V14H74.453V6.075h2l.059.945a1.961,1.961,0,0,1,1.765-1.091,2.218,2.218,0,0,1,.659.1ZM84.3,14a2.351,2.351,0,0,1-.212-.71,2.561,2.561,0,0,1-2,.857,2.814,2.814,0,0,1-1.93-.674,2.167,2.167,0,0,1-.765-1.7,2.24,2.24,0,0,1,.934-1.934,4.608,4.608,0,0,1,2.7-.681H84V8.7a1.306,1.306,0,0,0-.282-.879,1.109,1.109,0,0,0-.89-.33,1.261,1.261,0,0,0-.839.256.871.871,0,0,0-.3.7H79.565a2.126,2.126,0,0,1,.425-1.274,2.808,2.808,0,0,1,1.2-.919,4.378,4.378,0,0,1,1.743-.333,3.459,3.459,0,0,1,2.325.736,2.575,2.575,0,0,1,.861,2.069v3.435a3.789,3.789,0,0,0,.315,1.707V14Zm-1.75-1.472a1.823,1.823,0,0,0,.864-.209,1.371,1.371,0,0,0,.586-.56V10.4h-.791q-1.589,0-1.692,1.1l-.007.125a.847.847,0,0,0,.278.652A1.081,1.081,0,0,0,82.546,12.528Zm16.069-2.417a4.753,4.753,0,0,1-.831,2.933,2.665,2.665,0,0,1-2.245,1.1,2.469,2.469,0,0,1-1.941-.835v3.735H91.482V6.075h1.963l.073.776a2.488,2.488,0,0,1,2.007-.923A2.683,2.683,0,0,1,97.8,7.013,4.882,4.882,0,0,1,98.615,10ZM96.5,9.949a3.136,3.136,0,0,0-.392-1.712,1.275,1.275,0,0,0-1.139-.6A1.385,1.385,0,0,0,93.6,8.4v3.255a1.409,1.409,0,0,0,1.384.786Q96.5,12.44,96.5,9.949ZM102.16,14h-2.124V2.75h2.124Zm6.335,0a2.351,2.351,0,0,1-.212-.71,2.561,2.561,0,0,1-2,.857,2.814,2.814,0,0,1-1.93-.674,2.167,2.167,0,0,1-.765-1.7,2.24,2.24,0,0,1,.934-1.934,4.608,4.608,0,0,1,2.7-.681h.974V8.7a1.306,1.306,0,0,0-.282-.879,1.109,1.109,0,0,0-.89-.33,1.261,1.261,0,0,0-.839.256.871.871,0,0,0-.3.7h-2.117a2.126,2.126,0,0,1,.425-1.274,2.808,2.808,0,0,1,1.2-.919,4.378,4.378,0,0,1,1.743-.333,3.459,3.459,0,0,1,2.325.736,2.575,2.575,0,0,1,.861,2.069v3.435a3.789,3.789,0,0,0,.315,1.707V14Zm-1.75-1.472a1.823,1.823,0,0,0,.864-.209,1.371,1.371,0,0,0,.586-.56V10.4H107.4q-1.589,0-1.692,1.1l-.007.125a.847.847,0,0,0,.278.652A1.081,1.081,0,0,0,106.745,12.528Zm7.148-6.453.066.916a2.767,2.767,0,0,1,2.278-1.062,2.3,2.3,0,0,1,1.875.74,3.451,3.451,0,0,1,.63,2.212V14h-2.117V8.92a1.379,1.379,0,0,0-.293-.98,1.31,1.31,0,0,0-.974-.3,1.456,1.456,0,0,0-1.34.763V14H111.9V6.075ZM124.939,14a2.351,2.351,0,0,1-.212-.71,2.561,2.561,0,0,1-2,.857,2.814,2.814,0,0,1-1.93-.674,2.167,2.167,0,0,1-.765-1.7,2.24,2.24,0,0,1,.934-1.934,4.608,4.608,0,0,1,2.7-.681h.974V8.7a1.306,1.306,0,0,0-.282-.879,1.109,1.109,0,0,0-.89-.33,1.261,1.261,0,0,0-.839.256.871.871,0,0,0-.3.7h-2.117a2.126,2.126,0,0,1,.425-1.274,2.808,2.808,0,0,1,1.2-.919,4.378,4.378,0,0,1,1.743-.333,3.459,3.459,0,0,1,2.325.736,2.575,2.575,0,0,1,.861,2.069v3.435a3.789,3.789,0,0,0,.315,1.707V14Zm-1.75-1.472a1.823,1.823,0,0,0,.864-.209,1.371,1.371,0,0,0,.586-.56V10.4h-.791q-1.589,0-1.692,1.1l-.007.125a.847.847,0,0,0,.278.652A1.081,1.081,0,0,0,123.188,12.528ZM136.716,14a2.351,2.351,0,0,1-.212-.71,2.561,2.561,0,0,1-2,.857,2.814,2.814,0,0,1-1.93-.674,2.167,2.167,0,0,1-.765-1.7,2.24,2.24,0,0,1,.934-1.934,4.608,4.608,0,0,1,2.7-.681h.974V8.7a1.306,1.306,0,0,0-.282-.879,1.109,1.109,0,0,0-.89-.33,1.261,1.261,0,0,0-.839.256.871.871,0,0,0-.3.7h-2.117a2.126,2.126,0,0,1,.425-1.274,2.808,2.808,0,0,1,1.2-.919,4.378,4.378,0,0,1,1.743-.333,3.459,3.459,0,0,1,2.325.736,2.575,2.575,0,0,1,.861,2.069v3.435a3.789,3.789,0,0,0,.315,1.707V14Zm-1.75-1.472a1.823,1.823,0,0,0,.864-.209,1.371,1.371,0,0,0,.586-.56V10.4h-.791q-1.589,0-1.692,1.1l-.007.125a.847.847,0,0,0,.278.652A1.081,1.081,0,0,0,134.966,12.528Zm12.341-2.417a4.8,4.8,0,0,1-.813,2.97,2.693,2.693,0,0,1-2.271,1.066,2.474,2.474,0,0,1-2.058-.989l-.1.842h-1.9V2.75h2.117V6.786a2.411,2.411,0,0,1,1.926-.857,2.715,2.715,0,0,1,2.274,1.066,4.806,4.806,0,0,1,.824,3Zm-2.117-.161a3.17,3.17,0,0,0-.381-1.76,1.287,1.287,0,0,0-1.135-.555,1.4,1.4,0,0,0-1.392.83V11.6a1.415,1.415,0,0,0,1.406.837,1.307,1.307,0,0,0,1.348-1.014A5.245,5.245,0,0,0,145.19,9.949ZM150.844,14H148.72V6.075h2.124ZM148.6,4.024a1.042,1.042,0,0,1,.319-.784,1.373,1.373,0,0,1,1.732,0,1.036,1.036,0,0,1,.322.784,1.039,1.039,0,0,1-.326.791,1.358,1.358,0,0,1-1.721,0A1.039,1.039,0,0,1,148.6,4.024Zm7.639,10.122a3.89,3.89,0,0,1-2.838-1.069,3.8,3.8,0,0,1-1.095-2.849v-.205a4.787,4.787,0,0,1,.461-2.135,3.386,3.386,0,0,1,1.307-1.45A3.669,3.669,0,0,1,156,5.929a3.289,3.289,0,0,1,2.56,1.025,4.167,4.167,0,0,1,.934,2.908v.864h-5.046a1.966,1.966,0,0,0,.619,1.245,1.871,1.871,0,0,0,1.307.469,2.285,2.285,0,0,0,1.912-.886l1.04,1.165a3.178,3.178,0,0,1-1.289,1.051A4.229,4.229,0,0,1,156.235,14.146Zm-.242-6.511a1.323,1.323,0,0,0-1.022.427,2.209,2.209,0,0,0-.5,1.221h2.944V9.114a1.576,1.576,0,0,0-.381-1.092A1.365,1.365,0,0,0,155.993,7.635Zm9.155.425A5.751,5.751,0,0,0,164.387,8a1.55,1.55,0,0,0-1.575.813V14H160.7V6.075h2l.059.945a1.961,1.961,0,0,1,1.765-1.091,2.218,2.218,0,0,1,.659.1Zm3.918-3.933V6.075h1.355V7.628h-1.355v3.955a.944.944,0,0,0,.168.63.846.846,0,0,0,.645.19,3.376,3.376,0,0,0,.623-.051v1.6a4.358,4.358,0,0,1-1.282.19A2.021,2.021,0,0,1,166.95,11.9V7.628h-1.157V6.075h1.157V4.127ZM176.194,14a2.351,2.351,0,0,1-.212-.71,2.561,2.561,0,0,1-2,.857,2.814,2.814,0,0,1-1.93-.674,2.167,2.167,0,0,1-.765-1.7,2.24,2.24,0,0,1,.934-1.934,4.608,4.608,0,0,1,2.7-.681h.974V8.7a1.306,1.306,0,0,0-.282-.879,1.109,1.109,0,0,0-.89-.33,1.261,1.261,0,0,0-.839.256.871.871,0,0,0-.3.7h-2.117a2.126,2.126,0,0,1,.425-1.274,2.808,2.808,0,0,1,1.2-.919,4.378,4.378,0,0,1,1.743-.333,3.459,3.459,0,0,1,2.325.736,2.575,2.575,0,0,1,.861,2.069v3.435a3.789,3.789,0,0,0,.315,1.707V14Zm-1.75-1.472a1.823,1.823,0,0,0,.864-.209,1.371,1.371,0,0,0,.586-.56V10.4H175.1q-1.589,0-1.692,1.1l-.007.125a.847.847,0,0,0,.278.652A1.081,1.081,0,0,0,174.443,12.528Z" transform="translate(871.347 2136.141)"/>
      <path id="Trazado_114311" data-name="Trazado 114311" d="M1055.081,1560.26H839.137a51.877,51.877,0,0,1-.3,9.045,48.884,48.884,0,0,1-3.45,13.324h217.894A93.013,93.013,0,0,0,1055.081,1560.26Z" transform="translate(34.389 451.676)" fill="#f2faff" stroke="#afafaf" stroke-miterlimit="10" stroke-width="1"/>
      <path id="Trazado_114312" data-name="Trazado 114312" d="M1055.081,1610.153H839.137a51.867,51.867,0,0,0-.3-9.044,48.9,48.9,0,0,0-3.45-13.325h217.894A93.016,93.016,0,0,1,1055.081,1610.153Z" transform="translate(34.389 446.676)" fill="#f2faff" stroke="#afafaf" stroke-miterlimit="10" stroke-width="1"/>
    </g>
  </g>
</svg>
